SplineFontDB: 3.2
FontName: RazeDragmyr
FullName: Raze Dragmyr
FamilyName: Raze Dragmyr
Weight: Regular
Copyright: Copyright (c) 2020, Eric Scholz
UComments: "2020-12-2: Created with FontForge (http://fontforge.org)"
Version: 000.001
ItalicAngle: 0
UnderlinePosition: -100
UnderlineWidth: 50
Ascent: 750
Descent: 250
InvalidEm: 0
LayerCount: 2
Layer: 0 0 "Back" 1
Layer: 1 0 "Fore" 0
XUID: [1021 981 1692638275 468]
StyleMap: 0x0000
FSType: 0
OS2Version: 0
OS2_WeightWidthSlopeOnly: 0
OS2_UseTypoMetrics: 1
CreationTime: 1606962887
ModificationTime: 1609487477
OS2TypoAscent: 0
OS2TypoAOffset: 1
OS2TypoDescent: 0
OS2TypoDOffset: 1
OS2TypoLinegap: 90
OS2WinAscent: 0
OS2WinAOffset: 1
OS2WinDescent: 0
OS2WinDOffset: 1
HheadAscent: 0
HheadAOffset: 1
HheadDescent: 0
HheadDOffset: 1
MarkAttachClasses: 1
DEI: 91125
Encoding: ISO8859-1
UnicodeInterp: none
NameList: AGL For New Fonts
DisplaySize: -72
AntiAlias: 1
FitToEm: 0
WinInfo: 0 14 14
BeginPrivate: 1
BlueValues 26 [-198 125 499 532 691 714]
EndPrivate
Grid
700 -251 m 25
 700 749 l 1049
350 499 m 25
 700 124 l 25
 350 -251 l 25
 0 124 l 1049
0 124 m 25
 350 499 l 25
 350 -251 l 1049
0 124 m 17
 700 124 l 1
 700 124 l 1033
1000 749 m 25
 1000 -253 l 1049
0 499 m 25
 700 -251 l 1049
700 499 m 1
 0 -251 l 1025
0 499 m 1
 1000 499 l 1025
  Named: "x-height"
EndSplineSet
AnchorClass2: "MiddleBottom""" 
BeginChars: 256 190

StartChar: A
Encoding: 65 65 0
Width: 399
VWidth: 998
Flags: W
HStem: -0.862305 21G<8.92454 55.1132>
VStem: 298.722 52.0566<-164.057 324.196>
LayerCount: 2
Fore
SplineSet
348.842773438 495.734375 m 1
 350.778320312 -179.612304688 l 1
 319.971679688 -200.862304688 l 1
 298.721679688 -164.056640625 l 1
 297.483398438 324.196289062 l 1
 57.2783203125 20.3876953125 l 1
 20.4716796875 -0.8623046875 l 1
 -0.7783203125 35.943359375 l 1
 348.842773438 495.734375 l 1
EndSplineSet
Validated: 524289
EndChar

StartChar: B
Encoding: 66 66 1
Width: 435
VWidth: 998
Flags: W
HStem: -87.875 52.25<51.2314 265.737> 210.484 51.9531<140.441 158.703> 481.875 20G<-1.89453 65.4421>
LayerCount: 2
Back
SplineSet
555 1209 m 1053
EndSplineSet
Fore
SplineSet
-453 -1014 m 1049
387.723632812 -87.875 m 1
 37.23046875 -87.875 l 1
 18.10546875 -54.75 l 1
 51.2314453125 -35.625 l 1
 265.737304688 -35.625 l 1
 28.0205078125 263.31640625 l 1
 158.703125 262.4375 l 1
 17.23046875 449.625 l 1
 -1.89453125 482.75 l 1
 51.2314453125 501.875 l 1
 258.858398438 209.662109375 l 1
 140.44140625 210.484375 l 1
 387.723632812 -87.875 l 1
EndSplineSet
Validated: 524289
EndChar

StartChar: C
Encoding: 67 67 2
Width: 272
Flags: W
HStem: -90.7783 58.0566<58.0283 361.222> 440.722 58.0566<58.0283 166.572>
VStem: -0.0283203 58.0566<-32.7217 440.722>
LayerCount: 2
Fore
SplineSet
-0.0283203125 -90.7783203125 m 5
 -0.0283203125 498.778320312 l 5
 182.127929688 498.778320312 l 5
 203.377929688 461.971679688 l 5
 166.572265625 440.721679688 l 5
 58.0283203125 440.721679688 l 5
 58.0283203125 -32.7216796875 l 5
 376.778320312 -32.7216796875 l 5
 398.028320312 -69.5283203125 l 5
 361.221679688 -90.7783203125 l 5
 -0.0283203125 -90.7783203125 l 5
EndSplineSet
Validated: 524289
EndChar

StartChar: D
Encoding: 68 68 3
Width: 412
Flags: W
HStem: -88.875 52.25<32.9004 133.832> 123.475 21G<7.35258 52.0254> 446.625 52.25<52.0254 293.969>
VStem: -0.225586 52.251<156.601 446.625> 293.969 52.2568<247.984 446.625>
LayerCount: 2
Fore
SplineSet
-0.2255859375 498.875 m 5
 346.225585938 498.875 l 5
 346.225585938 465.75 l 6
 346.225585938 151.848632812 346.225585938 55.4033203125 204.275390625 -26.55078125 c 6
 171.149414062 -45.67578125 l 6
 121.29296875 -74.4609375 109.926757812 -88.875 18.8994140625 -88.875 c 5
 -0.2255859375 -55.75 l 5
 32.900390625 -36.625 l 5
 113.877929688 -36.625 120.130859375 -25.2177734375 167.98828125 -2.43359375 c 5
 289.301757812 81.80859375 293.801757812 163.767578125 293.96875 446.625 c 5
 52.025390625 446.625 l 5
 52.025390625 142.599609375 l 5
 18.8994140625 123.474609375 l 5
 -0.2255859375 156.600585938 l 5
 -0.2255859375 498.875 l 5
EndSplineSet
Validated: 524289
EndChar

StartChar: E
Encoding: 69 69 4
Width: 405
Flags: W
HStem: -93.1035 58.0566<36.0283 311.972> 269.896 58.0566<45.0283 157.972> 440.896 58.0566<36.0283 312.972>
LayerCount: 2
Fore
SplineSet
20.4716796875 -93.103515625 m 1
 -0.7783203125 -56.296875 l 1
 36.0283203125 -35.046875 l 1
 327.528320312 -35.896484375 l 1
 348.778320312 -72.703125 l 1
 311.971679688 -93.953125 l 1
 20.4716796875 -93.103515625 l 1
29.4716796875 269.896484375 m 1
 8.2216796875 306.703125 l 1
 45.0283203125 327.953125 l 1
 173.528320312 327.103515625 l 1
 194.778320312 290.296875 l 1
 157.971679688 269.046875 l 1
 29.4716796875 269.896484375 l 1
20.4716796875 440.896484375 m 1
 -0.7783203125 477.703125 l 1
 36.0283203125 498.953125 l 1
 328.528320312 498.103515625 l 1
 349.778320312 461.296875 l 1
 312.971679688 440.046875 l 1
 20.4716796875 440.896484375 l 1
EndSplineSet
Validated: 524289
EndChar

StartChar: F
Encoding: 70 70 5
Width: 411
Flags: W
HStem: -82.7783 21G<9.92485 56.1132> 273.215 58.1865<58.2783 225.472> 440.722 58.0566<58.2783 318.972>
VStem: 0.22168 58.0566<-45.9717 273.215 331.401 440.722>
LayerCount: 2
Fore
SplineSet
0.2216796875 477.528320312 m 1
 37.0283203125 498.778320312 l 1
 334.528320312 498.778320312 l 1
 355.778320312 461.971679688 l 1
 318.971679688 440.721679688 l 1
 58.2783203125 440.721679688 l 1
 58.2783203125 331.401367188 l 1
 241.028320312 329.877929688 l 1
 262.278320312 293.072265625 l 1
 225.471679688 271.822265625 l 1
 58.2783203125 273.21484375 l 1
 58.2783203125 -61.5283203125 l 1
 21.4716796875 -82.7783203125 l 1
 0.2216796875 -45.9716796875 l 1
 0.2216796875 263.328125 l 1
 0.2216796875 477.528320312 l 1
EndSplineSet
Validated: 524289
EndChar

StartChar: G
Encoding: 71 71 6
Width: 401
Flags: W
HStem: -91.7783 58.0566<58.2783 291.722> 273.572 58.0557<184.028 291.722> 440.722 58.0566<58.2783 312.972>
VStem: 0.22168 58.0566<-33.7217 440.722> 291.722 58.0566<-33.7217 273.572>
LayerCount: 2
Fore
SplineSet
291.721679688 -33.7216796875 m 1
 291.721679688 273.572265625 l 1
 168.471679688 273.572265625 l 1
 147.221679688 310.377929688 l 1
 184.028320312 331.627929688 l 1
 328.528320312 331.627929688 l 1
 349.778320312 294.822265625 l 1
 349.778320312 -70.5283203125 l 1
 312.971679688 -91.7783203125 l 1
 21.4716796875 -91.7783203125 l 1
 0.2216796875 -54.9716796875 l 1
 0.2216796875 477.528320312 l 1
 37.0283203125 498.778320312 l 1
 328.528320312 498.778320312 l 1
 349.778320312 461.971679688 l 1
 312.971679688 440.721679688 l 1
 58.2783203125 440.721679688 l 1
 58.2783203125 -33.7216796875 l 1
 291.721679688 -33.7216796875 l 1
EndSplineSet
Validated: 524289
EndChar

StartChar: H
Encoding: 72 72 7
Width: 408
Flags: W
HStem: -177.778 265G<8.92485 55.1132 301.425 347.613> 282.867 58.1006<57.2783 291.722> 479.778 20G<1.3877 47.5751 293.887 340.075>
VStem: -0.777344 58.0557<124.028 282.867 340.968 462.972> 291.722 58.0566<-161.972 282.183 340.283 462.972>
LayerCount: 2
Fore
SplineSet
-0.77734375 478.528320312 m 1
 36.0283203125 499.778320312 l 1
 57.2783203125 462.971679688 l 1
 57.2783203125 368.970703125 57.2783203125 434.96875 57.2783203125 340.967773438 c 1
 291.721679688 340.283203125 l 1
 291.721679688 478.528320312 l 1
 328.528320312 499.778320312 l 1
 349.778320312 462.971679688 l 1
 349.778320312 143.372070312 l 1
 349.778320312 -177.528320312 l 1
 312.971679688 -198.778320312 l 1
 291.721679688 -161.971679688 l 1
 291.721679688 282.182617188 l 1
 57.2783203125 282.8671875 l 1
 57.2783203125 108.471679688 l 1
 20.4716796875 87.2216796875 l 1
 -0.7783203125 124.028320312 l 1
 -0.7783203125 159.778320312 l 1
 -0.77734375 159.778320312 l 1
 -0.77734375 478.528320312 l 1
EndSplineSet
Validated: 524289
EndChar

StartChar: I
Encoding: 73 73 8
Width: 210
Flags: W
HStem: -88.9648 58.0557<37.9883 94.667> 440.535 58.0557<36.9883 91.5781>
VStem: 91.5781 57.6641<-32.1895 440.535>
LayerCount: 2
Fore
SplineSet
149.2421875 498.590820312 m 5
 152.953125 -91.0849609375 l 5
 22.4326171875 -88.96484375 l 5
 1.1826171875 -52.1591796875 l 5
 37.98828125 -30.9091796875 l 5
 94.6669921875 -32.189453125 l 5
 91.578125 440.53515625 l 5
 21.4326171875 440.53515625 l 5
 0.1826171875 477.340820312 l 5
 36.98828125 498.590820312 l 5
 149.2421875 498.590820312 l 5
EndSplineSet
Validated: 524289
EndChar

StartChar: J
Encoding: 74 74 9
Width: 414
Flags: W
HStem: -95.8477 58.0557<33.4346 121.493> 440.701 58.2656<58.085 297.938>
VStem: 0.0283203 58.0566<410.462 440.701> 295.844 58.0557<143.753 440.018>
LayerCount: 2
Fore
SplineSet
353.615234375 300.916992188 m 0
 353.615234375 280.750976562 353.899414062 260.088867188 353.899414062 239.337890625 c 0
 353.899414062 118.930664062 290.390625 13.6767578125 198.913085938 -39.1376953125 c 2
 162.106445312 -60.3876953125 l 2
 119.51953125 -84.9755859375 68.5205078125 -95.84765625 19.3017578125 -95.84765625 c 0
 18.8271484375 -95.84765625 18.3525390625 -95.8466796875 17.87890625 -95.84375 c 2
 -3.37109375 -59.0380859375 l 1
 33.4345703125 -37.7880859375 l 2
 33.9091796875 -37.791015625 34.3837890625 -37.7919921875 34.857421875 -37.7919921875 c 0
 76.9912109375 -37.7919921875 118.23046875 -18.6259765625 155.946289062 -0.275390625 c 1
 237.971679688 55.056640625 295.84375 142.578125 295.84375 254.89453125 c 0
 295.84375 275.642578125 295.55859375 296.30859375 295.55859375 316.47265625 c 0
 295.55859375 398.435546875 296.932617188 366.536132812 297.938476562 440.017578125 c 1
 58.0849609375 440.701171875 l 1
 58.0849609375 394.90625 l 1
 21.2783203125 373.65625 l 1
 0.0283203125 410.461914062 l 1
 0.0283203125 498.966796875 l 1
 350.791015625 497.950195312 l 1
 349.81640625 397.557617188 353.615234375 408.154296875 353.615234375 300.916992188 c 0
EndSplineSet
Validated: 524321
EndChar

StartChar: K
Encoding: 75 75 10
Width: 379
Flags: W
HStem: -191.499 21G<0.22168 23.4321 296.866 349.613> 479.72 20G<2.38678 48.5751>
VStem: 0.22168 58.0566<71.8818 462.913>
LayerCount: 2
Fore
SplineSet
0.2216796875 -191.499023438 m 1
 0.2216796875 478.469726562 l 1
 37.0283203125 499.719726562 l 1
 58.2783203125 462.913085938 l 1
 58.2783203125 71.8818359375 l 1
 138.380859375 242.790039062 213.887695312 414.293945312 293.721679688 585.469726562 c 1
 330.528320312 606.719726562 l 1
 351.778320312 569.913085938 l 1
 287.403320312 431.564453125 226.993164062 293.25 162.465820312 155.052734375 c 1
 330.528320312 -30.7802734375 l 1
 351.778320312 -67.5869140625 l 1
 314.971679688 -88.8369140625 l 1
 139.225585938 105.295898438 l 1
 92.966796875 6.2890625 46.642578125 -92.6533203125 0.2216796875 -191.499023438 c 1
EndSplineSet
Validated: 524289
EndChar

StartChar: L
Encoding: 76 76 11
Width: 175
Flags: W
HStem: -90.7783 58.0566<57.2783 317.972> 479.778 20G<1.38678 47.5751>
VStem: -0.77832 58.0566<-32.7217 462.972>
LayerCount: 2
Fore
SplineSet
-0.7783203125 -90.7783203125 m 1
 -0.7783203125 478.528320312 l 1
 36.0283203125 499.778320312 l 1
 57.2783203125 462.971679688 l 1
 57.2783203125 -32.7216796875 l 1
 333.528320312 -32.7216796875 l 1
 354.778320312 -69.5283203125 l 1
 317.971679688 -90.7783203125 l 1
 -0.7783203125 -90.7783203125 l 1
EndSplineSet
Validated: 524289
EndChar

StartChar: M
Encoding: 77 77 12
Width: 419
Flags: W
HStem: 86.3467 43.2002G<8.92485 55.1132 148.368 216.017> 479.653 20G<-0.77832 57.2783 288.319 354.778>
VStem: -0.77832 58.0566<123.153 313.375> 296.722 58.0566<-162.847 296.823>
LayerCount: 2
Fore
SplineSet
174.901367188 209.69140625 m 1
 296.721679688 499.653320312 l 1
 354.778320312 484.096679688 l 1
 354.778320312 -178.403320312 l 1
 317.971679688 -199.653320312 l 1
 296.721679688 -162.846679688 l 1
 296.721679688 296.823242188 l 1
 206.424804688 108.546875 l 1
 148.368164062 124.103515625 l 1
 57.2783203125 313.375 l 1
 57.2783203125 107.596679688 l 1
 20.4716796875 86.3466796875 l 1
 -0.7783203125 123.153320312 l 1
 -0.7783203125 499.653320312 l 1
 57.2783203125 484.096679688 l 1
 174.901367188 209.69140625 l 1
EndSplineSet
Validated: 524289
EndChar

StartChar: N
Encoding: 78 78 13
Width: 409
Flags: W
HStem: 85.2217 21G<8.92485 55.1132> 480.778 20G<298.887 345.075>
VStem: -0.77832 58.0566<122.028 387.122> 296.722 58.0566<-17.1221 463.972>
LayerCount: 2
Fore
SplineSet
354.778320312 -250.377929688 m 1
 57.2783203125 387.122070312 l 1
 57.2783203125 106.471679688 l 1
 20.4716796875 85.2216796875 l 1
 -0.7783203125 122.028320312 l 1
 -0.7783203125 620.377929688 l 1
 296.721679688 -17.1220703125 l 1
 296.721679688 479.528320312 l 1
 333.528320312 500.778320312 l 1
 354.778320312 463.971679688 l 1
 354.778320312 -250.377929688 l 1
EndSplineSet
Validated: 524289
EndChar

StartChar: O
Encoding: 79 79 14
Width: 401
Flags: W
HStem: -84.9307 81.0557<121.843 230.718> 420.875 78.0557<114.31 232.479>
VStem: 0.0585938 55.0557<80.513 360.377> 294.859 58.0557<65.0387 339.764>
LayerCount: 2
Fore
SplineSet
352.915039062 180.390625 m 4
 352.915039062 72.5244140625 341.334960938 -5.8125 266.852539062 -48.8154296875 c 6
 230.045898438 -70.0654296875 l 6
 213.544921875 -79.5927734375 193.956054688 -84.9306640625 170.72265625 -84.9306640625 c 4
 118.836914062 -84.9306640625 84.8125 -59.4755859375 62.31640625 -20.51171875 c 6
 41.06640625 16.2939453125 l 6
 3.671875 81.0634765625 1.283203125 133.3125 0.2197265625 218.927734375 c 4
 0.1201171875 226.927734375 0.05859375 235.092773438 0.05859375 243.375 c 4
 0.05859375 351.807617188 7.6455078125 420.375976562 81.6220703125 463.086914062 c 6
 118.427734375 484.336914062 l 6
 134.63671875 493.694335938 153.887695312 498.930664062 176.736328125 498.930664062 c 4
 229.482421875 498.930664062 264.100585938 473 286.98828125 433.356445312 c 6
 308.23828125 396.55078125 l 6
 346.022460938 331.107421875 351.715820312 288.1171875 352.776367188 201.671875 c 4
 352.864257812 194.690429688 352.915039062 187.5859375 352.915039062 180.390625 c 4
160.180664062 420.875 m 4
 145.850585938 420.875 133.935546875 418.815429688 122.298828125 414.971679688 c 5
 63.9921875 363.299804688 55.1142578125 327.116210938 55.1142578125 227.818359375 c 4
 55.1142578125 219.537109375 55.17578125 211.372070312 55.2763671875 203.372070312 c 4
 56.2373046875 126.01171875 60.7294921875 115.069335938 89.1748046875 50.46875 c 5
 111.34765625 21.314453125 142.405273438 -3.875 186.278320312 -3.875 c 4
 201.002929688 -3.875 214.262695312 5.26953125 226.200195312 9.2646484375 c 5
 285.135742188 61.0751953125 294.859375 97.10546875 294.859375 195.947265625 c 4
 294.859375 203.142578125 294.807617188 210.24609375 294.719726562 217.228515625 c 4
 293.760742188 295.426757812 288.009765625 307.165039062 259.142578125 372.400390625 c 5
 236.572265625 402.228515625 204.918945312 420.875 160.180664062 420.875 c 4
EndSplineSet
Validated: 524289
EndChar

StartChar: P
Encoding: 80 80 15
Width: 404
Flags: W
HStem: -84.7783 21G<9.92485 56.1132> 440.722 58.0566<58.2783 296.278>
VStem: 0.22168 58.0566<-47.9717 202.65 321.979 440.722>
LayerCount: 2
Fore
SplineSet
58.2783203125 143.221679688 m 6
 58.2783203125 -63.5283203125 l 5
 21.4716796875 -84.7783203125 l 5
 0.2216796875 -47.9716796875 l 5
 0.2216796875 158.778320312 l 6
 0.2216796875 196.525390625 13.89453125 218.422851562 36.72265625 231.602539062 c 6
 73.529296875 252.852539062 l 6
 94.017578125 264.681640625 122.07421875 269.293945312 150.989257812 275.291992188 c 4
 177.353515625 280.760742188 205.262695312 291.549804688 231.145507812 302.6640625 c 5
 264.684570312 328.4765625 290.1015625 365.969726562 296.278320312 440.721679688 c 5
 58.2783203125 440.721679688 l 5
 58.2783203125 306.421875 l 5
 21.4716796875 285.171875 l 5
 0.2216796875 321.978515625 l 5
 0.2216796875 498.778320312 l 5
 355.778320312 498.778320312 l 5
 355.778320312 461.971679688 l 6
 355.778320312 349.846679688 319.354492188 297.970703125 271.998046875 270.629882812 c 6
 235.19140625 249.379882812 l 6
 204.237304688 231.5078125 168.612304688 224.118164062 135.43359375 217.235351562 c 4
 115.561523438 213.11328125 96.56640625 209.173828125 79.9794921875 203.272460938 c 5
 66.4072265625 190.081054688 58.2783203125 171.319335938 58.2783203125 143.221679688 c 6
EndSplineSet
Validated: 524289
EndChar

StartChar: Q
Encoding: 81 81 16
Width: 415
Flags: W
HStem: -95.1504 21G<406.583 432.996> 0.99707 58.0557<112.034 231.328> 440.797 58.0566<121.446 239.744>
VStem: 1.2207 58.0059<137.415 273.64 286.945 390.869> 298.754 58.0557<153.346 364.127>
LayerCount: 2
Fore
SplineSet
576 429 m 1049
267.693359375 130.489257812 m 1
 294.903320312 197.82421875 298.75390625 205.91796875 298.75390625 285.254882812 c 0
 298.75390625 360.227539062 293.504882812 331.395507812 266.186523438 393.37890625 c 1
 243.9921875 422.598632812 212.908203125 440.796875 169.520507812 440.796875 c 0
 154.591796875 440.796875 141.180664062 438.6328125 129.131835938 434.59765625 c 1
 65.5341796875 378.638671875 59.92578125 390.826171875 59.2763671875 286.296875 c 0
 59.2451171875 281.314453125 59.2265625 276.268554688 59.2265625 271.169921875 c 0
 59.2265625 196.721679688 63.19921875 164.166015625 89.580078125 103.182617188 c 1
 110.68359375 75.9140625 140.270507812 59.052734375 181.676757812 59.052734375 c 0
 197.419921875 59.052734375 211.5625 61.408203125 224.267578125 65.7861328125 c 0
 230.489257812 71.1572265625 236.196289062 77.205078125 241.431640625 83.8408203125 c 1
 173.204101562 156.546875 l 1
 151.954101562 193.353515625 l 1
 188.759765625 214.603515625 l 1
 267.693359375 130.489257812 l 1
356.809570312 269.69921875 m 0
 356.809570312 177.981445312 351.602539062 152.12109375 310.75 84.6064453125 c 1
 391.526367188 -0.796875 l 1
 444.150390625 -95.150390625 l 1
 375.970703125 -58.853515625 l 1
 277.021484375 45.9150390625 l 1
 273.157226562 42.9541015625 269.108398438 40.2392578125 264.864257812 37.7890625 c 2
 228.05859375 16.5390625 l 2
 210.813476562 6.5830078125 190.364257812 0.9970703125 166.120117188 0.9970703125 c 0
 116.678710938 0.9970703125 84.087890625 25.037109375 62.6708984375 62.1328125 c 2
 41.4208984375 98.9384765625 l 2
 6.09765625 160.120117188 1.1708984375 203.811523438 1.1708984375 286.7265625 c 0
 1.1708984375 291.82421875 1.189453125 268.870117188 1.220703125 273.853515625 c 0
 1.9248046875 387.2109375 8.4609375 416.48046875 88.46484375 462.670898438 c 2
 125.270507812 483.920898438 l 2
 141.850585938 493.493164062 161.584960938 498.853515625 185.076171875 498.853515625 c 0
 236.396484375 498.853515625 270.502929688 473.391601562 293.044921875 434.348632812 c 2
 314.294921875 397.54296875 l 2
 350.330078125 335.127929688 356.809570312 353.002929688 356.809570312 269.69921875 c 0
EndSplineSet
Validated: 524293
EndChar

StartChar: R
Encoding: 82 82 17
Width: 499
Flags: W
HStem: -112.15 21G<545.057 597.49> 430.85 68.3008<145.956 338.85>
VStem: 338.85 68.3008<269.575 430.85> 350 68.3008<-157.699 50.4971>
LayerCount: 2
Fore
SplineSet
0.0439453125 499.150390625 m 1xd0
 407.150390625 499.150390625 l 1xe0
 418.150390625 138.388671875 l 1
 581.150390625 -43.849609375 l 1
 606.150390625 -87.150390625 l 1
 562.849609375 -112.150390625 l 1
 418.150390625 50.4970703125 l 1
 418.30078125 -176 l 1
 375 -201 l 1
 350 -157.69921875 l 1
 349.849609375 123.611328125 l 1
 0.0439453125 499.150390625 l 1xd0
338.849609375 430.849609375 m 1
 145.956054688 430.849609375 l 1
 336.849609375 226.502929688 l 1
 338.849609375 430.849609375 l 1
EndSplineSet
Validated: 524289
EndChar

StartChar: S
Encoding: 83 83 18
Width: 473
Flags: W
HStem: -91.875 21G<4.72985 52.375> 247.107 55.3135<145.423 244.185> 497.875 20G<298.625 343.297>
LayerCount: 2
Fore
SplineSet
351.825195312 296.0703125 m 1
 52.375 -81.75 l 1
 11.25 -91.875 l 1
 0.125 -57.75 l 1
 80.5709666962 44.4583333333 169.532226562 147.1484375 244.184570312 247.107421875 c 1
 -1.19921875 254.658203125 l 1
 298.625 498.75 l 1
 331.75 517.875 l 1
 350.875 484.75 l 1
 145.422851562 302.420898438 l 1
 351.825195312 296.0703125 l 1
EndSplineSet
Validated: 524289
EndChar

StartChar: T
Encoding: 84 84 19
Width: 403
Flags: W
HStem: -104.703 21G<301.35 347.538> 440.646 58.0566<58.3535 291.646>
VStem: 0.296875 58.0566<423.354 440.646> 291.646 58.0566<-67.8965 440.646>
LayerCount: 2
Fore
SplineSet
291.646484375 440.646484375 m 1
 58.353515625 440.646484375 l 1
 58.353515625 407.796875 l 1
 21.546875 386.546875 l 1
 0.296875 423.353515625 l 1
 0.296875 498.703125 l 1
 349.703125 498.703125 l 1
 349.703125 -83.453125 l 1
 312.896484375 -104.703125 l 1
 291.646484375 -67.896484375 l 1
 291.646484375 440.646484375 l 1
EndSplineSet
Validated: 524289
EndChar

StartChar: U
Encoding: 85 85 20
Width: 415
Flags: W
HStem: -100.778 21G<262.785 351.081> 478.778 20G<296.036 342.224>
VStem: 1.07129 58.0566<219.127 304.722> 293.054 57.9961<-40.1143 461.972>
LayerCount: 2
Fore
SplineSet
59.1279296875 304.538085938 m 4
 59.1279296875 297.942382812 71.0771484375 212.540039062 141.450195312 74.4501953125 c 5
 179.202148438 16.7939453125 218.088867188 -29.158203125 293.053710938 -40.1142578125 c 5
 293.87109375 477.528320312 l 5
 330.676757812 498.778320312 l 5
 351.926757812 461.971679688 l 5
 351.049804688 -100.778320312 l 5
 314.271484375 -100.778320312 l 6
 211.297851562 -100.778320312 147.2734375 -42.91015625 103.6484375 32.650390625 c 6
 82.3984375 69.4560546875 l 6
 1.771484375 209.106445312 1.0712890625 313.19140625 1.0712890625 320.094726562 c 4
 1.0712890625 320.216796875 1.072265625 320.278320312 1.072265625 320.278320312 c 5
 37.8779296875 341.528320312 l 5
 59.1279296875 304.721679688 l 5
 59.1279296875 304.721679688 59.1279296875 304.66015625 59.1279296875 304.538085938 c 4
EndSplineSet
Validated: 524289
EndChar

StartChar: V
Encoding: 86 86 21
Width: 413
Flags: W
HStem: 480.049 20G<1.38678 46.9801 299.938 342.792>
VStem: 296.722 57.0566<-12.8516 463.242>
LayerCount: 2
Fore
SplineSet
353.778320312 -251.107421875 m 1
 -0.7783203125 478.798828125 l 1
 36.0283203125 500.048828125 l 1
 57.2783203125 461.2421875 l 1
 296.721679688 -12.8515625 l 1
 296.721679688 477.798828125 l 1
 328.528320312 500.048828125 l 1
 354.778320312 463.2421875 l 1
 353.778320312 -251.107421875 l 1
EndSplineSet
Validated: 1
EndChar

StartChar: W
Encoding: 87 87 22
Width: 411
Flags: W
HStem: -89.7783 21G<0.22168 84.7988 285.738 346.437> 478.778 20G<2.38678 48.5751 293.887 340.075>
VStem: 0.22168 58.0566<1.24316 461.972> 291.722 58.0566<40.7129 461.972>
LayerCount: 2
Fore
SplineSet
58.2783203125 1.2431640625 m 1
 150.162109375 279.127929688 l 1
 186.967773438 340.377929688 l 1
 291.721679688 40.712890625 l 1
 291.721679688 477.528320312 l 1
 328.528320312 498.778320312 l 1
 349.778320312 461.971679688 l 1
 349.778320312 -68.5283203125 l 1
 292.971679688 -89.7783203125 l 1
 179.671875 223.471679688 l 1
 78.2783203125 -87.5283203125 l 1
 0.2216796875 -71.9716796875 l 1
 0.2216796875 477.528320312 l 1
 37.0283203125 498.778320312 l 1
 58.2783203125 461.971679688 l 1
 58.2783203125 1.2431640625 l 1
EndSplineSet
Validated: 524289
EndChar

StartChar: X
Encoding: 88 88 23
Width: 363
Flags: W
HStem: -110.778 12G<7.92485 54.1132 374.425 420.613>
LayerCount: 2
Fore
SplineSet
64.2216796875 468.528320312 m 1
 101.028320312 489.778320312 l 1
 122.278320312 452.971679688 l 1
 172.370117188 370.203125 l 1
 295.721679688 655.528320312 l 1
 332.528320312 676.778320312 l 1
 353.778320312 639.971679688 l 1
 205.028320312 300.221679688 l 1
 422.778320312 -110.528320312 l 1
 385.971679688 -131.778320312 l 1
 364.721679688 -94.9716796875 l 1
 179.629882812 245.796875 l 1
 56.2783203125 -77.5283203125 l 1
 19.4716796875 -98.7783203125 l 1
 -1.7783203125 -61.9716796875 l 1
 146.971679688 315.778320312 l 1
 64.2216796875 468.528320312 l 1
EndSplineSet
Validated: 524289
EndChar

StartChar: Y
Encoding: 89 89 24
Width: 413
Flags: W
HStem: -100.778 21G<301.425 347.613> 121.707 59.249<206.112 291.722> 478.778 20G<2.38678 48.5751 293.887 340.075>
VStem: 0.22168 58.0566<339.73 461.972> 291.722 58.0566<-63.9717 123.543 180.956 461.972>
LayerCount: 2
Fore
SplineSet
349.778320312 -79.5283203125 m 5
 312.971679688 -100.778320312 l 5
 291.721679688 -63.9716796875 l 5
 291.721679688 121.70703125 l 5
 199.234375 126.842773438 116.068359375 166.138671875 65.109375 254.401367188 c 6
 43.859375 291.20703125 l 6
 16.556640625 338.498046875 0.2216796875 399.845703125 0.2216796875 477.528320312 c 5
 37.0283203125 498.778320312 l 5
 58.2783203125 461.971679688 l 5
 58.2783203125 394.29296875 70.6767578125 339.012695312 91.9248046875 294.625 c 5
 140.977539062 223.435546875 211.333984375 188.838867188 291.721679688 180.956054688 c 5
 291.721679688 477.528320312 l 5
 328.528320312 498.778320312 l 5
 349.778320312 461.971679688 l 5
 349.778320312 142.372070312 l 5
 349.778320312 -79.5283203125 l 5
EndSplineSet
Validated: 524289
EndChar

StartChar: Z
Encoding: 90 90 25
Width: 434
Flags: W
HStem: -96.7783 58.0566<92.4541 335.972> 440.722 58.0566<54.0283 297.546>
LayerCount: 2
Fore
SplineSet
0.0458984375 -96.7783203125 m 1
 297.545898438 440.721679688 l 1
 38.4716796875 440.721679688 l 1
 17.2216796875 477.528320312 l 1
 54.0283203125 498.778320312 l 1
 389.954101562 498.778320312 l 1
 92.4541015625 -38.7216796875 l 1
 351.528320312 -38.7216796875 l 1
 372.778320312 -75.5283203125 l 1
 335.971679688 -96.7783203125 l 1
 0.0458984375 -96.7783203125 l 1
EndSplineSet
Validated: 524289
EndChar

StartChar: a
Encoding: 97 97 26
Width: 409
Flags: W
HStem: 80 21G<0 18.625 307.333 349.476> 441 58<58 263>
VStem: 0 58<221 441> 298 53<157 400>
LayerCount: 2
Fore
SplineSet
0 80 m 5
 0 499 l 5
 118.666992188 499 232.333007812 499 351 499 c 5
 351 380 351 261 351 142 c 5
 319 121 l 5
 298 157 l 5
 298 400 l 5
 0 80 l 5
58 221 m 5
 263 441 l 5
 58 441 l 5
 58 221 l 5
EndSplineSet
Validated: 1
EndChar

StartChar: z
Encoding: 122 122 27
Width: 483
Flags: W
HStem: 122 58<127 353> 441 58<71 298>
LayerCount: 2
Fore
SplineSet
1 122 m 1
 298 441 l 1
 56 441 l 1
 34 478 l 1
 71 499 l 1
 424 499 l 1
 127 180 l 1
 369 180 l 1
 390 143 l 1
 353 122 l 1
 1 122 l 1
EndSplineSet
Validated: 1
EndChar

StartChar: e
Encoding: 101 101 28
Width: 423
Flags: W
HStem: 124 58<93 319> 441 58<58 263>
VStem: 0 58<221 441>
LayerCount: 2
Fore
SplineSet
58 441 m 5
 58 221 l 5
 263 441 l 5
 58 441 l 5
93 182 m 5
 335 182 l 5
 356 145 l 5
 319 124 l 5
 21 124 l 5
 0 161 l 5
 0 478 l 5
 37 499 l 5
 335 499 l 5
 356 462 l 5
 93 182 l 5
EndSplineSet
Validated: 1
EndChar

StartChar: r
Encoding: 114 114 29
Width: 262
Flags: W
HStem: 121.097 21G<10.1749 56.3632>
VStem: 0.47168 58.0566<157.903 345.497 404.918 461.097>
LayerCount: 2
Fore
SplineSet
0.4716796875 476.653320312 m 1
 37.2783203125 497.903320312 l 1
 58.5283203125 461.096679688 l 1
 58.5283203125 404.91796875 l 1
 153.471679688 476.653320312 l 1
 190.278320312 497.903320312 l 1
 211.528320312 461.096679688 l 1
 58.5283203125 345.497070312 l 1
 58.5283203125 142.346679688 l 1
 21.7216796875 121.096679688 l 1
 0.4716796875 157.903320312 l 1
 0.4716796875 361.052734375 l 1
 0.4716796875 476.653320312 l 1
EndSplineSet
Validated: 1
EndChar

StartChar: g
Encoding: 103 103 30
Width: 416
Flags: W
HStem: -196.778 21G<7.92485 19.4717> 440.722 58.0566<88.9258 295.722>
VStem: 295.722 58.0566<27.4504 143.365 217.974 440.722>
LayerCount: 2
Fore
SplineSet
295.721679688 440.721679688 m 1
 88.92578125 440.721679688 l 1
 295.721679688 217.973632812 l 1
 295.721679688 440.721679688 l 1
353.778320312 141.521484375 m 2
 353.778320312 -10.650390625 285.245117188 -89.78515625 213.96484375 -130.938476562 c 2
 177.159179688 -152.188476562 l 2
 99.927734375 -196.778320312 19.4716796875 -196.778320312 19.4716796875 -196.778320312 c 1
 -1.7783203125 -159.971679688 l 1
 35.0283203125 -138.721679688 l 1
 35.0283203125 -138.721679688 102.872070312 -138.721679688 173.763671875 -104.194335938 c 1
 236.068359375 -61.8837890625 291.88671875 12.5205078125 295.533203125 143.365234375 c 1
 19.4716796875 440.721679688 l 1
 35.0283203125 498.778320312 l 1
 332.528320312 498.778320312 l 1
 353.778320312 461.971679688 l 1
 353.778320312 141.521484375 l 2
EndSplineSet
Validated: 1
EndChar

StartChar: m
Encoding: 109 109 31
Width: 409
Flags: W
HStem: 120.396 21G<8.92485 55.1132 306.425 352.613> 481.354 19.25G<1.38678 54.3986 280.753 354.778>
VStem: -0.77832 58.0566<160.604 402.476> 296.722 58.0566<157.203 416.594>
LayerCount: 2
Fore
SplineSet
175.169921875 349.118164062 m 1
 296.721679688 501.353515625 l 1
 354.778320312 485.796875 l 1
 354.778320312 141.646484375 l 1
 317.971679688 120.396484375 l 1
 296.721679688 157.203125 l 1
 296.721679688 416.59375 l 1
 204.837890625 303.146484375 l 1
 168.032226562 281.896484375 l 1
 57.2783203125 402.475585938 l 1
 57.2783203125 145.046875 l 1
 20.4716796875 123.796875 l 1
 -0.7783203125 160.603515625 l 1
 -0.7783203125 479.353515625 l 1
 36.0283203125 500.603515625 l 1
 175.169921875 349.118164062 l 1
EndSplineSet
Validated: 1
EndChar

StartChar: y
Encoding: 121 121 32
Width: 405
Flags: W
HStem: -195.778 21G<8.92485 91.0506> 479.778 20G<1.38678 54.7448 298.887 345.075>
VStem: 296.722 58.0566<29.4565 146.733 221.208 462.972>
LayerCount: 2
Fore
SplineSet
20.4716796875 441.721679688 m 5
 -0.7783203125 478.528320312 l 5
 36.0283203125 499.778320312 l 5
 296.721679688 221.208007812 l 5
 296.721679688 478.528320312 l 5
 333.528320312 499.778320312 l 5
 354.778320312 462.971679688 l 5
 354.778320312 145.072265625 l 6
 354.778320312 -8.962890625 285.672851562 -88.7587890625 214.07421875 -130.096679688 c 6
 177.268554688 -151.346679688 l 6
 100.310546875 -195.778320312 20.4716796875 -195.778320312 20.4716796875 -195.778320312 c 5
 -0.7783203125 -158.971679688 l 5
 36.0283203125 -137.721679688 l 6
 36.0283203125 -137.721679688 103.307617188 -137.721679688 173.876953125 -103.349609375 c 5
 236.526367188 -60.8125 292.849609375 14.255859375 296.53125 146.733398438 c 5
 20.4716796875 441.721679688 l 5
EndSplineSet
Validated: 1
EndChar

StartChar: b
Encoding: 98 98 33
Width: 454
Flags: W
HStem: 81.0557 21G<0.25293 18.9196> 440.759 58.0557<58.3096 263.4> 688.765 20G<2.41803 48.6064>
VStem: 0.25293 58.0566<221.018 440.759 498.814 671.958>
LayerCount: 2
Fore
SplineSet
390.161132812 498.814453125 m 1
 0.2529296875 81.0556640625 l 1
 0.2529296875 687.514648438 l 1
 37.0595703125 708.764648438 l 1
 58.3095703125 671.958007812 l 1
 58.3095703125 498.814453125 l 1
 390.161132812 498.814453125 l 1
58.3095703125 221.017578125 m 1
 263.400390625 440.758789062 l 1
 58.3095703125 440.758789062 l 1
 58.3095703125 221.017578125 l 1
EndSplineSet
Validated: 1
EndChar

StartChar: c
Encoding: 99 99 34
Width: 417
Flags: W
HStem: 125.097 58.0566<92.0801 315.521> 481.903 20G<294.337 340.525>
LayerCount: 2
Fore
SplineSet
350 -14 m 1048
292.171875 480.653320312 m 5
 328.978515625 501.903320312 l 5
 350.228515625 465.096679688 l 5
 92.080078125 183.153320312 l 5
 331.078125 183.153320312 l 5
 352.328125 146.346679688 l 5
 315.521484375 125.096679688 l 5
 20.921875 125.096679688 l 5
 -0.328125 161.903320312 l 5
 292.171875 480.653320312 l 5
EndSplineSet
Validated: 524289
EndChar

StartChar: d
Encoding: 100 100 35
Width: 458
Flags: W
HStem: 125 58<126 332> 693 20G<332.762 379.351>
VStem: 332 58<182 412 499 676>
LayerCount: 2
Fore
SplineSet
126 183 m 5
 332 182 l 5
 332 412 l 5
 126 183 l 5
390 124 m 5
 0 125 l 5
 332 499 l 5
 331 692 l 5
 368 713 l 5
 389 676 l 5
 390 484 l 5
 390 124 l 5
EndSplineSet
Validated: 1
EndChar

StartChar: f
Encoding: 102 102 36
Width: 265
Flags: W
HStem: 124.072 21G<8.94798 55.1367> 360.097 58.0566<92.0801 165.521>
VStem: -0.754883 58.0566<160.878 360.097>
LayerCount: 2
Fore
SplineSet
0.83203125 395.677734375 m 1
 37.6376953125 416.927734375 l 1
 58.8876953125 380.122070312 l 1
 57.3017578125 145.322265625 l 1
 20.4951171875 124.072265625 l 1
 -0.7548828125 160.877929688 l 1
 0.83203125 395.677734375 l 1
152.171875 605.653320312 m 1
 188.978515625 626.903320312 l 1
 210.228515625 590.096679688 l 1
 92.080078125 418.153320312 l 1
 181.078125 418.153320312 l 1
 202.328125 381.346679688 l 1
 165.521484375 360.096679688 l 1
 20.921875 360.096679688 l 1
 -0.328125 396.903320312 l 1
 152.171875 605.653320312 l 1
EndSplineSet
Validated: 524293
EndChar

StartChar: h
Encoding: 104 104 37
Width: 432
Flags: W
HStem: 122.622 21G<9.29954 55.4882 304.442 346.663> 689.378 20G<1.76178 47.9505>
VStem: -0.40332 58.0566<159.428 414.492 498.98 672.572>
LayerCount: 2
Fore
SplineSet
57.6533203125 414.4921875 m 1
 57.6533203125 143.872070312 l 1
 20.8466796875 122.622070312 l 1
 -0.4033203125 159.427734375 l 1
 -0.4033203125 500.177734375 l 1
 -0.4033203125 688.127929688 l 1
 36.4033203125 709.377929688 l 1
 57.6533203125 672.572265625 l 1
 57.6533203125 498.98046875 l 1
 338.153320312 180.677734375 l 1
 361.403320312 154.872070312 l 1
 322.596679688 122.622070312 l 1
 57.6533203125 414.4921875 l 1
EndSplineSet
Validated: 1
EndChar

StartChar: i
Encoding: 105 105 38
Width: 124
Flags: W
HStem: 123.097 21G<9.67485 55.8632> 479.903 20G<2.13678 48.3251>
VStem: -0.0283203 58.0566<159.903 463.097>
LayerCount: 2
Fore
SplineSet
58.0283203125 144.346679688 m 5
 21.2216796875 123.096679688 l 5
 -0.0283203125 159.903320312 l 5
 -0.0283203125 478.653320312 l 5
 36.7783203125 499.903320312 l 5
 58.0283203125 463.096679688 l 5
 58.0283203125 144.346679688 l 5
EndSplineSet
Validated: 1
EndChar

StartChar: j
Encoding: 106 106 39
Width: 266
Flags: W
HStem: -41 21G<12.5 43> 480 20G<145.714 191.892>
VStem: 147 58<97.3824 463>
LayerCount: 2
Fore
SplineSet
206 141 m 6
 206 75 121 26 76 -7 c 6
 43 -32 l 6
 27 -44 25 -41 25 -41 c 5
 0 -1 l 5
 36 19 l 6
 80 47 148 99 148 156 c 6
 147 268 l 1
 144 479 l 1
 180 500 l 1
 202 463 l 1
 205 253 l 1
 206 141 l 6
EndSplineSet
Validated: 1
EndChar

StartChar: k
Encoding: 107 107 40
Width: 420
Flags: W
HStem: 82.2803 21G<0.22168 18.8884 300.08 353.613> 480.039 20G<299.887 346.075> 692.539 20G<2.38678 48.5755>
VStem: 0.22168 58.0566<222.242 675.733>
LayerCount: 2
Fore
SplineSet
0.2216796875 82.2802734375 m 1
 0.2216796875 691.2890625 l 1
 37.0283203125 712.5390625 l 1
 58.2783203125 675.733398438 l 1
 58.2783203125 222.2421875 l 1
 147.782226562 318.139648438 l 1
 176.079101562 348.458007812 l 1
 297.721679688 478.7890625 l 1
 334.528320312 500.0390625 l 1
 355.778320312 463.233398438 l 1
 212.462890625 309.681640625 l 1
 334.528320312 180.58984375 l 1
 355.778320312 143.783203125 l 1
 318.971679688 122.533203125 l 1
 177.541015625 272.264648438 l 1
 0.2216796875 82.2802734375 l 1
EndSplineSet
Validated: 1
EndChar

StartChar: l
Encoding: 108 108 41
Width: 202
Flags: W
HStem: -70.0283 21G<-0.0078125 78.1572> 30.8779 20G<86.7169 132.906> 694.028 20G<2.15723 48.3447>
VStem: -0.0078125 58.0557<7.73145 677.222>
LayerCount: 2
Fore
SplineSet
58.0478515625 7.7314453125 m 1
 84.5517578125 29.6279296875 l 1
 121.358398438 50.8779296875 l 1
 142.608398438 14.072265625 l 1
 58.0478515625 -70.0283203125 l 1
 -0.0078125 -54.4716796875 l 1
 -0.0078125 692.778320312 l 1
 36.7978515625 714.028320312 l 1
 58.0478515625 677.221679688 l 1
 58.0478515625 7.7314453125 l 1
EndSplineSet
Validated: 1
EndChar

StartChar: n
Encoding: 110 110 42
Width: 409
Flags: W
HStem: 124.467 20.1494G<9.92454 56.1132 307.425 353.613> 479.312 20.9609G<2.38678 48.5755 263.601 356.567>
VStem: 0.22168 58.0566<161.272 380.395 434.762 463.467> 297.722 58.0566<160.423 431.178>
LayerCount: 2
Fore
SplineSet
58.2783203125 434.76171875 m 5
 355.778320312 499.311523438 l 5
 357.356445312 378.830078125 337.608398438 265.34765625 355.778320312 144.866210938 c 5
 318.971679688 123.616210938 l 5
 297.721679688 160.422851562 l 5
 297.721679688 431.177734375 l 5
 58.2783203125 380.39453125 l 5
 58.2783203125 145.716796875 l 5
 21.4716796875 124.466796875 l 5
 0.2216796875 161.272460938 l 5
 0.2216796875 408.47265625 l 5
 0.2216796875 420.994140625 l 5
 0.2216796875 479.022460938 l 5
 37.0283203125 500.272460938 l 5
 58.2783203125 463.466796875 l 5
 58.2783203125 434.76171875 l 5
EndSplineSet
Validated: 33
EndChar

StartChar: o
Encoding: 111 111 43
Width: 419
Flags: W
HStem: 122.09 58.0557<113.987 244.399> 440.854 58.0557<116.899 247.051>
VStem: 0.22168 58.0566<239.103 382.999> 297.722 58.0566<232.319 384.711>
LayerCount: 2
Fore
SplineSet
355.778320312 299.747070312 m 4
 355.778320312 241.77734375 325.9453125 187.58984375 279.57421875 160.817382812 c 6
 242.768554688 139.567382812 l 6
 223.556640625 128.475585938 201.506835938 122.08984375 177.5625 122.08984375 c 4
 119.30859375 122.08984375 69.8251953125 153.829101562 42.9638671875 200.35546875 c 6
 21.7138671875 237.161132812 l 6
 8.0244140625 260.87109375 0.2216796875 288.484375 0.2216796875 317.853515625 c 4
 0.2216796875 377.061523438 31.9345703125 430.32421875 79.66015625 457.877929688 c 6
 116.465820312 479.127929688 l 6
 138.227539062 491.69140625 163.317382812 498.91015625 190.248046875 498.91015625 c 4
 243.463867188 498.91015625 286.083007812 468.766601562 310.9375 425.717773438 c 6
 332.1875 388.911132812 l 6
 347.30859375 362.721679688 355.778320312 331.725585938 355.778320312 299.747070312 c 4
174.692382812 440.854492188 m 4
 155.321289062 440.854492188 136.90234375 437.119140625 119.989257812 430.346679688 c 5
 82.298828125 400.852539062 58.2783203125 353.826171875 58.2783203125 302.296875 c 4
 58.2783203125 280.517578125 62.5693359375 259.703125 70.3701171875 240.729492188 c 5
 98.68359375 204.053710938 142.52734375 180.145507812 193.119140625 180.145507812 c 4
 209.470703125 180.145507812 224.939453125 183.124023438 239.223632812 188.545898438 c 5
 275.34375 217.724609375 297.721679688 265.095703125 297.721679688 315.302734375 c 4
 297.721679688 339.759765625 292.767578125 363.642578125 283.673828125 385.239257812 c 5
 258.094726562 418.696289062 220.380859375 440.854492188 174.692382812 440.854492188 c 4
EndSplineSet
Validated: 1
EndChar

StartChar: p
Encoding: 112 112 44
Width: 421
Flags: W
HStem: -197.778 21G<9.67485 55.8632> 124.09 58.0557<113.923 244.399> 442.854 58.0557<116.899 247.051>
VStem: -0.0283203 58.0566<-160.972 180.63 243.62 384.659 444.744 461.972> 297.722 58.0566<234.319 386.711>
LayerCount: 2
Fore
SplineSet
58.0283203125 -176.528320312 m 5
 21.2216796875 -197.778320312 l 5
 -0.0283203125 -160.971679688 l 5
 -0.0283203125 477.528320312 l 5
 36.7783203125 498.778320312 l 5
 58.0283203125 461.971679688 l 5
 58.0283203125 444.743904883 l 5
 64.7853089586 450.393767443 72.017412986 455.465496932 79.66015625 459.877929688 c 6
 116.465820312 481.127929688 l 6
 138.227539062 493.69140625 163.317382812 500.91015625 190.248046875 500.91015625 c 4
 243.463867188 500.91015625 286.083007812 470.766601562 310.9375 427.717773438 c 6
 332.1875 390.911132812 l 6
 347.30859375 364.721679688 355.778320312 333.725585938 355.778320312 301.747070312 c 4
 355.778320312 243.77734375 325.9453125 189.58984375 279.57421875 162.817382812 c 6
 242.768554688 141.567382812 l 6
 223.556640625 130.475585938 201.506835938 124.08984375 177.5625 124.08984375 c 4
 128.910569982 124.08984375 86.3761512803 146.228273245 58.0283203125 180.629843351 c 5
 58.0283203125 -176.528320312 l 5
174.692382812 442.854492188 m 4
 155.321289062 442.854492188 136.90234375 439.119140625 119.989257812 432.346679688 c 5
 82.298828125 402.852539062 58.2783203125 355.826171875 58.2783203125 304.296875 c 4
 58.2783203125 282.517578125 62.5693359375 261.703125 70.3701171875 242.729492188 c 5
 98.68359375 206.053710938 142.52734375 182.145507812 193.119140625 182.145507812 c 4
 209.470703125 182.145507812 224.939453125 185.124023438 239.223632812 190.545898438 c 5
 275.34375 219.724609375 297.721679688 267.095703125 297.721679688 317.302734375 c 4
 297.721679688 341.759765625 292.767578125 365.642578125 283.673828125 387.239257812 c 5
 258.094726562 420.696289062 220.380859375 442.854492188 174.692382812 442.854492188 c 4
EndSplineSet
Validated: 1
EndChar

StartChar: q
Encoding: 113 113 45
Width: 416
Flags: W
HStem: -199 21G<299.619 343.351> 124 58<111.86 241.722> 443 58<108.755 238.835>
VStem: -0 58<234.543 386.662> 298 55<-162 181 243.892 384.69 445 463>
LayerCount: 2
Fore
SplineSet
298 -178 m 1
 298 181 l 1
 269 146 227 124 178 124 c 0
 154 124 132 130 113 142 c 2
 76 163 l 2
 30 190 -0 244 -0 302 c 0
 -0 334 8 365 24 391 c 2
 45 428 l 2
 70 471 112 501 166 501 c 0
 192 501 218 494 239 481 c 2
 276 460 l 2
 284 455 291 450 298 445 c 1
 298 463 l 1
 316 500 l 1
 353 479 l 1
 353 -162 l 1
 332 -199 l 1
 298 -178 l 1
181 443 m 0
 135 443 98 421 72 387 c 1
 63 366 58 342 58 317 c 0
 58 267 80 220 117 191 c 1
 131 185 146 182 163 182 c 0
 213 182 257 206 285 243 c 1
 293 262 297 283 297 304 c 0
 297 356 273 403 236 432 c 1
 219 439 200 443 181 443 c 0
EndSplineSet
Validated: 1
EndChar

StartChar: s
Encoding: 115 115 46
Width: 422
Flags: W
HStem: 122.844 58.0566<37.0283 297.722> 283.955 57.9346<58.2783 297.722> 441.594 58.0566<58.2783 318.972>
VStem: 0.22168 58.0566<341.89 441.594> 297.722 53.0566<178.666 283.104>
LayerCount: 2
Fore
SplineSet
350.778320312 341.0390625 m 1
 350.778320312 123.978515625 l 1
 21.4716796875 122.84375 l 1
 0.2216796875 159.650390625 l 1
 37.0283203125 180.900390625 l 1
 297.721679688 178.666015625 l 1
 297.721679688 283.104492188 l 1
 0.2216796875 283.955078125 l 1
 0.2216796875 499.650390625 l 1
 328.75 499.806640625 l 1
 337.581054688 486.950195312 348.646484375 473.341796875 350 463 c 1
 318.971679688 441.59375 l 1
 58.2783203125 441.59375 l 1
 58.2783203125 341.889648438 l 1
 350.778320312 341.0390625 l 1
EndSplineSet
Validated: 524289
EndChar

StartChar: t
Encoding: 116 116 47
Width: 298
Flags: W
HStem: 121.547 21G<96.1621 176.985> 440.646 58.0566<36.7686 96.1621>
VStem: 96.1621 58.0557<198.308 440.646 498.703 559.646>
LayerCount: 2
Fore
SplineSet
97.8623046875 575.203125 m 1
 134.66796875 596.453125 l 1
 155.91796875 559.646484375 l 1
 154.217773438 461.896484375 l 1
 154.217773438 198.307617188 l 1
 194.515625 223.502929688 l 1
 231.322265625 244.752929688 l 1
 252.572265625 207.947265625 l 1
 154.217773438 121.546875 l 1
 96.162109375 137.103515625 l 1
 96.162109375 440.646484375 l 1
 21.2119140625 440.646484375 l 1
 -0.0380859375 477.453125 l 1
 36.7685546875 498.703125 l 1
 96.53125 498.703125 l 1
 97.8623046875 575.203125 l 1
EndSplineSet
Validated: 524289
EndChar

StartChar: u
Encoding: 117 117 48
Width: 416
Flags: W
HStem: 123.631 20.1611G<0.22168 67.9366 308.685 351.613> 480.298 20G<2.38678 48.5751 303.534 344.075>
VStem: 0.22168 58.0566<188.408 463.491> 301.722 52.0566<159.598 212.681 265.715 463.491>
LayerCount: 2
Fore
SplineSet
353.778320312 144.041992188 m 5
 316.971679688 122.791992188 l 5
 301.721679688 159.59765625 l 5
 301.721679688 212.680664062 l 5
 0.2216796875 123.630859375 l 5
 0.2216796875 479.047851562 l 5
 37.0283203125 500.297851562 l 5
 58.2783203125 463.491210938 l 5
 58.2783203125 188.408203125 l 5
 301.721679688 265.71484375 l 5
 301.721679688 479.047851562 l 5
 332.528320312 500.297851562 l 5
 353.778320312 463.491210938 l 5
 353.778320312 240.791992188 l 5
 353.778320312 231.424804688 l 5
 353.778320312 144.041992188 l 5
EndSplineSet
Validated: 524289
EndChar

StartChar: v
Encoding: 118 118 49
Width: 417
Flags: W
HStem: 83.1426 21G<337.161 355.778> 480.339 20G<2.38678 56.0738 305.534 346.075>
VStem: 303.722 52.0566<220.279 463.533>
LayerCount: 2
Fore
SplineSet
355.778320312 83.142578125 m 1
 21.4716796875 442.283203125 l 1
 0.2216796875 479.088867188 l 1
 37.0283203125 500.338867188 l 1
 303.721679688 220.279296875 l 1
 303.721679688 479.088867188 l 1
 334.528320312 500.338867188 l 1
 355.778320312 463.533203125 l 1
 355.778320312 83.142578125 l 1
EndSplineSet
Validated: 1
EndChar

StartChar: w
Encoding: 119 119 50
Width: 423
Flags: W
HStem: 123.197 20.0498G<0.22168 74.5155 299.618 353.613>
VStem: 0.22168 58.0566<208.956 460.947> 297.722 58.0566<216.115 460.947>
LayerCount: 2
Fore
SplineSet
58.2783203125 208.956054688 m 1
 146.98828125 315.002929688 l 1
 183.794921875 336.252929688 l 1
 297.721679688 216.115234375 l 1
 297.721679688 476.502929688 l 1
 334.528320312 497.752929688 l 1
 355.778320312 460.947265625 l 1
 355.778320312 143.497070312 l 1
 318.971679688 122.247070312 l 1
 176.79296875 269.176757812 l 1
 58.2783203125 123.197265625 l 1
 0.2216796875 138.752929688 l 1
 0.2216796875 476.502929688 l 1
 37.0283203125 497.752929688 l 1
 58.2783203125 460.947265625 l 1
 58.2783203125 208.956054688 l 1
EndSplineSet
Validated: 1
EndChar

StartChar: x
Encoding: 120 120 51
Width: 440
Flags: W
HStem: 122.722 21G<10.7452 56.9326 401.039 454.393> 479.528 20G<300.707 346.894>
LayerCount: 2
Fore
SplineSet
59.09765625 143.971679688 m 1
 22.2919921875 122.721679688 l 1
 1.0419921875 159.528320312 l 1
 143.296875 311.944335938 l 1
 97.658203125 360.721679688 l 1
 76.408203125 397.528320312 l 1
 113.21484375 418.778320312 l 1
 178.19140625 349.331054688 l 1
 298.541992188 478.278320312 l 1
 335.34765625 499.528320312 l 1
 356.59765625 462.721679688 l 1
 214.524414062 310.5 l 1
 435.307617188 74.5283203125 l 1
 456.557617188 37.7216796875 l 1
 419.751953125 16.4716796875 l 1
 179.62890625 273.112304688 l 1
 59.09765625 143.971679688 l 1
EndSplineSet
Validated: 1
EndChar

StartChar: exclam
Encoding: 33 33 52
Width: 167
Flags: W
HStem: 123.818 75.3633<5.34375 66.6371>
VStem: 0.444336 71.1113<127.901 194.337>
LayerCount: 2
Fore
SplineSet
36.0869140625 659.078125 m 5
 134.146484375 659.078125 l 5
 58.6865234375 238.921875 l 5
 22.6298828125 254.478515625 l 5
 36.0869140625 659.078125 l 5
71.5556640625 159.349609375 m 4
 71.5556640625 147.755859375 65.5888671875 136.91796875 56.314453125 131.563476562 c 6
 48.9541015625 127.313476562 l 6
 45.111328125 125.094726562 40.701171875 123.818359375 35.912109375 123.818359375 c 4
 24.26171875 123.818359375 14.365234375 130.166015625 8.9931640625 139.470703125 c 6
 4.7431640625 146.83203125 l 6
 2.0048828125 151.57421875 0.4443359375 157.096679688 0.4443359375 162.970703125 c 4
 0.4443359375 174.8125 6.787109375 185.46484375 16.33203125 190.975585938 c 6
 23.693359375 195.225585938 l 6
 28.0458984375 197.73828125 33.0634765625 199.181640625 38.44921875 199.181640625 c 4
 49.0927734375 199.181640625 57.6162109375 193.153320312 62.587890625 184.543945312 c 6
 66.837890625 177.182617188 l 6
 69.861328125 171.944335938 71.5556640625 165.745117188 71.5556640625 159.349609375 c 4
EndSplineSet
Validated: 1
EndChar

StartChar: quotedbl
Encoding: 34 34 53
Width: 274
Flags: W
HStem: 439.647 139.353
VStem: 0.447266 81.9746<507.067 564.237> 119.537 81.9746<507.071 564.241>
LayerCount: 2
Fore
SplineSet
169 579 m 5
 198.515625 564.241210938 l 5
 201.51171875 514.33203125 l 5
 129.510742188 439.647460938 l 5
 119.537109375 465.094726562 l 5
 119.08984375 576.00390625 l 5
 169 579 l 5
49.91015625 578.99609375 m 5
 79.42578125 564.237304688 l 5
 82.421875 514.328125 l 5
 10.4208984375 439.643554688 l 5
 0.447265625 465.090820312 l 5
 0 576 l 5
 49.91015625 578.99609375 l 5
EndSplineSet
Validated: 1
EndChar

StartChar: zero
Encoding: 48 48 55
Width: 408
Flags: W
HStem: -94.6201 63.8604<129.813 255.562> 535.694 63.8623<130.074 254.396>
VStem: 0.382812 63.8623<67.0228 406.384> 327.831 63.8613<100.927 411.746>
LayerCount: 2
Fore
SplineSet
179.966796875 535.694335938 m 0
 164.08984375 535.694335938 149.813476562 533.430664062 136.978515625 529.203125 c 1
 122.331054688 516.17578125 110.595703125 499.41796875 101.204101562 480.006835938 c 1
 311.963867188 98.3798828125 l 1
 324.588867188 153.676757812 327.831054688 146.760742188 327.831054688 204.614257812 c 0
 327.831054688 211.680664062 327.782226562 218.668945312 327.696289062 225.556640625 c 0
 326.6484375 310.453125 320.606445312 410.330078125 288.829101562 481.725585938 c 1
 263.834960938 514.935546875 228.869140625 535.694335938 179.966796875 535.694335938 c 0
197.078125 599.556640625 m 0
 254.666992188 599.556640625 292.927734375 570.768554688 318.336914062 526.758789062 c 2
 341.711914062 486.272460938 l 2
 383.133789062 414.526367188 390.399414062 302.326171875 391.55859375 208.444335938 c 0
 391.643554688 201.55859375 391.692382812 194.569335938 391.692382812 187.502929688 c 0
 391.692382812 103.39453125 384.83984375 78.232421875 352.265625 12.017578125 c 1
 391.55859375 -72.181640625 l 1
 351.071289062 -95.556640625 l 1
 327.696289062 -55.0693359375 l 1
 318.66015625 -35.705078125 l 1
 311.208984375 -42.9443359375 303.025390625 -49.2314453125 294.036132812 -54.4208984375 c 2
 253.548828125 -77.7958984375 l 2
 234.877929688 -88.576171875 212.73828125 -94.6201171875 186.51171875 -94.6201171875 c 0
 131.158203125 -94.6201171875 94.7685546875 -67.693359375 70.787109375 -26.15625 c 2
 47.412109375 14.330078125 l 2
 6.17578125 85.7548828125 1.62890625 130.374023438 0.4462890625 225.556640625 c 0
 0.408203125 231.797851562 0.3828125 238.129882812 0.3828125 244.532226562 c 0
 0.3828125 330.7421875 4.80078125 429.859375 37.3427734375 497.1171875 c 1
 0.4462890625 576.181640625 l 1
 40.93359375 599.556640625 l 1
 51.0439453125 581.252929688 62.5224609375 564.31640625 71.1103515625 544.4921875 c 1
 77.546875 550.473632812 84.5595703125 555.719726562 92.2021484375 560.1328125 c 2
 132.689453125 583.5078125 l 2
 150.513671875 593.798828125 171.760742188 599.556640625 197.078125 599.556640625 c 0
64.2451171875 227.419921875 m 0
 64.2451171875 221.017578125 64.26953125 214.686523438 64.30859375 208.444335938 c 0
 65.376953125 122.418945312 69.193359375 90.517578125 100.360351562 18.978515625 c 1
 123.983398438 -11.7431640625 157.107421875 -30.759765625 203.623046875 -30.759765625 c 0
 220.5078125 -30.759765625 235.698242188 -28.25390625 249.360351562 -23.591796875 c 1
 265.322265625 -9.7275390625 278.140625 8.263671875 288.405273438 29.1279296875 c 1
 78.2919921875 409.368164062 l 1
 66.3427734375 352.354492188 64.2451171875 286.823242188 64.2451171875 227.419921875 c 0
EndSplineSet
Validated: 524289
EndChar

StartChar: one
Encoding: 49 49 56
Width: 266
Flags: W
HStem: -93.1641 58.0557<35.7979 147.742>
VStem: 147.742 58.0557<-35.1084 500.383>
LayerCount: 2
Fore
SplineSet
147.7421875 -35.1083984375 m 1
 147.7421875 500.3828125 l 1
 55.8583984375 401.935546875 l 1
 19.0517578125 380.685546875 l 1
 -2.1982421875 417.491210938 l 1
 205.797851562 640.344726562 l 1
 205.797851562 -93.1640625 l 1
 20.2421875 -93.1640625 l 1
 -1.0078125 -56.3583984375 l 1
 35.7978515625 -35.1083984375 l 1
 147.7421875 -35.1083984375 l 1
EndSplineSet
Validated: 524289
EndChar

StartChar: two
Encoding: 50 50 57
Width: 422
Flags: W
HStem: -91.0088 58.0557<59.7461 318.979>
VStem: 307.104 48.7686<412.358 543.24>
LayerCount: 2
Fore
SplineSet
0.2294921875 -91.0087890625 m 1
 0.2294921875 -54.203125 l 2
 0.2294921875 93.3271484375 65.234375 105.99609375 134.481445312 166.361328125 c 0
 209.168945312 231.470703125 298.791015625 350.881835938 307.103515625 543.240234375 c 1
 28.4794921875 377.69140625 l 1
 0.2294921875 421.497070312 l 1
 37.0361328125 443.747070312 l 1
 355.147460938 625.262695312 l 1
 355.416992188 606.036132812 355.872070312 539.884765625 355.872070312 520.536132812 c 0
 355.872070312 302.193359375 271.450195312 219.598632812 192.537109375 150.805664062 c 0
 129.368164062 95.7373046875 69.7275390625 87.74609375 59.74609375 -32.953125 c 1
 334.536132812 -32.953125 l 1
 355.786132812 -69.7587890625 l 1
 318.979492188 -91.0087890625 l 1
 0.2294921875 -91.0087890625 l 1
EndSplineSet
Validated: 524289
EndChar

StartChar: three
Encoding: 51 51 58
Width: 470
Flags: W
HStem: -99.3887 21G<33.1973 77.8691> 234.111 52.251<107.421 230.386> 499.312 52.251<31.7441 224.853>
LayerCount: 2
Fore
SplineSet
328.102539062 286.362304688 m 1
 77.869140625 -80.263671875 l 1
 44.744140625 -99.388671875 l 1
 25.619140625 -66.2626953125 l 1
 230.385742188 234.111328125 l 1
 -1.1328125 234.111328125 l 1
 224.852539062 500.026367188 l 1
 17.744140625 499.311523438 l 1
 -1.380859375 532.4375 l 1
 31.744140625 551.5625 l 1
 333.635742188 552.547851562 l 1
 107.420898438 286.362304688 l 1
 328.102539062 286.362304688 l 1
EndSplineSet
Validated: 524289
EndChar

StartChar: four
Encoding: 52 52 59
Width: 454
Flags: W
HStem: -104.778 21G<342.392 388.579> 279.394 58.1445<127.625 332.688>
VStem: 332.688 58.0557<-67.9717 279.394 337.538 620.972>
LayerCount: 2
Fore
SplineSet
332.688476562 279.393554688 m 1
 0.8076171875 281.290039062 l 1
 184.958984375 476.728515625 l 1
 221.764648438 497.978515625 l 1
 243.014648438 461.171875 l 1
 127.625 338.709960938 l 1
 332.688476562 337.538085938 l 1
 332.688476562 636.528320312 l 1
 369.494140625 657.778320312 l 1
 390.744140625 620.971679688 l 1
 390.744140625 301.372070312 l 1
 390.744140625 279.061523438 l 1
 390.744140625 -83.5283203125 l 1
 353.938476562 -104.778320312 l 1
 332.688476562 -67.9716796875 l 1
 332.688476562 279.393554688 l 1
EndSplineSet
Validated: 524289
EndChar

StartChar: five
Encoding: 53 53 60
Width: 419
Flags: W
HStem: -96.7783 21G<9.92485 21.4717> 340.271 58.2383<58.2783 297.243> 590.722 58.0557<58.2773 318.972>
VStem: 0.22168 58.0566<398.51 590.722> 297.243 58.5352<167.906 342.636>
LayerCount: 2
Fore
SplineSet
334.52734375 648.77734375 m 1
 355.77734375 611.971679688 l 1
 318.971679688 590.721679688 l 1
 58.27734375 590.721679688 l 1
 58.2783203125 398.509765625 l 1
 334.528320312 400.877929688 l 1
 355.778320312 364.072265625 l 1
 355.778320312 33.5205078125 244.549804688 6.0859375 158.116210938 -43.8173828125 c 2
 121.309570312 -65.0673828125 l 2
 66.384765625 -96.7783203125 21.4716796875 -96.7783203125 21.4716796875 -96.7783203125 c 1
 0.2216796875 -59.9716796875 l 1
 37.0283203125 -38.7216796875 l 1
 37.0283203125 -38.7216796875 72.0966796875 -38.7216796875 118.153320312 -16.84375 c 1
 197.82421875 37.873046875 289.83203125 61.009765625 297.243164062 342.635742188 c 1
 21.4716796875 340.271484375 l 1
 0.2216796875 377.078125 l 1
 0.22265625 627.52734375 l 1
 37.02734375 648.77734375 l 1
 334.52734375 648.77734375 l 1
EndSplineSet
Validated: 524289
EndChar

StartChar: six
Encoding: 54 54 61
Width: 423
Flags: W
HStem: -92.8086 58.0557<112.627 241.822> 225.999 58.0557<111.327 241.418>
VStem: 0.213867 58.0645<25.0432 94.2188 94.2197 174.165> 297.73 58.0557<20.538 166.16>
LayerCount: 2
Fore
SplineSet
355.786132812 85.7822265625 m 0
 355.786132812 27.62890625 324.803710938 -25.9306640625 277.875976562 -53.0244140625 c 2
 241.069335938 -74.2744140625 l 2
 220.701171875 -86.0341796875 197.328125 -92.80859375 172.180664062 -92.80859375 c 0
 115.936523438 -92.80859375 71.4111328125 -61.51953125 45.609375 -16.8291015625 c 2
 24.359375 19.9765625 l 2
 8.921875 46.71484375 0.2138671875 78.046875 0.2138671875 111.383789062 c 0
 0.2138671875 112.094726562 0.21875 112.8046875 0.228515625 113.514648438 c 0
 1.1337890625 383.80078125 100.216796875 533.991210938 183.775390625 582.234375 c 2
 220.58203125 603.484375 l 2
 281.708984375 638.775390625 334.528320312 638.775390625 334.528320312 638.775390625 c 1
 355.778320312 601.969726562 l 1
 318.971679688 580.719726562 l 1
 318.971679688 580.719726562 276.576171875 580.719726562 223.79296875 555.340820312 c 1
 161.524414062 512.8828125 95.28515625 395.765625 69.4755859375 240.787109375 c 1
 71.4697265625 242.076171875 73.49609375 243.31640625 75.5546875 244.50390625 c 2
 112.360351562 265.75390625 l 2
 132.4765625 277.368164062 155.586914062 284.0546875 180.377929688 284.0546875 c 0
 237.875976562 284.0546875 285.685546875 251.833984375 312.268554688 205.791015625 c 2
 333.518554688 168.984375 l 2
 347.696289062 144.427734375 355.786132812 116.21484375 355.786132812 85.7822265625 c 0
164.822265625 225.999023438 m 0
 147.553710938 225.999023438 131.100585938 222.754882812 115.907226562 216.860351562 c 1
 81.203125 189.161132812 58.9326171875 145.424804688 58.2841796875 97.9580078125 c 0
 58.2802734375 96.71484375 58.2783203125 95.46875 58.2783203125 94.2197265625 c 2
 58.2763671875 94.21875 l 1
 58.4873046875 69.091796875 63.6337890625 45.3671875 72.8544921875 23.6240234375 c 1
 99.5 -11.439453125 139.10546875 -34.7529296875 187.736328125 -34.7529296875 c 0
 205.352539062 -34.7529296875 222.09765625 -31.4287109375 237.548828125 -25.39453125 c 1
 274.393554688 3.857421875 297.73046875 50.8671875 297.73046875 101.338867188 c 0
 297.73046875 124.2265625 293.185546875 145.577148438 284.916015625 165.419921875 c 1
 257.0859375 201.784179688 214.752929688 225.999023438 164.822265625 225.999023438 c 0
EndSplineSet
Validated: 524289
EndChar

StartChar: seven
Encoding: 55 55 62
Width: 431
Flags: W
HStem: -97.7783 21G<9.44048 55.6288> 577.722 58.0566<57.7939 280.062>
VStem: -0.262695 58.0566<453.878 577.722>
LayerCount: 2
Fore
SplineSet
57.7939453125 577.721679688 m 1
 57.7939453125 438.322265625 l 1
 20.9873046875 417.072265625 l 1
 -0.2626953125 453.877929688 l 1
 -0.2626953125 635.778320312 l 1
 372.469726562 635.778320312 l 1
 57.7939453125 -76.5283203125 l 1
 20.9873046875 -97.7783203125 l 1
 -0.2626953125 -60.9716796875 l 1
 280.061523438 577.721679688 l 1
 57.7939453125 577.721679688 l 1
EndSplineSet
Validated: 524289
EndChar

StartChar: eight
Encoding: 56 56 63
Width: 436
Flags: W
HStem: 0.474609 52.251<104.352 237.252> 320.06 52.251<115.733 220.444>
VStem: 0.125 52.25<111.542 261.354> 40.9248 52.25<410.55 469.636> 244.925 52.25<382.015 448.392> 297.625 52.25<113.746 258.28>
LayerCount: 2
Fore
SplineSet
184.549804688 535.525390625 m 4xdc
 213.897460938 532.756835938 248.96484375 516.024414062 266.653320312 485.38671875 c 6
 285.778320312 452.260742188 l 6
 293.083007812 439.610351562 297.423828125 424.587890625 297.174804688 407.200195312 c 4
 296.891601562 387.30078125 280.063476562 368.243164062 257.801757812 355.390625 c 6
 252.813476562 352.510742188 l 5
 275.974609375 338.905273438 295.290039062 319.077148438 308.899414062 295.505859375 c 6
 328.024414062 262.379882812 l 6
 342.190429688 237.842773438 350.173828125 209.25 349.875 179.399414062 c 4
 349.288085938 120.120117188 317.900390625 66.513671875 270.262695312 39.0107421875 c 6
 237.137695312 19.8857421875 l 6
 215.786132812 7.55859375 191.169921875 0.474609375 164.599609375 0.474609375 c 4
 111.150390625 0.474609375 66.6171875 30.6513671875 41.455078125 74.234375 c 6
 22.330078125 107.359375 l 6
 7.876953125 132.393554688 -0.185546875 161.849609375 0.125 192.549804688 c 4xec
 0.72265625 252.326171875 31.166015625 307.477539062 78.744140625 334.946289062 c 6
 96.06640625 344.947265625 l 5
 84.8193359375 353.080078125 75.203125 362.943359375 68.73828125 374.141601562 c 6
 49.61328125 407.267578125 l 6
 44.44140625 416.225585938 41.28515625 426.037109375 40.9248046875 436.5 c 4
 40.009765625 463.032226562 59.052734375 485.387695312 83.859375 499.709960938 c 6
 116.984375 518.834960938 l 6
 138.251953125 531.11328125 163.755859375 537.487304688 184.549804688 535.525390625 c 4xdc
170.549804688 483.274414062 m 4
 155.275390625 484.715820312 137.459960938 481.659179688 120.649414062 475.068359375 c 5
 103.856445312 461.293945312 92.462890625 443.163085938 93.1748046875 422.5 c 4xdc
 93.318359375 418.34765625 93.9013671875 414.298828125 94.8759765625 410.365234375 c 4
 116.877929688 387.2890625 152.229492188 372.84765625 180.680664062 372.325195312 c 4
 181.251953125 372.325195312 181.823242188 372.318359375 182.392578125 372.310546875 c 4
 182.887695312 372.310546875 183.379882812 372.315429688 183.870117188 372.325195312 c 4
 195.981445312 372.557617188 208.830078125 375.3671875 221.015625 380.077148438 c 5
 235.174804688 391.797851562 244.711914062 406.26171875 244.924804688 421.200195312 c 4
 245.067382812 431.174804688 243.69921875 440.37109375 241.12890625 448.787109375 c 5
 222.118164062 469.514648438 194.439453125 481.020507812 170.549804688 483.274414062 c 4
166.680664062 320.07421875 m 4
 166.553710938 320.07421875 166.426757812 320.075195312 166.299804688 320.075195312 c 4
 147.967773438 320.075195312 130.744140625 316.556640625 114.993164062 310.18359375 c 5
 76.6904296875 280.485351562 52.9033203125 231.319335938 52.375 178.549804688 c 4xec
 52.1337890625 154.629882812 56.974609375 131.465820312 65.9599609375 110.560546875 c 5
 92.0751953125 75.72265625 131.940429688 52.7255859375 178.600585938 52.7255859375 c 4
 198.33203125 52.7255859375 216.986328125 56.6318359375 234.026367188 63.69140625 c 5
 272.56640625 93.1220703125 297.106445312 141.048828125 297.625 193.400390625 c 4
 297.856445312 216.534179688 293.11328125 238.913085938 284.373046875 259.234375 c 5
 257.438476562 295.290039062 215.923828125 319.372070312 168.392578125 320.059570312 c 4
 167.82421875 320.059570312 167.25390625 320.063476562 166.680664062 320.07421875 c 4
EndSplineSet
Validated: 524321
EndChar

StartChar: nine
Encoding: 57 57 64
Width: 411
Flags: W
HStem: 222.81 58.0557<116.833 239.874> 541.845 58.0557<118.559 240.836>
VStem: 0.188477 58.0566<332.35 479.109> 297.753 58.0566<341.852 411.682 411.697 492.646>
LayerCount: 2
Fore
SplineSet
0.1884765625 394.986328125 m 4
 0.1884765625 339.588867188 30.515625 288.360351562 75.796875 262.216796875 c 6
 112.603515625 240.966796875 l 6
 132.5390625 229.45703125 155.374023438 222.809570312 179.794921875 222.809570312 c 4
 182.05859375 222.809570312 184.3359375 222.866210938 186.625976562 222.981445312 c 4
 227.580078125 224.989257812 262.46484375 242.928710938 288.055664062 270.52734375 c 5
 277.41796875 198.750976562 258.750976562 141.905273438 235.854492188 96.884765625 c 5
 165.248046875 -2.1396484375 21.4697265625 -37.7119140625 21.4697265625 -37.7119140625 c 5
 0.2197265625 -74.5185546875 l 5
 37.0263671875 -95.7685546875 l 5
 37.0263671875 -95.7685546875 174.368164062 -95.7685546875 262.41796875 56.73828125 c 6
 283.66796875 93.544921875 l 6
 325.1640625 165.41796875 355.711914062 271.1640625 355.776367188 426.745117188 c 4
 355.797851562 427.958984375 355.809570312 429.17578125 355.809570312 430.395507812 c 4
 355.809570312 484.892578125 326.147460938 535.856445312 281.823242188 561.447265625 c 6
 245.016601562 582.697265625 l 6
 226.127929688 593.603515625 204.577148438 599.900390625 181.5234375 599.900390625 c 4
 179.747070312 599.900390625 177.962890625 599.86328125 176.169921875 599.788085938 c 4
 118.6484375 597.022460938 71.2041015625 565.46484375 44.6083984375 519.401367188 c 6
 23.3583984375 482.595703125 l 6
 8.6279296875 457.081054688 0.1884765625 427.663085938 0.1884765625 394.986328125 c 4
197.079101562 541.844726562 m 4
 212.69140625 541.844726562 227.614257812 538.95703125 241.487304688 533.705078125 c 5
 275.818359375 505.955078125 297.752929688 461.704101562 297.752929688 414.83984375 c 4
 297.752929688 413.7890625 297.745117188 412.741210938 297.728515625 411.697265625 c 6
 297.719726562 411.681640625 l 6
 297.719726562 411.515625 297.719726562 411.350585938 297.719726562 411.184570312 c 4
 297.255859375 385.801757812 291.963867188 362.430664062 282.778320312 340.838867188 c 5
 256.642578125 306.370117188 217.80859375 283.329101562 171.0703125 281.038085938 c 4
 168.780273438 280.921875 166.502929688 280.865234375 164.239257812 280.865234375 c 4
 147.29296875 280.865234375 131.110351562 284.06640625 116.129882812 289.872070312 c 5
 80.833984375 318.026367188 58.2451171875 362.731445312 58.2451171875 410.541992188 c 4
 58.2451171875 435.46875 63.1279296875 458.052734375 71.923828125 479.008789062 c 5
 99.6259765625 515.333007812 141.89453125 539.3359375 191.7265625 541.731445312 c 4
 193.51953125 541.807617188 195.303710938 541.844726562 197.079101562 541.844726562 c 4
EndSplineSet
Validated: 524297
EndChar

StartChar: period
Encoding: 46 46 65
Width: 136
Flags: W
HStem: 123.818 75.3633<5.34375 66.6371>
VStem: 0.444336 71.1113<127.901 194.337>
LayerCount: 2
Fore
SplineSet
71.5556640625 159.349609375 m 4
 71.5556640625 147.755859375 65.5888671875 136.91796875 56.314453125 131.563476562 c 6
 48.9541015625 127.313476562 l 6
 45.111328125 125.094726562 40.701171875 123.818359375 35.912109375 123.818359375 c 4
 24.26171875 123.818359375 14.365234375 130.166015625 8.9931640625 139.470703125 c 6
 4.7431640625 146.83203125 l 6
 2.0048828125 151.57421875 0.4443359375 157.096679688 0.4443359375 162.970703125 c 4
 0.4443359375 174.8125 6.787109375 185.46484375 16.33203125 190.975585938 c 6
 23.693359375 195.225585938 l 6
 28.0458984375 197.73828125 33.0634765625 199.181640625 38.44921875 199.181640625 c 4
 49.0927734375 199.181640625 57.6162109375 193.153320312 62.587890625 184.543945312 c 6
 66.837890625 177.182617188 l 6
 69.861328125 171.944335938 71.5556640625 165.745117188 71.5556640625 159.349609375 c 4
EndSplineSet
Validated: 1
EndChar

StartChar: comma
Encoding: 44 44 66
Width: 137
Flags: W
HStem: 50.8604 139.353
VStem: 0.499023 81.9746<118.284 175.454>
LayerCount: 2
Fore
SplineSet
49.9619140625 190.212890625 m 5
 79.4775390625 175.454101562 l 5
 82.4736328125 125.544921875 l 5
 10.47265625 50.8603515625 l 5
 0.4990234375 76.3076171875 l 5
 0.0517578125 187.216796875 l 5
 49.9619140625 190.212890625 l 5
EndSplineSet
Validated: 1
EndChar

StartChar: quotesingle
Encoding: 39 39 67
Width: 124
Flags: W
HStem: 439.644 139.353
VStem: 0.447266 81.9746<507.067 564.237>
LayerCount: 2
Fore
SplineSet
49.91015625 578.99609375 m 5
 79.42578125 564.237304688 l 5
 82.421875 514.328125 l 5
 10.4208984375 439.643554688 l 5
 0.447265625 465.090820312 l 5
 0 576 l 5
 49.91015625 578.99609375 l 5
EndSplineSet
Validated: 1
EndChar

StartChar: grave
Encoding: 96 96 68
Width: 134
Flags: W
HStem: 440.006 137.994
VStem: -1.86133 102.277
LayerCount: 2
Fore
SplineSet
32.400390625 568.491210938 m 5
 64 578 l 5
 100.416015625 543.73828125 l 5
 99.2568359375 440.005859375 l 5
 74.544921875 451.680664062 l 5
 -1.861328125 532.075195312 l 5
 32.400390625 568.491210938 l 5
EndSplineSet
Validated: 1
EndChar

StartChar: colon
Encoding: 58 58 69
Width: 136
Flags: W
HStem: 198.818 75.3633<5.34375 66.6371> 348.818 75.3633<5.34375 66.6371>
VStem: 0.444336 71.1113<202.901 269.337 352.901 419.337>
LayerCount: 2
Fore
SplineSet
71.5556640625 234.349609375 m 4
 71.5556640625 222.755859375 65.5888671875 211.91796875 56.314453125 206.563476562 c 6
 48.9541015625 202.313476562 l 6
 45.111328125 200.094726562 40.701171875 198.818359375 35.912109375 198.818359375 c 4
 24.26171875 198.818359375 14.365234375 205.166015625 8.9931640625 214.470703125 c 6
 4.7431640625 221.83203125 l 6
 2.0048828125 226.57421875 0.4443359375 232.096679688 0.4443359375 237.970703125 c 4
 0.4443359375 249.8125 6.787109375 260.46484375 16.33203125 265.975585938 c 6
 23.693359375 270.225585938 l 6
 28.0458984375 272.73828125 33.0634765625 274.181640625 38.44921875 274.181640625 c 4
 49.0927734375 274.181640625 57.6162109375 268.153320312 62.587890625 259.543945312 c 6
 66.837890625 252.182617188 l 6
 69.861328125 246.944335938 71.5556640625 240.745117188 71.5556640625 234.349609375 c 4
71.5556640625 384.349609375 m 4
 71.5556640625 372.755859375 65.5888671875 361.91796875 56.314453125 356.563476562 c 6
 48.9541015625 352.313476562 l 6
 45.111328125 350.094726562 40.701171875 348.818359375 35.912109375 348.818359375 c 4
 24.26171875 348.818359375 14.365234375 355.166015625 8.9931640625 364.470703125 c 6
 4.7431640625 371.83203125 l 6
 2.0048828125 376.57421875 0.4443359375 382.096679688 0.4443359375 387.970703125 c 4
 0.4443359375 399.8125 6.787109375 410.46484375 16.33203125 415.975585938 c 6
 23.693359375 420.225585938 l 6
 28.0458984375 422.73828125 33.0634765625 424.181640625 38.44921875 424.181640625 c 4
 49.0927734375 424.181640625 57.6162109375 418.153320312 62.587890625 409.543945312 c 6
 66.837890625 402.182617188 l 6
 69.861328125 396.944335938 71.5556640625 390.745117188 71.5556640625 384.349609375 c 4
EndSplineSet
Validated: 1
EndChar

StartChar: semicolon
Encoding: 59 59 70
Width: 136
Flags: W
HStem: 348.818 75.3633<5.34375 66.6371>
VStem: 0.0234375 79.0449<211.403 261.38> 0.444336 71.1113<352.901 419.337>
LayerCount: 2
Fore
SplineSet
50 277 m 1xc0
 79.068359375 261.379882812 l 1
 80.591796875 211.403320312 l 1
 6.421875 138.873046875 l 1
 -2.796875 164.602539062 l 1
 0.0234375 275.477539062 l 1
 50 277 l 1xc0
71.5556640625 384.349609375 m 0xa0
 71.5556640625 372.755859375 65.5888671875 361.91796875 56.314453125 356.563476562 c 2
 48.9541015625 352.313476562 l 2
 45.111328125 350.094726562 40.701171875 348.818359375 35.912109375 348.818359375 c 0
 24.26171875 348.818359375 14.365234375 355.166015625 8.9931640625 364.470703125 c 2
 4.7431640625 371.83203125 l 2
 2.0048828125 376.57421875 0.4443359375 382.096679688 0.4443359375 387.970703125 c 0
 0.4443359375 399.8125 6.787109375 410.46484375 16.33203125 415.975585938 c 2
 23.693359375 420.225585938 l 2
 28.0458984375 422.73828125 33.0634765625 424.181640625 38.44921875 424.181640625 c 0
 49.0927734375 424.181640625 57.6162109375 418.153320312 62.587890625 409.543945312 c 2
 66.837890625 402.182617188 l 2
 69.861328125 396.944335938 71.5556640625 390.745117188 71.5556640625 384.349609375 c 0xa0
EndSplineSet
Validated: 1
EndChar

StartChar: dollar
Encoding: 36 36 71
Width: 399
Flags: W
HStem: -171.507 170.106G<116.747 162.935 182.608 228.797> 122.854 58.0557<137.927 195.702> 277.48 58.0566<59.2773 295.596> 442.48 58.0557<126.517 215.837>
VStem: 1.22168 58.0557<233.408 251.222 335.854 400.857> 107.044 58.0557<35.4062 435.968> 116.394 58.0566<175.095 575.7> 180.443 58.0566<-155.7 432.294> 189.094 58.0566<-13.4009 574.594> 296.172 58.3486<217.983 277.419 351.777 391.893>
LayerCount: 2
Fore
SplineSet
247.150390625 590.150390625 m 1xf8c0
 238.5 -155.700195312 l 1
 217.25 -192.506835938 l 1
 180.443359375 -171.256835938 l 1xf940
 189.09375 574.59375 l 1
 210.34375 611.400390625 l 1
 247.150390625 590.150390625 l 1xf8c0
44.876953125 277.48046875 m 0
 44.6201171875 277.48046875 44.3662109375 277.481445312 44.115234375 277.484375 c 1
 59.27734375 251.221679688 l 1
 59.376953125 245.19140625 60.34765625 239.130859375 62.109375 233.126953125 c 0
 88.443359375 203.401367188 133.418945312 180.91015625 184.02734375 180.91015625 c 0
 207.375976562 180.91015625 229.80859375 186.09375 249.86328125 194.637695312 c 1
 277.474609375 215.501953125 295.322265625 242.5625 296.171875 266.77734375 c 0
 296.264648438 269.416992188 296.34765625 271.911132812 296.401367188 274.267578125 c 0
 279.427734375 278.608398438 249.337890625 279.254882812 196.4375 280.390625 c 0
 180.551757812 280.731445312 160.016601562 281.279296875 143.834960938 281.279296875 c 0
 110.537109375 281.279296875 86.3740234375 279.737304688 68.8408203125 278.618164062 c 0
 58.8583984375 277.981445312 51.0244140625 277.48046875 44.876953125 277.48046875 c 0
159.390625 339.3359375 m 0
 175.57421875 339.3359375 196.102539062 338.787109375 211.993164062 338.446289062 c 0
 262.5625 337.360351562 292.286132812 336.72265625 309.634765625 332.875976562 c 1
 298.721679688 351.77734375 l 1
 298.721679688 366.35546875 296.375976562 379.975585938 291.997070312 392.48046875 c 1
 265.12109375 423.875 221.069335938 442.48046875 169.579101562 442.48046875 c 0
 148.23828125 442.48046875 128.180664062 438.272460938 110.149414062 430.94921875 c 1
 78.712890625 406.411132812 59.27734375 371.188476562 59.27734375 336.221679688 c 0
 59.27734375 335.995117188 59.27734375 335.768554688 59.27734375 335.54296875 c 0
 59.65625 335.5390625 60.041015625 335.537109375 60.43359375 335.537109375 c 0
 66.580078125 335.537109375 74.4140625 336.037109375 84.3974609375 336.674804688 c 0
 101.930664062 337.793945312 126.092773438 339.3359375 159.390625 339.3359375 c 0
354.520507812 263.705078125 m 0
 354.520507812 259.954101562 354.388671875 255.80859375 354.227539062 251.221679688 c 0
 353.208007812 222.168945312 327.721679688 189.020507812 290.259765625 167.390625 c 2
 253.453125 146.140625 l 2
 229.0546875 132.0546875 199.577148438 122.854492188 168.470703125 122.854492188 c 0
 108.212890625 122.854492188 55.5234375 154.876953125 33.455078125 193.099609375 c 2
 12.205078125 229.90625 l 2
 5.326171875 241.8203125 1.42578125 254.364257812 1.2216796875 266.77734375 c 1
 27.28125 281.82421875 l 1
 26.640625 282.474609375 26.0859375 283.211914062 25.6044921875 284.045898438 c 2
 4.3544921875 320.8515625 l 2
 1.2216796875 326.27734375 1.2216796875 335.767578125 1.2216796875 351.77734375 c 0
 1.2216796875 392.8828125 28.078125 434.33984375 69.71484375 458.37890625 c 2
 106.521484375 479.62890625 l 2
 129.040039062 492.630859375 155.881835938 500.536132812 185.135742188 500.536132812 c 0
 245.478515625 500.536132812 295.728515625 474.98828125 319.931640625 433.067382812 c 2
 341.181640625 396.260742188 l 2
 351.198242188 378.912109375 356.77734375 358.706054688 356.77734375 336.221679688 c 1
 329.907226562 320.708007812 l 1
 350.846679688 284.439453125 l 2
 353.766601562 279.383789062 354.520507812 272.674804688 354.520507812 263.705078125 c 0
116.393554688 591.256835938 m 1xfa40
 153.200195312 612.506835938 l 1
 174.450195312 575.700195312 l 1xfa40
 165.099609375 19.849609375 l 1
 128.293945312 -1.400390625 l 1
 107.043945312 35.40625 l 1xfc40
 116.393554688 591.256835938 l 1xfa40
EndSplineSet
Validated: 5
EndChar

StartChar: slash
Encoding: 47 47 72
Width: 397
Flags: W
LayerCount: 2
Fore
SplineSet
295.721679688 632.528320312 m 5
 332.528320312 653.778320312 l 5
 353.778320312 616.971679688 l 5
 56.2783203125 -178.528320312 l 5
 19.4716796875 -199.778320312 l 5
 -1.7783203125 -162.971679688 l 5
 295.721679688 632.528320312 l 5
EndSplineSet
Validated: 1
EndChar

StartChar: hyphen
Encoding: 45 45 73
Width: 348
Flags: W
HStem: 282.896 58.0566<38.0283 250.972>
VStem: 1.22168 286.557
LayerCount: 2
Fore
SplineSet
22.4716796875 282.896484375 m 5
 1.2216796875 319.703125 l 5
 38.0283203125 340.953125 l 5
 266.528320312 340.103515625 l 5
 287.778320312 303.296875 l 5
 250.971679688 282.046875 l 5
 22.4716796875 282.896484375 l 5
EndSplineSet
Validated: 1
EndChar

StartChar: numbersign
Encoding: 35 35 74
Width: 410
Flags: W
HStem: 0 21G<19.4532 65.6406 123.599 169.788> 214.472 58.0566<36.8027 52.5527 128.079 200.419 275.478 318.747> 341.972 58.0566<36.8027 82.8125 158.339 229.868 304.927 318.747>
LayerCount: 2
Fore
SplineSet
67.8056640625 21.25 m 1
 31 0 l 1
 9.75 36.806640625 l 1
 52.552734375 214.471679688 l 1
 21.2470703125 214.471679688 l 1
 -0.0029296875 251.278320312 l 1
 36.802734375 272.528320312 l 1
 66.3310546875 272.528320312 l 1
 82.8125 341.971679688 l 1
 21.2470703125 341.971679688 l 1
 -0.0029296875 378.778320312 l 1
 36.802734375 400.028320312 l 1
 96.5908203125 400.028320312 l 1
 114.747070312 476.528320312 l 1
 151.552734375 497.778320312 l 1
 172.802734375 460.971679688 l 1
 158.338867188 400.028320312 l 1
 243.27734375 400.028320312 l 1
 260.947265625 476.528320312 l 1
 297.752929688 497.778320312 l 1
 319.002929688 460.971679688 l 1
 304.926757812 400.028320312 l 1
 334.302734375 400.028320312 l 1
 355.552734375 363.221679688 l 1
 318.747070312 341.971679688 l 1
 291.516601562 341.971679688 l 1
 275.477539062 272.528320312 l 1
 334.302734375 272.528320312 l 1
 355.552734375 235.721679688 l 1
 318.747070312 214.471679688 l 1
 262.067382812 214.471679688 l 1
 171.953125 -175.677734375 l 1
 135.146484375 -196.927734375 l 1
 113.896484375 -160.122070312 l 1
 200.418945312 214.471679688 l 1
 114.30078125 214.471679688 l 1
 67.8056640625 21.25 l 1
229.868164062 341.971679688 m 1
 144.560546875 341.971679688 l 1
 128.079101562 272.528320312 l 1
 213.828125 272.528320312 l 1
 229.868164062 341.971679688 l 1
EndSplineSet
Validated: 1
EndChar

StartChar: percent
Encoding: 37 37 75
Width: 431
Flags: W
HStem: 133.328 40.9805<231.395 257.461> 208.691 40.9805<234.923 260.564> 272.265 61.4707<39.2354 310.765> 279.265 61.4707<39.2354 310.765> 361.328 40.9805<88.3949 114.461> 436.691 40.9805<91.9229 117.564>
VStem: 46.9541 40.9805<406.095 436.332> 118.065 40.9805<402.541 433.321> 189.954 40.9805<178.095 208.332> 261.065 40.9805<174.541 205.321>
LayerCount: 2
Fore
SplineSet
302.045898438 183.859375 m 0xcfc0
 302.045898438 172.265625 296.079101562 161.427734375 286.8046875 156.073242188 c 0
 275.69140625 149.65625 264.577148438 143.239257812 253.462890625 136.823242188 c 0
 249.620117188 134.604492188 245.2109375 133.328125 240.421875 133.328125 c 0
 228.771484375 133.328125 218.875 139.67578125 213.502929688 148.98046875 c 0
 207.084960938 160.096679688 200.669921875 171.20703125 194.251953125 182.32421875 c 0
 191.513671875 187.065429688 189.954101562 192.587890625 189.954101562 198.4609375 c 0
 189.954101562 210.302734375 196.296875 220.955078125 205.841796875 226.465820312 c 0
 216.956054688 232.8828125 228.069335938 239.299804688 239.18359375 245.715820312 c 0
 243.536132812 248.228515625 248.553710938 249.671875 253.939453125 249.671875 c 0
 264.583007812 249.671875 273.106445312 243.643554688 278.078125 235.034179688 c 0
 284.495117188 223.919921875 290.912109375 212.806640625 297.328125 201.692382812 c 0
 300.3515625 196.454101562 302.045898438 190.254882812 302.045898438 183.859375 c 0xcfc0
261.065429688 194.83984375 m 0
 261.065429688 197.370117188 260.799804688 199.870117188 260.291992188 202.291015625 c 0
 255.611328125 206.264648438 249.711914062 208.69140625 242.958984375 208.69140625 c 0
 241.408203125 208.69140625 239.888671875 208.571289062 238.407226562 208.341796875 c 0
 233.732421875 202.68359375 230.934570312 195.344726562 230.934570312 187.48046875 c 0
 230.934570312 185.470703125 231.1171875 183.501953125 231.467773438 181.591796875 c 0
 236.826171875 177.05859375 243.734375 174.30859375 251.40234375 174.30859375 c 0
 252.353515625 174.30859375 253.2890625 174.359375 254.208007812 174.45703125 c 0
 258.53515625 180.060546875 261.065429688 187.290039062 261.065429688 194.83984375 c 0
159.045898438 411.859375 m 0
 159.045898438 400.265625 153.079101562 389.427734375 143.8046875 384.073242188 c 0
 132.69140625 377.65625 121.577148438 371.239257812 110.462890625 364.823242188 c 0
 106.620117188 362.604492188 102.2109375 361.328125 97.421875 361.328125 c 0
 85.771484375 361.328125 75.875 367.67578125 70.5029296875 376.98046875 c 0
 64.0849609375 388.096679688 57.669921875 399.20703125 51.251953125 410.32421875 c 0
 48.513671875 415.065429688 46.9541015625 420.587890625 46.9541015625 426.4609375 c 0
 46.9541015625 438.302734375 53.296875 448.955078125 62.841796875 454.465820312 c 0
 73.9560546875 460.8828125 85.0693359375 467.299804688 96.18359375 473.715820312 c 0
 100.536132812 476.228515625 105.553710938 477.671875 110.939453125 477.671875 c 0
 121.583007812 477.671875 130.106445312 471.643554688 135.078125 463.034179688 c 0
 141.495117188 451.919921875 147.912109375 440.806640625 154.328125 429.692382812 c 0
 157.3515625 424.454101562 159.045898438 418.254882812 159.045898438 411.859375 c 0
118.065429688 422.83984375 m 0
 118.065429688 425.370117188 117.799804688 427.870117188 117.291992188 430.291015625 c 0
 112.611328125 434.264648438 106.711914062 436.69140625 99.958984375 436.69140625 c 0
 98.408203125 436.69140625 96.888671875 436.571289062 95.4072265625 436.341796875 c 0
 90.732421875 430.68359375 87.9345703125 423.344726562 87.9345703125 415.48046875 c 0
 87.9345703125 413.470703125 88.1171875 411.501953125 88.4677734375 409.591796875 c 0
 93.826171875 405.05859375 100.734375 402.30859375 108.40234375 402.30859375 c 0
 109.353515625 402.30859375 110.2890625 402.359375 111.208007812 402.45703125 c 0
 115.53515625 408.060546875 118.065429688 415.290039062 118.065429688 422.83984375 c 0
22.7646484375 279.264648438 m 1xdfc0
 0.2646484375 318.235351562 l 1
 39.2353515625 340.735351562 l 1xdfc0
 327.235351562 333.735351562 l 1
 349.735351562 294.764648438 l 1
 310.764648438 272.264648438 l 1xefc0
 22.7646484375 279.264648438 l 1xdfc0
EndSplineSet
Validated: 1
EndChar

StartChar: ordmasculine
Encoding: 186 186 76
Width: 120
Flags: W
HStem: 563.328 40.9805<43.3949 69.4608> 638.691 40.9805<46.9229 72.5635>
VStem: 1.9541 40.9805<608.095 638.332> 73.0654 40.9805<604.541 635.321>
LayerCount: 2
Fore
SplineSet
114.045898438 613.859375 m 4
 114.045898438 602.265625 108.079101562 591.427734375 98.8046875 586.073242188 c 4
 87.69140625 579.65625 76.5771484375 573.239257812 65.462890625 566.823242188 c 4
 61.6201171875 564.604492188 57.2109375 563.328125 52.421875 563.328125 c 4
 40.771484375 563.328125 30.875 569.67578125 25.5029296875 578.98046875 c 4
 19.0849609375 590.096679688 12.669921875 601.20703125 6.251953125 612.32421875 c 4
 3.513671875 617.065429688 1.9541015625 622.587890625 1.9541015625 628.4609375 c 4
 1.9541015625 640.302734375 8.296875 650.955078125 17.841796875 656.465820312 c 4
 28.9560546875 662.8828125 40.0693359375 669.299804688 51.18359375 675.715820312 c 4
 55.5361328125 678.228515625 60.5537109375 679.671875 65.939453125 679.671875 c 4
 76.5830078125 679.671875 85.1064453125 673.643554688 90.078125 665.034179688 c 4
 96.4951171875 653.919921875 102.912109375 642.806640625 109.328125 631.692382812 c 4
 112.3515625 626.454101562 114.045898438 620.254882812 114.045898438 613.859375 c 4
73.0654296875 624.83984375 m 4
 73.0654296875 627.370117188 72.7998046875 629.870117188 72.2919921875 632.291015625 c 4
 67.611328125 636.264648438 61.7119140625 638.69140625 54.958984375 638.69140625 c 4
 53.408203125 638.69140625 51.888671875 638.571289062 50.4072265625 638.341796875 c 4
 45.732421875 632.68359375 42.9345703125 625.344726562 42.9345703125 617.48046875 c 4
 42.9345703125 615.470703125 43.1171875 613.501953125 43.4677734375 611.591796875 c 4
 48.826171875 607.05859375 55.734375 604.30859375 63.40234375 604.30859375 c 4
 64.353515625 604.30859375 65.2890625 604.359375 66.2080078125 604.45703125 c 4
 70.53515625 610.060546875 73.0654296875 617.290039062 73.0654296875 624.83984375 c 4
EndSplineSet
Validated: 524289
EndChar

StartChar: ampersand
Encoding: 38 38 77
Width: 299
Flags: W
HStem: -197.778 58.0566<376.125 436.972> -89.2012 21G<91.9307 98.3765> 123.572 58.0557<279.53 317.972> 531.722 58.0566<57.668 317.972>
VStem: 0.0859375 58.0557<-4.71251 171.53>
LayerCount: 2
Fore
SplineSet
281 -123 m 1048
-0.7783203125 589.778320312 m 1
 333.528320312 589.778320312 l 1
 354.778320312 552.971679688 l 1
 317.971679688 531.721679688 l 1
 57.66796875 531.721679688 l 1
 59.0673828125 482.95703125 65.478515625 373.565429688 94.86328125 248.521484375 c 0
 108.845703125 189.024414062 125.185546875 127.95703125 154.34765625 78.55859375 c 0
 157.5859375 73.0732421875 160.963867188 67.75 164.479492188 62.59765625 c 1
 184.209960938 95.251953125 207.619140625 126.817382812 238.90625 144.880859375 c 2
 275.712890625 166.130859375 l 2
 292.5 175.823242188 311.555664062 181.627929688 333.528320312 181.627929688 c 1
 354.778320312 144.822265625 l 1
 317.971679688 123.572265625 l 1
 303.819335938 123.572265625 290.876953125 121.1640625 278.971679688 116.859375 c 1
 247.544921875 91.30078125 224.799804688 52.16015625 204.975585938 16.4677734375 c 1
 225.279014075 -1.26038073402 278.389480701 -64.9665674574 340 -100 c 0
 391 -129 431.388862531 -139.721679688 452.528320312 -139.721679688 c 1
 473.778320312 -176.528320312 l 1
 436.971679688 -197.778320312 l 1
 405.752222945 -197.778320312 340 -159 281 -123 c 0
 231.690603562 -92.9129106479 195.17335239 -46.1693359584 178.568359375 -29.4755859375 c 1
 168.62109375 -45.0693359375 158.743164062 -57.3193359375 148.015625 -63.5126953125 c 2
 111.209960938 -84.7626953125 l 2
 106.240234375 -87.6318359375 101.088867188 -89.201171875 95.6640625 -89.201171875 c 0
 88.197265625 -89.201171875 80.212890625 -86.2275390625 71.47265625 -79.578125 c 0
 62.7568359375 -72.947265625 55.353515625 -63.9326171875 49.130859375 -53.154296875 c 2
 27.880859375 -16.3486328125 l 2
 7.89453125 18.2685546875 0.0859375 71.0830078125 0.0859375 121.579101562 c 0
 0.0859375 189.158203125 14.0712890625 252.5859375 31.572265625 262.690429688 c 2
 36.4697265625 265.518554688 l 1
 -0.7783203125 424.979492188 -0.7783203125 568.528320312 -0.7783203125 568.528320312 c 1
 -0.7783203125 589.778320312 l 1
58.1416015625 106.0234375 m 0
 58.1416015625 64.685546875 63.375 21.794921875 76.2373046875 -11.3955078125 c 0
 79.5859375 -15.2001953125 83.1796875 -18.59375 87.029296875 -21.521484375 c 0
 94.6884765625 -27.349609375 101.767578125 -30.353515625 108.426757812 -31.0068359375 c 1
 118.845703125 -18.0908203125 128.940429688 -0.392578125 139.733398438 19.056640625 c 1
 135.663085938 25.271484375 131.73046875 31.6787109375 127.932617188 38.2568359375 c 2
 106.682617188 75.0625 l 2
 89.447265625 104.915039062 74.9765625 138.296875 62.8271484375 173.307617188 c 1
 59.8525390625 152.790039062 58.1416015625 129.661132812 58.1416015625 106.0234375 c 0
EndSplineSet
Validated: 1
EndChar

StartChar: parenleft
Encoding: 40 40 78
Width: 207
Flags: W
HStem: -93.7783 21G<150.362 201.038>
VStem: -0.203125 58.0566<140.918 366.213>
LayerCount: 2
Fore
SplineSet
-0.203125 261.778320312 m 0
 -0.203125 381.715820312 54.6396484375 456.604492188 117.977539062 543.090820312 c 0
 126.908203125 555.286132812 136.0078125 567.712890625 145.146484375 580.528320312 c 1
 181.953125 601.778320312 l 1
 203.203125 564.971679688 l 1
 194.064453125 552.15625 184.963867188 539.73046875 176.033203125 527.53515625 c 0
 112.696289062 441.047851562 57.853515625 366.16015625 57.853515625 246.221679688 c 0
 57.853515625 182.1484375 70.9853515625 131.96484375 96.552734375 87.2060546875 c 0
 120.315429688 45.6044921875 153.723632812 5.5361328125 181.953125 -35.7216796875 c 1
 203.203125 -72.5283203125 l 1
 166.396484375 -93.7783203125 l 1
 134.327148438 -46.90625 96.6142578125 1.2216796875 69.5908203125 48.0283203125 c 2
 48.3408203125 84.833984375 l 2
 18.8857421875 135.8515625 -0.203125 189.270507812 -0.203125 261.778320312 c 0
EndSplineSet
Validated: 524289
EndChar

StartChar: parenright
Encoding: 41 41 79
Width: 207
Flags: W
VStem: 145.146 58.0566<146.918 372.213>
LayerCount: 2
Fore
SplineSet
203.203125 267.778320312 m 0
 203.203125 387.715820312 148.360351562 462.604492188 85.0224609375 549.090820312 c 0
 76.091796875 561.286132812 66.9921875 573.712890625 57.853515625 586.528320312 c 1
 21.046875 607.778320312 l 1
 -0.203125 570.971679688 l 1
 8.935546875 558.15625 18.0361328125 545.73046875 26.966796875 533.53515625 c 0
 90.3037109375 447.047851562 145.146484375 372.16015625 145.146484375 252.221679688 c 0
 145.146484375 188.1484375 132.014648438 137.96484375 106.447265625 93.2060546875 c 0
 82.6845703125 51.6044921875 49.2763671875 11.5361328125 21.046875 -29.7216796875 c 1
 -0.203125 -66.5283203125 l 1
 36.603515625 -87.7783203125 l 1
 68.6728515625 -40.90625 106.385742188 7.2216796875 133.409179688 54.0283203125 c 2
 154.659179688 90.833984375 l 2
 184.114257812 141.8515625 203.203125 195.270507812 203.203125 267.778320312 c 0
EndSplineSet
Validated: 524297
EndChar

StartChar: asterisk
Encoding: 42 42 80
Width: 254
Flags: W
HStem: 220.611 182.777
VStem: 72.3984 45.0957<336.769 380.85>
LayerCount: 2
Fore
SplineSet
170.375 365.138671875 m 5
 192.9140625 342.599609375 l 5
 170.375 320.060546875 l 5
 124.23046875 294.686523438 l 5
 175.4609375 240.174804688 l 5
 130.3828125 240.174804688 l 5
 95.880859375 276.88671875 l 5
 64.3935546875 243.150390625 l 5
 41.8544921875 220.611328125 l 5
 19.3154296875 243.150390625 l 5
 67.287109375 294.546875 l 5
 21.625 320.060546875 l 5
 -0.9140625 342.599609375 l 5
 21.625 365.138671875 l 5
 72.3984375 336.768554688 l 5
 71.3359375 380.849609375 l 5
 93.875 403.388671875 l 5
 116.4140625 380.849609375 l 5
 117.494140625 336.060546875 l 5
 170.375 365.138671875 l 5
EndSplineSet
Validated: 1
EndChar

StartChar: underscore
Encoding: 95 95 81
Width: 348
Flags: W
HStem: -197.104 58.0566<18.0283 350.972>
LayerCount: 2
Fore
SplineSet
2.4716796875 -197.103515625 m 1
 -18.7783203125 -160.296875 l 1
 18.0283203125 -139.046875 l 1
 366.528320312 -139.896484375 l 1
 387.778320312 -176.703125 l 1
 350.971679688 -197.953125 l 1
 2.4716796875 -197.103515625 l 1
EndSplineSet
Validated: 524289
EndChar

StartChar: equal
Encoding: 61 61 82
Width: 348
Flags: W
HStem: 222.896 58.0566<38.0283 250.972> 342.896 58.0566<38.0283 250.972>
VStem: 1.22168 286.557
LayerCount: 2
Fore
SplineSet
22.4716796875 222.896484375 m 1
 1.2216796875 259.703125 l 1
 38.0283203125 280.953125 l 1
 266.528320312 280.103515625 l 1
 287.778320312 243.296875 l 1
 250.971679688 222.046875 l 1
 22.4716796875 222.896484375 l 1
22.4716796875 342.896484375 m 1
 1.2216796875 379.703125 l 1
 38.0283203125 400.953125 l 1
 266.528320312 400.103515625 l 1
 287.778320312 363.296875 l 1
 250.971679688 342.046875 l 1
 22.4716796875 342.896484375 l 1
EndSplineSet
Validated: 1
EndChar

StartChar: plus
Encoding: 43 43 83
Width: 348
Flags: W
HStem: 282.896 58.0566<38.0283 250.972>
VStem: 116.047 58.0566<197.028 409.972>
LayerCount: 2
Fore
SplineSet
174.103515625 181.471679688 m 5
 137.296875 160.221679688 l 5
 116.046875 197.028320312 l 5
 116.896484375 425.528320312 l 5
 153.703125 446.778320312 l 5
 174.953125 409.971679688 l 5
 174.103515625 181.471679688 l 5
22.4716796875 282.896484375 m 5
 1.2216796875 319.703125 l 5
 38.0283203125 340.953125 l 5
 266.528320312 340.103515625 l 5
 287.778320312 303.296875 l 5
 250.971679688 282.046875 l 5
 22.4716796875 282.896484375 l 5
EndSplineSet
Validated: 5
EndChar

StartChar: less
Encoding: 60 60 84
Width: 438
Flags: W
HStem: 123.097 21G<312.706 382.348> 485.903 20G<324.553 374.81>
LayerCount: 2
Fore
SplineSet
112.688476562 324.337890625 m 5
 363.262695312 181.153320312 l 5
 384.512695312 144.346679688 l 5
 347.706054688 123.096679688 l 5
 3.2802734375 319.912109375 l 5
 363.262695312 505.903320312 l 5
 384.512695312 469.096679688 l 5
 347.706054688 447.846679688 l 5
 112.688476562 324.337890625 l 5
EndSplineSet
Validated: 1
EndChar

StartChar: greater
Encoding: 62 62 85
Width: 438
Flags: W
LayerCount: 2
Fore
SplineSet
275.104492188 324.337890625 m 1
 24.5302734375 181.153320312 l 1
 3.2802734375 144.346679688 l 1
 40.0869140625 123.096679688 l 1
 384.512695312 319.912109375 l 1
 24.5302734375 505.903320312 l 1
 3.2802734375 469.096679688 l 1
 40.0869140625 447.846679688 l 1
 275.104492188 324.337890625 l 1
EndSplineSet
Validated: 9
EndChar

StartChar: question
Encoding: 63 63 86
Width: 429
Flags: W
HStem: -139.182 75.3633<5.34375 66.6371> -20.6035 21G<20.6749 66.8632> 440.547 58.0566<71.5283 302.771>
VStem: 0.444336 71.1113<-135.099 -68.6633> 13.4717 58.0566<16.2031 120.595 408.503 440.547>
LayerCount: 2
Fore
SplineSet
71.5556640625 -103.650390625 m 4xf0
 71.5556640625 -115.244140625 65.5888671875 -126.08203125 56.314453125 -131.436523438 c 6
 48.9541015625 -135.686523438 l 6
 45.111328125 -137.905273438 40.701171875 -139.181640625 35.912109375 -139.181640625 c 4
 24.26171875 -139.181640625 14.365234375 -132.833984375 8.9931640625 -123.529296875 c 6
 4.7431640625 -116.16796875 l 6
 2.0048828125 -111.42578125 0.4443359375 -105.903320312 0.4443359375 -100.029296875 c 4
 0.4443359375 -88.1875 6.787109375 -77.53515625 16.33203125 -72.0244140625 c 6
 23.693359375 -67.7744140625 l 6
 28.0458984375 -65.26171875 33.0634765625 -63.818359375 38.44921875 -63.818359375 c 4
 49.0927734375 -63.818359375 57.6162109375 -69.8466796875 62.587890625 -78.4560546875 c 6
 66.837890625 -85.8173828125 l 6
 69.861328125 -91.0556640625 71.5556640625 -97.2548828125 71.5556640625 -103.650390625 c 4xf0
366.528320312 498.603515625 m 5
 366.528320312 461.796875 l 6
 366.528320312 390.751953125 308.956054688 333.795898438 244.46484375 289.037109375 c 4
 162.354492188 232.05078125 69.0283203125 147.279296875 69.0283203125 0.646484375 c 5
 32.2216796875 -20.603515625 l 5
 10.9716796875 16.203125 l 5
 10.9716796875 162.834960938 104.298828125 247.606445312 186.409179688 304.592773438 c 4
 238.848632812 340.987304688 286.712890625 391.20703125 302.771484375 440.546875 c 5
 71.5283203125 440.546875 l 5
 71.5283203125 392.947265625 l 5
 34.7216796875 371.697265625 l 5
 13.4716796875 408.502929688 l 5
 13.4716796875 477.353515625 l 5xe8
 50.2783203125 498.603515625 l 5
 366.528320312 498.603515625 l 5
EndSplineSet
Validated: 1
EndChar

StartChar: at
Encoding: 64 64 87
Width: 430
Flags: W
HStem: 123.572 58.0557<57.8389 327.147> 228.122 58.0557<214.705 274.784> 470.372 58.0557<57.8965 271.821>
VStem: -0.953125 58.0557<181.628 470.372> 271.821 58.209<286.178 348.928 424.729 470.372>
LayerCount: 2
Fore
SplineSet
333.865234375 228.122070312 m 1
 87.9443359375 228.122070312 l 1
 271.443359375 424.728515625 l 1
 271.821289062 470.372070312 l 1
 57.896484375 470.372070312 l 1
 57.1025390625 308.872070312 l 1
 57.8388671875 181.627929688 l 1
 342.703125 181.627929688 l 1
 363.953125 144.822265625 l 1
 327.147460938 123.572265625 l 1
 0.0107421875 123.572265625 l 1
 -0.953125 324.427734375 l 1
 -0.0458984375 528.427734375 l 1
 330.030273438 528.427734375 l 1
 329.5 409.171875 l 1
 333.865234375 228.122070312 l 1
274.784179688 286.177734375 m 1
 273.271484375 348.927734375 l 1
 214.705078125 286.177734375 l 1
 274.784179688 286.177734375 l 1
EndSplineSet
Validated: 1
EndChar

StartChar: bracketleft
Encoding: 91 91 88
Width: 118
Flags: W
HStem: -91.8984 58.5527<61.3975 169.239> 547.55 58.0566<59.0801 169.239>
VStem: 3.6377 57.7598<-33.3457 547.55>
LayerCount: 2
Fore
SplineSet
0.8544921875 605.606445312 m 5
 184.795898438 605.606445312 l 5
 206.045898438 568.799804688 l 5
 169.239257812 547.549804688 l 5
 59.080078125 547.549804688 l 5
 61.3974609375 -33.345703125 l 5
 184.795898438 -31.8935546875 l 5
 206.045898438 -68.7001953125 l 5
 169.239257812 -89.9501953125 l 5
 3.6376953125 -91.8984375 l 5
 0.8544921875 605.606445312 l 5
EndSplineSet
Validated: 524289
EndChar

StartChar: bracketright
Encoding: 93 93 89
Width: 180
Flags: W
HStem: -32.3457 21G<-65.8955 57.5827>
LayerCount: 2
Fore
SplineSet
118.045898438 606.606445312 m 1
 -65.8955078125 606.606445312 l 1
 -87.1455078125 569.799804688 l 1
 -50.3388671875 548.549804688 l 1
 59.8203125 548.549804688 l 1
 57.5029296875 -32.345703125 l 1
 -65.8955078125 -30.8935546875 l 1
 -87.1455078125 -67.7001953125 l 1
 -50.3388671875 -88.9501953125 l 1
 115.262695312 -90.8984375 l 1
 118.045898438 606.606445312 l 1
EndSplineSet
Validated: 524297
EndChar

StartChar: backslash
Encoding: 92 92 90
Width: 397
Flags: W
LayerCount: 2
Fore
SplineSet
56.2783203125 632.528320312 m 1
 19.4716796875 653.778320312 l 1
 -1.7783203125 616.971679688 l 1
 291.721679688 -68.5283203125 l 1
 328.528320312 -89.7783203125 l 1
 349.778320312 -52.9716796875 l 1
 56.2783203125 632.528320312 l 1
EndSplineSet
Validated: 524297
EndChar

StartChar: braceleft
Encoding: 123 123 91
Width: 296
Flags: W
HStem: -91.8535 21G<241.747 290.819> 225.508 58.0947<37.0283 92.9072 150.24 256.972>
VStem: 91.7334 56.4922<142.297 225.508 283.773 357.616>
LayerCount: 2
Fore
SplineSet
21.4716796875 226.046875 m 1
 0.2216796875 262.853515625 l 1
 37.0283203125 284.103515625 l 1
 90.4951171875 283.7734375 l 1
 103.245117188 436.14453125 235.721679688 581.603515625 235.721679688 581.603515625 c 1
 272.528320312 602.853515625 l 1
 293.778320312 566.046875 l 1
 293.778320312 566.046875 170.084960938 430.233398438 150.240234375 283.602539062 c 1
 272.528320312 283.252929688 l 1
 293.778320312 246.447265625 l 1
 256.971679688 225.197265625 l 1
 148.225585938 225.5078125 l 1
 152.107421875 167.108398438 172.809570312 109.486328125 200.1015625 62.3525390625 c 0
 234.270507812 3.3388671875 271.734375 -33.796875 271.734375 -33.796875 c 1
 292.984375 -70.603515625 l 1
 256.178710938 -91.853515625 l 1
 256.178710938 -91.853515625 212.856445312 -45.4375 173.504882812 22.72265625 c 2
 152.254882812 59.5283203125 l 2
 124.783203125 107.110351562 99.2470703125 165.288085938 91.7333984375 225.668945312 c 1
 21.4716796875 226.046875 l 1
EndSplineSet
Validated: 524289
EndChar

StartChar: braceright
Encoding: 125 125 92
Width: 296
Flags: W
VStem: 145.774 56.4922<142.297 225.508 283.773 357.616>
LayerCount: 2
Fore
SplineSet
272.528320312 226.046875 m 1
 293.778320312 262.853515625 l 1
 256.971679688 284.103515625 l 1
 203.504882812 283.7734375 l 1
 190.754882812 436.14453125 58.2783203125 581.603515625 58.2783203125 581.603515625 c 1
 21.4716796875 602.853515625 l 1
 0.2216796875 566.046875 l 1
 0.2216796875 566.046875 123.915039062 430.233398438 143.759765625 283.602539062 c 1
 21.4716796875 283.252929688 l 1
 0.2216796875 246.447265625 l 1
 37.0283203125 225.197265625 l 1
 145.774414062 225.5078125 l 1
 141.892578125 167.108398438 121.190429688 109.486328125 93.8984375 62.3525390625 c 0
 59.7294921875 3.3388671875 22.265625 -33.796875 22.265625 -33.796875 c 1
 1.015625 -70.603515625 l 1
 37.8212890625 -91.853515625 l 1
 37.8212890625 -91.853515625 81.1435546875 -45.4375 120.495117188 22.72265625 c 2
 141.745117188 59.5283203125 l 2
 169.216796875 107.110351562 194.752929688 165.288085938 202.266601562 225.668945312 c 1
 272.528320312 226.046875 l 1
EndSplineSet
Validated: 524297
EndChar

StartChar: exclamdown
Encoding: 161 161 93
Width: 167
Flags: W
HStem: 262.715 75.3633<5.34375 66.6371>
VStem: 0.444336 71.1113<267.56 333.996>
LayerCount: 2
Fore
SplineSet
36.0869140625 -197.181640625 m 1
 134.146484375 -197.181640625 l 1
 58.6865234375 222.974609375 l 1
 22.6298828125 207.41796875 l 1
 36.0869140625 -197.181640625 l 1
71.5556640625 302.546875 m 0
 71.5556640625 314.140625 65.5888671875 324.978515625 56.314453125 330.333007812 c 2
 48.9541015625 334.583007812 l 2
 45.111328125 336.801757812 40.701171875 338.078125 35.912109375 338.078125 c 0
 24.26171875 338.078125 14.365234375 331.73046875 8.9931640625 322.42578125 c 2
 4.7431640625 315.064453125 l 2
 2.0048828125 310.322265625 0.4443359375 304.799804688 0.4443359375 298.92578125 c 0
 0.4443359375 287.083984375 6.787109375 276.431640625 16.33203125 270.920898438 c 2
 23.693359375 266.670898438 l 2
 28.0458984375 264.158203125 33.0634765625 262.71484375 38.44921875 262.71484375 c 0
 49.0927734375 262.71484375 57.6162109375 268.743164062 62.587890625 277.352539062 c 2
 66.837890625 284.713867188 l 2
 69.861328125 289.952148438 71.5556640625 296.151367188 71.5556640625 302.546875 c 0
EndSplineSet
Validated: 524297
EndChar

StartChar: bar
Encoding: 124 124 94
Width: 1000
HStem: -108.928 21G<328.948 375.137>
VStem: 319.245 58.0566<-72.1221 596.122>
LayerCount: 2
Fore
SplineSet
320.83203125 611.677734375 m 1
 357.637695312 632.927734375 l 1
 378.887695312 596.122070312 l 1
 377.301757812 -87.677734375 l 1
 340.495117188 -108.927734375 l 1
 319.245117188 -72.1220703125 l 1
 320.83203125 611.677734375 l 1
EndSplineSet
Validated: 524289
EndChar

StartChar: asciitilde
Encoding: 126 126 95
Width: 356
Flags: W
HStem: 213.248 58.0566<211.089 273.946> 363.713 58.0566<74.6923 134.347>
VStem: -0.77832 58.0566<310.18 359.777>
LayerCount: 2
Fore
SplineSet
234.671875 213.248046875 m 4
 209.40234375 213.248046875 193.659179688 228.958007812 184.079101562 245.551757812 c 6
 162.829101562 282.357421875 l 6
 152.108398438 300.927734375 149.10546875 320.604492188 149.10546875 320.604492188 c 5
 149.10546875 320.604492188 147.873046875 324.063476562 145.451171875 329.541992188 c 4
 131.99609375 347.416992188 113.268554688 363.712890625 89.708984375 363.712890625 c 4
 86.6806640625 363.712890625 83.8818359375 363.486328125 81.1455078125 363.092773438 c 4
 61.6953125 339.952148438 57.2783203125 306.748046875 57.2783203125 306.748046875 c 5
 20.4716796875 285.498046875 l 5
 -0.7783203125 322.3046875 l 5
 -0.7783203125 322.3046875 6.0263671875 373.452148438 39.9306640625 393.02734375 c 6
 76.7373046875 414.27734375 l 6
 84.646484375 418.84375 93.9873046875 421.76953125 105.264648438 421.76953125 c 4
 136.372070312 421.76953125 159.0546875 393.359375 172.299804688 370.41796875 c 6
 193.549804688 333.611328125 l 6
 202.51953125 318.076171875 207.161132812 305.047851562 207.161132812 305.047851562 c 5
 207.161132812 305.047851562 208.293945312 297.625976562 211.651367188 287.596679688 c 5
 221 278.16015625 233.53515625 271.3046875 250.228515625 271.3046875 c 4
 255.76171875 271.3046875 261 271.951171875 265.947265625 273.12109375 c 4
 286.998046875 293.700195312 296.721679688 320.604492188 296.721679688 320.604492188 c 5
 333.528320312 341.854492188 l 5
 354.778320312 305.047851562 l 5
 354.778320312 305.047851562 339.663085938 263.23046875 306.330078125 243.985351562 c 6
 269.524414062 222.735351562 l 6
 259.561523438 216.983398438 247.971679688 213.248046875 234.671875 213.248046875 c 4
EndSplineSet
Validated: 524289
EndChar

StartChar: asciicircum
Encoding: 94 94 96
Width: 206
Flags: W
HStem: 477.268 152.074
VStem: 0.582031 203.236
LayerCount: 2
Fore
SplineSet
102.034179688 551.549804688 m 5
 58.6376953125 503.618164062 l 5
 21.83203125 482.368164062 l 5
 0.58203125 519.173828125 l 5
 100.326171875 629.341796875 l 5
 182.568359375 535.32421875 l 5
 203.818359375 498.517578125 l 5
 167.01171875 477.267578125 l 5
 102.034179688 551.549804688 l 5
EndSplineSet
Validated: 524289
EndChar

StartChar: cent
Encoding: 162 162 97
Width: 371
Flags: W
HStem: -1.4375 21G<165.173 208.004> 188.237 49.4258<107.626 157.798 207.438 300.267> 489.438 41G<155.767 198.599 282.204 325.037>
VStem: 158.194 49.2441<29.8477 188.237 237.944 291.527 409.369 499.152>
LayerCount: 2
Fore
SplineSet
282.204101562 491.375976562 m 1
 313.490234375 509.438476562 l 1
 331.552734375 478.15234375 l 1
 206.19140625 343.837890625 l 1
 207.041992188 237.663085938 l 1
 313.490234375 237.055664062 l 1
 331.552734375 205.76953125 l 1
 300.266601562 187.70703125 l 1
 207.438476562 188.237304688 l 1
 208.00390625 16.625 l 1
 176.719726562 -1.4375 l 1
 158.657226562 29.84765625 l 1
 158.194335938 188.518554688 l 1
 0.3798828125 189.420898438 l 1
 156.84375 357.059570312 l 1
 155.766601562 512.375976562 l 1
 187.052734375 530.438476562 l 1
 205.115234375 499.15234375 l 1
 205.666015625 409.369140625 l 1
 282.204101562 491.375976562 l 1
157.369140625 291.52734375 m 1
 107.625976562 238.231445312 l 1
 157.797851562 237.944335938 l 1
 157.369140625 291.52734375 l 1
EndSplineSet
Validated: 524289
EndChar

StartChar: sterling
Encoding: 163 163 98
Width: 410
Flags: W
HStem: 17.8174 58.0557<83.0234 280.302> 283.867 58.0557<48.8916 92.085 175.633 181.688> 496.117 20G<166.608 205.14>
LayerCount: 2
Fore
SplineSet
302.064453125 17.8173828125 m 1
 -0.796875 17.8173828125 l 1
 92.0849609375 283.193359375 l 1
 33.3349609375 283.8671875 l 1
 12.0849609375 320.672851562 l 1
 48.8916015625 341.922851562 l 1
 112.385742188 341.1953125 l 1
 173.608398438 516.1171875 l 1
 346.391601562 406.5234375 l 1
 367.641601562 369.716796875 l 1
 330.834960938 348.466796875 l 1
 206.118164062 427.573242188 l 1
 175.6328125 340.470703125 l 1
 197.245117188 340.22265625 l 1
 218.495117188 303.416992188 l 1
 181.688476562 282.166992188 l 1
 155.33203125 282.46875 l 1
 83.0234375 75.873046875 l 1
 280.301757812 75.873046875 l 1
 307.885742188 108.172851562 l 1
 344.69140625 129.422851562 l 1
 365.94140625 92.6171875 l 1
 302.064453125 17.8173828125 l 1
EndSplineSet
Validated: 524289
EndChar

StartChar: currency
Encoding: 164 164 99
Width: 419
Flags: W
HStem: 203.787 58.0566<150.253 205.453> 376.449 58.0566<147.265 202.548>
VStem: 64.9844 58.0557<286.748 347.612> 228.669 58.0566<283.885 348.29>
LayerCount: 2
Fore
SplineSet
165.897460938 376.44921875 m 0
 159.412109375 376.44921875 153.842773438 375.741210938 148.163085938 374.369140625 c 0
 147.291992188 373.475585938 146.440429688 372.5625 145.608398438 371.62890625 c 2
 153.65234375 357.697265625 l 1
 128.69921875 343.290039062 l 1
 125.028320312 333.328125 123.040039062 322.586914062 123.040039062 311.596679688 c 0
 123.040039062 302.75390625 124.158203125 295.442382812 126.211914062 288.064453125 c 0
 126.537109375 287.732421875 126.865234375 287.40234375 127.1953125 287.075195312 c 2
 139.541992188 294.203125 l 1
 154.123046875 268.947265625 l 1
 164.806640625 264.364257812 176.567382812 261.84375 188.853515625 261.84375 c 0
 191.48828125 261.84375 193.954101562 261.955078125 196.334960938 262.1796875 c 1
 191.586914062 270.403320312 l 1
 221.815429688 287.85546875 l 1
 226.236328125 298.0859375 228.668945312 309.34375 228.668945312 320.962890625 c 0
 228.668945312 328.49609375 227.881835938 335.155273438 226.46875 341.568359375 c 1
 217.59765625 336.447265625 l 1
 198.640625 369.28125 l 1
 188.711914062 373.881835938 177.69140625 376.44921875 165.897460938 376.44921875 c 0
65.279296875 391.697265625 m 1
 44.029296875 428.502929688 l 1
 80.8349609375 449.752929688 l 1
 118.259765625 409.655273438 l 1
 144.026367188 424.53125 l 2
 155.01953125 430.87890625 167.068359375 434.505859375 181.453125 434.505859375 c 0
 201.991210938 434.505859375 220.186523438 426.719726562 234.348632812 413.967773438 c 1
 247.122070312 427.653320312 l 1
 283.927734375 448.903320312 l 1
 305.177734375 412.096679688 l 1
 265.184570312 369.247070312 l 1
 273.356445312 355.091796875 l 2
 281.66015625 340.709960938 286.725585938 324.634765625 286.725585938 305.407226562 c 0
 286.725585938 284.891601562 279.141601562 265.501953125 266.420898438 250.909179688 c 1
 284.720703125 231.302734375 l 1
 305.970703125 194.497070312 l 1
 269.165039062 173.247070312 l 1
 224.052734375 221.581054688 l 1
 210.107421875 213.529296875 l 2
 199.276367188 207.275390625 187.521484375 203.787109375 173.297851562 203.787109375 c 0
 155.3359375 203.787109375 138.498046875 209.173828125 124.505859375 218.518554688 c 1
 109.225585938 202.146484375 l 1
 72.419921875 180.896484375 l 1
 51.169921875 217.703125 l 1
 90.3916015625 259.727539062 l 1
 76.43359375 283.903320312 l 2
 69.1669921875 296.489257812 64.984375 310.000976562 64.984375 327.153320312 c 0
 64.984375 345.025390625 70.2412109375 362.240234375 79.4462890625 376.517578125 c 1
 65.279296875 391.697265625 l 1
EndSplineSet
Validated: 524289
EndChar

StartChar: yen
Encoding: 165 165 100
Width: 417
Flags: W
HStem: -89.6533 21G<299.521 357.578> 0.447266 58.0557<241.128 299.521 357.578 374.322> 85.4473 58.0557<241.979 299.521 357.578 375.172> 258.661 60.1377<221.015 299.521>
VStem: 2.02148 58.0566<482.561 598.847> 299.521 58.0566<-74.0967 0.447266 58.5029 85.4473 143.503 261.712 318.799 598.847>
LayerCount: 2
Fore
SplineSet
299.521484375 614.403320312 m 1
 336.328125 635.653320312 l 1
 357.578125 598.846679688 l 1
 357.578125 278.396484375 l 1
 357.578125 143.502929688 l 1
 390.728515625 143.502929688 l 1
 411.978515625 106.697265625 l 1
 375.171875 85.447265625 l 1
 357.578125 85.447265625 l 1
 357.578125 58.5029296875 l 1
 389.877929688 58.5029296875 l 1
 411.127929688 21.697265625 l 1
 374.322265625 0.447265625 l 1
 357.578125 0.447265625 l 1
 357.578125 -89.6533203125 l 1
 299.521484375 -74.0966796875 l 1
 299.521484375 0.447265625 l 1
 225.572265625 0.447265625 l 1
 204.322265625 37.2529296875 l 1
 241.127929688 58.5029296875 l 1
 299.521484375 58.5029296875 l 1
 299.521484375 85.447265625 l 1
 226.421875 85.447265625 l 1
 205.171875 122.252929688 l 1
 241.978515625 143.502929688 l 1
 299.521484375 143.502929688 l 1
 299.521484375 258.661132812 l 1
 250.727539062 264.047851562 129.918945312 288.584960938 65.42578125 400.290039062 c 2
 44.17578125 437.095703125 l 2
 18.7080078125 481.208007812 2.021484375 538.9140625 2.021484375 614.403320312 c 1
 38.828125 635.653320312 l 1
 60.078125 598.846679688 l 1
 60.078125 533.7109375 72.5009765625 481.814453125 92.26953125 440.466796875 c 1
 152.106445312 353.568359375 247.48828125 326.950195312 299.521484375 318.798828125 c 1
 299.521484375 614.403320312 l 1
EndSplineSet
Validated: 524289
EndChar

StartChar: brokenbar
Encoding: 166 166 101
Width: 122
Flags: W
HStem: -198.753 21G<8.2666 55.8632> 691.753 20G<2.13678 48.3255>
VStem: -0.0283203 58.0566<-165.947 212.797 332.053 674.947>
LayerCount: 2
Fore
SplineSet
58.0283203125 -177.502929688 m 1
 21.2216796875 -198.752929688 l 1
 -0.0283203125 -165.947265625 l 1
 -0.0283203125 228.353515625 l 1
 36.7783203125 249.603515625 l 1
 58.0283203125 212.796875 l 1
 58.0283203125 -177.502929688 l 1
58.0283203125 316.497070312 m 1
 21.2216796875 295.247070312 l 1
 -0.0283203125 332.052734375 l 1
 -0.0283203125 690.502929688 l 1
 36.7783203125 711.752929688 l 1
 58.0283203125 674.947265625 l 1
 58.0283203125 316.497070312 l 1
EndSplineSet
Validated: 524289
EndChar

StartChar: section
Encoding: 167 167 102
Width: 408
Flags: W
HStem: 70.3965 58.0566<180.726 298.62> 259.826 58.2979<208.541 298.62> 392.547 58.0566<58.6328 150.109 208.066 298.62> 494.547 58.0566<58.999 173.67>
VStem: -0.0371094 58.6699<450.604 494.547> 150.955 57.5859<318.124 392.547> 298.62 58.0557<128.453 260.675 318.642 392.547>
LayerCount: 2
Fore
SplineSet
150.109375 392.546875 m 1
 -0.037109375 392.546875 l 1
 1.296875 552.603515625 l 1
 189.225585938 552.603515625 l 1
 210.475585938 515.796875 l 1
 173.669921875 494.546875 l 1
 58.9990234375 494.546875 l 1
 58.6328125 450.603515625 l 1
 185.204101562 450.603515625 l 1
 186.67578125 451.453125 l 1
 187.166992188 450.603515625 l 1
 356.67578125 450.603515625 l 1
 356.67578125 282.046875 l 1
 356.67578125 70.396484375 l 1
 165.169921875 70.396484375 l 1
 143.919921875 107.203125 l 1
 180.725585938 128.453125 l 1
 298.620117188 128.453125 l 1
 298.620117188 260.674804688 l 1
 150.955078125 259.826171875 l 1
 150.109375 392.546875 l 1
298.620117188 318.641601562 m 1
 298.620117188 392.546875 l 1
 208.06640625 392.546875 l 1
 208.541015625 318.124023438 l 1
 298.620117188 318.641601562 l 1
EndSplineSet
Validated: 524289
EndChar

StartChar: dieresis
Encoding: 168 168 103
Width: 192
Flags: W
HStem: 444.275 54.4492<2.2381 51.7091 82.2381 131.709>
VStem: 1.31055 51.3789<444.669 497.947> 81.3105 51.3789<444.669 497.947>
LayerCount: 2
Fore
SplineSet
132.689453125 469.946289062 m 4
 132.689453125 461.569335938 128.377929688 453.739257812 121.677734375 449.87109375 c 6
 116.359375 446.799804688 l 6
 113.58203125 445.197265625 110.396484375 444.275390625 106.936523438 444.275390625 c 4
 98.51953125 444.275390625 91.369140625 448.861328125 87.4873046875 455.583984375 c 6
 84.4169921875 460.90234375 l 6
 82.4384765625 464.329101562 81.310546875 468.318359375 81.310546875 472.5625 c 4
 81.310546875 481.118164062 85.8935546875 488.814453125 92.7900390625 492.796875 c 6
 98.1083984375 495.8671875 l 6
 101.252929688 497.682617188 104.877929688 498.724609375 108.76953125 498.724609375 c 4
 116.459960938 498.724609375 122.618164062 494.369140625 126.209960938 488.1484375 c 6
 129.280273438 482.830078125 l 6
 131.46484375 479.045898438 132.689453125 474.567382812 132.689453125 469.946289062 c 4
52.689453125 469.946289062 m 4
 52.689453125 461.569335938 48.3779296875 453.739257812 41.677734375 449.87109375 c 6
 36.359375 446.799804688 l 6
 33.58203125 445.197265625 30.396484375 444.275390625 26.9365234375 444.275390625 c 4
 18.51953125 444.275390625 11.369140625 448.861328125 7.4873046875 455.583984375 c 6
 4.4169921875 460.90234375 l 6
 2.4384765625 464.329101562 1.310546875 468.318359375 1.310546875 472.5625 c 4
 1.310546875 481.118164062 5.8935546875 488.814453125 12.7900390625 492.796875 c 6
 18.1083984375 495.8671875 l 6
 21.2529296875 497.682617188 24.8779296875 498.724609375 28.76953125 498.724609375 c 4
 36.4599609375 498.724609375 42.6181640625 494.369140625 46.2099609375 488.1484375 c 6
 49.2802734375 482.830078125 l 6
 51.46484375 479.045898438 52.689453125 474.567382812 52.689453125 469.946289062 c 4
EndSplineSet
Validated: 524289
EndChar

StartChar: copyright
Encoding: 169 169 104
Width: 408
Flags: W
HStem: 122.978 58.0566<112.607 238.44> 441.953 58.0557<115.71 236.214>
VStem: -1.78711 58.0566<271.57 388.884> 295.729 58.0566<231.429 379.621>
LayerCount: 2
Fore
SplineSet
353.786132812 292.397460938 m 0
 353.786132812 237.790039062 323.990234375 188.592773438 279.545898438 162.93359375 c 2
 242.740234375 141.68359375 l 2
 222.177734375 129.811523438 198.479492188 122.977539062 173.146484375 122.977539062 c 0
 171.23046875 122.977539062 169.305664062 123.016601562 167.372070312 123.095703125 c 0
 112.729492188 125.28125 67.5703125 155.920898438 42.05859375 200.109375 c 2
 20.80859375 236.915039062 l 2
 6.375 261.915039062 -1.787109375 290.877929688 -1.787109375 322.243164062 c 0
 -1.787109375 379.99609375 28.365234375 435.043945312 74.7509765625 461.825195312 c 2
 111.557617188 483.075195312 l 2
 130.159179688 493.814453125 151.372070312 500.008789062 174.298828125 500.008789062 c 0
 176.032226562 500.008789062 177.775390625 499.973632812 179.528320312 499.90234375 c 0
 236.123046875 497.74609375 282.122070312 466.196289062 308.422851562 420.641601562 c 2
 329.672851562 383.834960938 l 2
 345.075195312 357.159179688 353.786132812 325.955078125 353.786132812 292.397460938 c 0
158.7421875 441.953125 m 0
 143.319335938 441.953125 128.670898438 439.149414062 115.072265625 434.044921875 c 1
 78.8828125 404.689453125 56.26953125 356.703125 56.26953125 306.6875 c 0
 56.26953125 294.245117188 57.5458984375 282.255859375 59.984375 270.727539062 c 1
 211.194335938 432.75 l 1
 248 454 l 1
 269.25 417.193359375 l 1
 167.482421875 308.260742188 l 1
 301.75 307.805664062 l 1
 323 271 l 1
 286.194335938 249.75 l 1
 65.9462890625 249.5 l 1
 67.0126953125 246.47265625 68.1630859375 243.48046875 69.39453125 240.524414062 c 0
 95.89453125 205.991210938 135.8984375 183.033203125 182.927734375 181.15234375 c 0
 184.861328125 181.073242188 186.787109375 181.034179688 188.702148438 181.034179688 c 0
 206.508789062 181.034179688 223.505859375 184.41015625 239.17578125 190.538085938 c 1
 273.659179688 217.96484375 295.729492188 260.956054688 295.729492188 307.954101562 c 0
 295.729492188 333.8359375 290.560546875 358.088867188 281.1640625 380.2265625 c 1
 253.95703125 416.12109375 212.928710938 439.981445312 163.971679688 441.845703125 c 0
 162.21875 441.91796875 160.475585938 441.953125 158.7421875 441.953125 c 0
EndSplineSet
Validated: 524293
EndChar

StartChar: ordfeminine
Encoding: 170 170 105
Width: 254
Flags: W
HStem: 498.758 21G<156.334 201.007> 659.408 52.25<52.2568 118.084>
VStem: 0.00585938 52.251<588.314 659.408> 148.756 52.251<531.884 622.103>
LayerCount: 2
Fore
SplineSet
0.005859375 461.452148438 m 1
 0.005859375 711.658203125 l 1
 181.881835938 711.658203125 l 1
 201.079101562 711.658203125 l 1
 201.006835938 678.533203125 l 1
 201.006835938 517.8828125 l 1
 167.880859375 498.7578125 l 1
 148.755859375 531.883789062 l 1
 148.755859375 622.102539062 l 1
 0.005859375 461.452148438 l 1
52.2568359375 588.314453125 m 1
 118.083984375 659.408203125 l 1
 52.2568359375 659.408203125 l 1
 52.2568359375 588.314453125 l 1
EndSplineSet
Validated: 524289
EndChar

StartChar: guillemotleft
Encoding: 171 171 106
Width: 294
Flags: W
HStem: 207.85 199.301
VStem: 0.0322266 247.241
LayerCount: 2
Fore
SplineSet
195.022460938 388.025390625 m 5
 228.1484375 407.150390625 l 5
 247.2734375 374.024414062 l 5
 174.763671875 310.674804688 l 5
 228.1484375 260.100585938 l 5
 247.2734375 226.974609375 l 5
 214.147460938 207.849609375 l 5
 106.032226562 310.275390625 l 5
 195.022460938 388.025390625 l 5
89.0224609375 388.025390625 m 5
 122.1484375 407.150390625 l 5
 141.2734375 374.024414062 l 5
 68.763671875 310.674804688 l 5
 122.1484375 260.100585938 l 5
 141.2734375 226.974609375 l 5
 108.147460938 207.849609375 l 5
 0.0322265625 310.275390625 l 5
 89.0224609375 388.025390625 l 5
EndSplineSet
Validated: 524289
EndChar

StartChar: logicalnot
Encoding: 172 172 107
Width: 412
Flags: W
HStem: 287.675 52.25<33.25 297.625>
VStem: 297.625 52.25<239.2 282.902>
LayerCount: 2
Fore
SplineSet
349.875 334.497070312 m 1
 349.875 225.200195312 l 1
 316.75 206.075195312 l 1
 297.625 239.200195312 l 1
 297.625 282.90234375 l 1
 19.25 287.674804688 l 1
 0.125 320.799804688 l 1
 33.25 339.924804688 l 1
 349.875 334.497070312 l 1
EndSplineSet
Validated: 524289
EndChar

StartChar: uni00AD
Encoding: 173 173 108
Width: 348
Flags: W
HStem: 282.896 58.0566<38.0283 250.972>
VStem: 1.22168 286.557
LayerCount: 2
Fore
SplineSet
22.4716796875 282.896484375 m 5
 1.2216796875 319.703125 l 5
 38.0283203125 340.953125 l 5
 266.528320312 340.103515625 l 5
 287.778320312 303.296875 l 5
 250.971679688 282.046875 l 5
 22.4716796875 282.896484375 l 5
EndSplineSet
Validated: 524289
EndChar

StartChar: macron
Encoding: 175 175 109
Width: 348
Flags: W
HStem: 654.896 58.0566<18.0283 350.972>
LayerCount: 2
Fore
SplineSet
2.4716796875 654.896484375 m 1
 -18.7783203125 691.703125 l 1
 18.0283203125 712.953125 l 1
 366.528320312 712.103515625 l 1
 387.778320312 675.296875 l 1
 350.971679688 654.046875 l 1
 2.4716796875 654.896484375 l 1
EndSplineSet
Validated: 524289
EndChar

StartChar: degree
Encoding: 176 176 110
Width: 120
Flags: W
HStem: 596.328 16.6719<46.0422 55.7814> 694 18.6719<55.0911 76.0764>
VStem: 1.9541 112.092<646.859 661.461>
LayerCount: 2
Fore
SplineSet
114.045898438 646.859375 m 0
 114.045898438 635.265625 108.079101562 624.427734375 98.8046875 619.073242188 c 0
 87.69140625 612.65625 76.5771484375 606.239257812 65.462890625 599.823242188 c 0
 61.6201171875 597.604492188 57.2109375 596.328125 52.421875 596.328125 c 0
 40.771484375 596.328125 30.875 602.67578125 25.5029296875 611.98046875 c 0
 19.0849609375 623.096679688 12.669921875 634.20703125 6.251953125 645.32421875 c 0
 3.513671875 650.065429688 1.9541015625 655.587890625 1.9541015625 661.4609375 c 0
 1.9541015625 673.302734375 8.296875 683.955078125 17.841796875 689.465820312 c 0
 28.9560546875 695.8828125 40.0693359375 702.299804688 51.18359375 708.715820312 c 0
 55.5361328125 711.228515625 60.5537109375 712.671875 65.939453125 712.671875 c 0
 76.5830078125 712.671875 85.1064453125 706.643554688 90.078125 698.034179688 c 0
 96.4951171875 686.919921875 102.912109375 675.806640625 109.328125 664.692382812 c 0
 112.3515625 659.454101562 114.045898438 653.254882812 114.045898438 646.859375 c 0
73.0654296875 657.83984375 m 0
 73.0654296875 657.83984375 85.8857421875 668.399414062 84 670 c 0
 79.3193359375 673.973632812 74.7529296875 694 68 694 c 0
 66.44921875 694 48.955078125 680.155273438 48 679 c 0
 43.3251953125 673.341796875 34 659 42.9345703125 650.48046875 c 0
 44.388671875 649.09375 41.9853515625 645.845703125 43.4677734375 644.591796875 c 0
 48.826171875 640.05859375 42.33203125 613 50 613 c 0
 50.951171875 613 60 628 66.2080078125 637.45703125 c 0
 70.0927734375 643.375976562 80 648 73.0654296875 657.83984375 c 0
EndSplineSet
Validated: 524321
EndChar

StartChar: plusminus
Encoding: 177 177 111
Width: 348
Flags: W
HStem: 124.896 58.0566<38.0283 250.972> 334.896 58.0566<38.0283 250.972> 478.778 20G<119.062 165.25>
VStem: 116.047 58.0566<249.028 461.972>
LayerCount: 2
Fore
SplineSet
22.4716796875 124.896484375 m 1
 1.2216796875 161.703125 l 1
 38.0283203125 182.953125 l 1
 266.528320312 182.103515625 l 1
 287.778320312 145.296875 l 1
 250.971679688 124.046875 l 1
 22.4716796875 124.896484375 l 1
174.103515625 233.471679688 m 1
 137.296875 212.221679688 l 1
 116.046875 249.028320312 l 1
 116.896484375 477.528320312 l 1
 153.703125 498.778320312 l 1
 174.953125 461.971679688 l 1
 174.103515625 233.471679688 l 1
22.4716796875 334.896484375 m 1
 1.2216796875 371.703125 l 1
 38.0283203125 392.953125 l 1
 266.528320312 392.103515625 l 1
 287.778320312 355.296875 l 1
 250.971679688 334.046875 l 1
 22.4716796875 334.896484375 l 1
EndSplineSet
Validated: 524293
EndChar

StartChar: registered
Encoding: 174 174 112
Width: 400
Flags: W
HStem: 126 52.5273<174.574 236.295> 444.718 52.2822<155.287 237.006>
VStem: 0.125 52.25<239.291 391.427> 113.488 50.9873<379.813 431.575> 297.625 52.25<234.097 382.856>
LayerCount: 2
Fore
SplineSet
176.049804688 497 m 0
 233.442382812 495.885742188 281.337890625 464.454101562 308.00390625 418.268554688 c 2
 327.12890625 385.142578125 l 2
 341.139648438 360.874023438 349.290039062 332.532226562 349.875 302.375 c 0
 351.041015625 244.092773438 320.236328125 191.005859375 273.35546875 163.938476562 c 2
 240.229492188 144.813476562 l 2
 218.73828125 132.405273438 193.868164062 125.465820312 167.149414062 126 c 0
 112.807617188 127.076171875 68.6826171875 157.782226562 43.1826171875 201.94921875 c 2
 24.0576171875 235.075195312 l 2
 9.2724609375 260.68359375 0.7490234375 290.817382812 0.125 322.325195312 c 0
 -1.0625 379.88671875 28.822265625 433.719726562 75.0283203125 460.396484375 c 2
 108.153320312 479.521484375 l 2
 128.131835938 491.055664062 151.162109375 497.513671875 176.049804688 497 c 0
162.049804688 444.75 m 0
 159.780273438 444.796875 157.525390625 444.78515625 155.287109375 444.717773438 c 1
 162.875 431.575195312 l 1
 164.475585938 379.813476562 l 1
 259.875 422.125 l 1
 279 389 l 1
 245.875 369.875 l 1
 165.993164062 334.307617188 l 1
 174.57421875 178.52734375 l 2
 176.749023438 178.38671875 178.94140625 178.293945312 181.150390625 178.25 c 0
 201.03515625 177.852539062 219.896484375 181.594726562 237.102539062 188.650390625 c 1
 274.852539062 217.690429688 298.65234375 265.015625 297.625 316.375 c 0
 297.172851562 339.672851562 292.206054688 361.88671875 283.509765625 381.9765625 c 1
 255.708984375 419.30859375 212.556640625 443.768554688 162.049804688 444.75 c 0
110.94140625 435.319335938 m 1
 74.1689453125 406.372070312 51.3349609375 358.78125 52.375 308.325195312 c 0
 52.8642578125 283.626953125 58.20703125 259.7734375 67.615234375 238.282226562 c 1
 82.087890625 218.741210938 100.642578125 202.797851562 122.337890625 192.259765625 c 1
 113.48828125 352.924804688 l 1
 110.94140625 435.319335938 l 1
EndSplineSet
Validated: 524325
EndChar

StartChar: uni00B2
Encoding: 178 178 113
Width: 246
Flags: W
HStem: 502.9 52.25<106.164 161.475> 661.85 52.251<64.6035 145.75>
VStem: 145.75 50.5498<615.936 661.85>
LayerCount: 2
Fore
SplineSet
145.75 661.849609375 m 5
 64.603515625 661.849609375 l 5
 49.25 640.174804688 l 5
 16.125 621.049804688 l 5
 -3 654.174804688 l 5
 25.8994140625 694.975585938 l 5
 59.025390625 714.100585938 l 5
 178.875 714.100585938 l 5
 198 680.974609375 l 5
 196.299804688 600.224609375 l 5
 155.525390625 581.099609375 l 5
 106.1640625 555.150390625 l 5
 175.474609375 555.150390625 l 5
 194.599609375 522.025390625 l 5
 161.474609375 502.900390625 l 5
 -0.875 502.900390625 l 5
 13.125 555.150390625 l 5
 145.75 615.935546875 l 5
 145.75 661.849609375 l 5
EndSplineSet
Validated: 524289
EndChar

StartChar: uni00B3
Encoding: 179 179 114
Width: 298
Flags: W
HStem: 504.75 21G<7.40693 52.0791> 662 52.25<32.9541 62.3818>
VStem: -0.170898 244.398
LayerCount: 2
Fore
SplineSet
125.129882812 662.400390625 m 5
 244.227539062 662.400390625 l 5
 52.0791015625 523.875 l 5
 18.9541015625 504.75 l 5
 -0.1708984375 537.875 l 5
 100.081054688 610.149414062 l 5
 24.5849609375 610.149414062 l 5
 37.18359375 627.432617188 49.783203125 644.716796875 62.3818359375 662 c 5
 18.9541015625 662 l 5
 -0.1708984375 695.125 l 5
 32.9541015625 714.25 l 5
 162.926757812 714.25 l 5
 150.328125 696.966796875 137.728515625 679.68359375 125.129882812 662.400390625 c 5
EndSplineSet
Validated: 524289
EndChar

StartChar: acute
Encoding: 180 180 115
Width: 134
Flags: W
LayerCount: 2
Fore
SplineSet
66.154296875 568.491210938 m 5
 34.5546875 578 l 5
 -1.861328125 543.73828125 l 5
 -0.7021484375 440.005859375 l 5
 24.009765625 451.680664062 l 5
 100.416015625 532.075195312 l 5
 66.154296875 568.491210938 l 5
EndSplineSet
Validated: 524297
EndChar

StartChar: mu
Encoding: 181 181 116
Width: 416
Flags: W
LayerCount: 2
Fore
SplineSet
0.2216796875 19.0419921875 m 1
 37.0283203125 -2.2080078125 l 1
 52.2783203125 34.59765625 l 1
 52.2783203125 212.680664062 l 1
 349.778320312 123.630859375 l 1
 349.778320312 479.047851562 l 1
 316.971679688 500.297851562 l 1
 295.721679688 463.491210938 l 1
 295.721679688 188.408203125 l 1
 52.2783203125 265.71484375 l 1
 52.2783203125 479.047851562 l 1
 21.4716796875 500.297851562 l 1
 0.2216796875 463.491210938 l 1
 0.2216796875 240.791992188 l 1
 0.2216796875 231.424804688 l 1
 0.2216796875 19.0419921875 l 1
EndSplineSet
Validated: 524297
EndChar

StartChar: paragraph
Encoding: 182 182 117
Width: 518
Flags: W
HStem: -198.928 21G<409.948 456.137> 479.928 20G<403.997 450.185>
VStem: 291.722 58.0566<143.222 202.65> 400.245 58.0566<-162.122 463.122>
LayerCount: 2
Fore
SplineSet
401.83203125 478.677734375 m 1
 438.637695312 499.927734375 l 1
 459.887695312 463.122070312 l 1
 458.301757812 -177.677734375 l 1
 421.495117188 -198.927734375 l 1
 400.245117188 -162.122070312 l 1
 401.83203125 478.677734375 l 1
291.721679688 143.221679688 m 2
 291.721679688 -175.528320312 l 1
 328.528320312 -196.778320312 l 1
 349.778320312 -159.971679688 l 1
 349.778320312 158.778320312 l 2
 349.778320312 196.525390625 336.10546875 218.422851562 313.27734375 231.602539062 c 2
 309.526475549 239.086011345 287.264563581 249.463111996 276.470703125 252.852539062 c 2
 255.982421875 264.681640625 233.92578125 269.293945312 205.010742188 275.291992188 c 0
 178.646484375 280.760742188 150.737304688 291.549804688 124.854492188 302.6640625 c 1
 91.3154296875 328.4765625 65.8984375 365.969726562 59.7216796875 440.721679688 c 1
 291.721679688 440.721679688 l 1
 291.721679688 306.421875 l 1
 328.528320312 285.171875 l 1
 349.778320312 321.978515625 l 1
 349.778320312 498.778320312 l 1
 0.2216796875 498.778320312 l 1
 0.2216796875 461.971679688 l 2
 0.2216796875 349.846679688 36.6455078125 297.970703125 84.001953125 270.629882812 c 2
 120.80859375 249.379882812 l 2
 151.762695312 231.5078125 187.387695312 224.118164062 220.56640625 217.235351562 c 0
 240.438476562 213.11328125 253.43359375 209.173828125 270.020507812 203.272460938 c 1
 283.592773438 190.081054688 291.721679688 171.319335938 291.721679688 143.221679688 c 2
EndSplineSet
Validated: 524297
EndChar

StartChar: periodcentered
Encoding: 183 183 118
Width: 108
Flags: W
HStem: 287.275 54.4492<2.2381 51.7091>
VStem: 1.31055 51.3789<287.669 340.947>
LayerCount: 2
Fore
SplineSet
52.689453125 312.946289062 m 4
 52.689453125 304.569335938 48.3779296875 296.739257812 41.677734375 292.87109375 c 6
 36.359375 289.799804688 l 6
 33.58203125 288.197265625 30.396484375 287.275390625 26.9365234375 287.275390625 c 4
 18.51953125 287.275390625 11.369140625 291.861328125 7.4873046875 298.583984375 c 6
 4.4169921875 303.90234375 l 6
 2.4384765625 307.329101562 1.310546875 311.318359375 1.310546875 315.5625 c 4
 1.310546875 324.118164062 5.8935546875 331.814453125 12.7900390625 335.796875 c 6
 18.1083984375 338.8671875 l 6
 21.2529296875 340.682617188 24.8779296875 341.724609375 28.76953125 341.724609375 c 4
 36.4599609375 341.724609375 42.6181640625 337.369140625 46.2099609375 331.1484375 c 6
 49.2802734375 325.830078125 l 6
 51.46484375 322.045898438 52.689453125 317.567382812 52.689453125 312.946289062 c 4
EndSplineSet
Validated: 524289
EndChar

StartChar: cedilla
Encoding: 184 184 119
Width: 350
Flags: W
HStem: -197.66 27.3203<122.66 186.557> -164.492 21G<110.606 125.402> -68.3398 20G<179.34 206.66>
LayerCount: 2
Fore
SplineSet
115.33984375 -197.66015625 m 5
 105.33984375 -180.33984375 l 5
 122.66015625 -170.33984375 l 5
 146.180664062 -170.33984375 168.512695312 -171.029296875 187.447265625 -163.786132812 c 4
 190.986328125 -160.852539062 194.293945312 -157.400390625 197.33984375 -153.33984375 c 4
 205.796875 -142.063476562 206.354492188 -132.576171875 202.552734375 -122.49609375 c 5
 190.880859375 -110.150390625 171.200195312 -115.795898438 157.529296875 -122.142578125 c 6
 96.65234375 -164.4921875 l 5
 132.33984375 -113.33984375 l 5
 132.33984375 -113.33984375 162.33984375 -70.33984375 179.33984375 -58.33984375 c 6
 196.66015625 -48.33984375 l 5
 206.66015625 -65.66015625 l 5
 200.251953125 -70.18359375 191.998046875 -79.111328125 184.198242188 -88.48046875 c 5
 195.219726562 -86.638671875 206.298828125 -88.4599609375 213.060546875 -99.33984375 c 4
 217.291015625 -106.147460938 221.165039062 -113.234375 225.185546875 -120.197265625 c 4
 233.260742188 -134.184570312 235.739257812 -145.887695312 224.66015625 -160.66015625 c 4
 219.390625 -167.686523438 213.333984375 -172.889648438 206.661132812 -176.7421875 c 6
 189.340820312 -186.7421875 l 6
 168.80078125 -198.600585938 142.939453125 -197.66015625 115.33984375 -197.66015625 c 5
EndSplineSet
Validated: 524321
EndChar

StartChar: uni00B9
Encoding: 185 185 120
Width: 152
Flags: W
HStem: 476.282 238.201
VStem: 44.0498 52.25<528.532 601.618>
LayerCount: 2
Fore
SplineSet
44.0498046875 528.532226562 m 5
 44.0498046875 601.618164062 l 5
 19.8251953125 587.631835938 l 5
 0.7001953125 620.7578125 l 5
 96.2998046875 714.483398438 l 5
 96.2998046875 476.282226562 l 5
 19.8251953125 476.282226562 l 5
 0.7001953125 509.407226562 l 5
 33.8251953125 528.532226562 l 5
 44.0498046875 528.532226562 l 5
EndSplineSet
Validated: 524289
EndChar

StartChar: guillemotright
Encoding: 187 187 121
Width: 294
Flags: W
LayerCount: 2
Fore
SplineSet
52.283203125 388.025390625 m 1
 19.1572265625 407.150390625 l 1
 0.0322265625 374.024414062 l 1
 72.5419921875 310.674804688 l 1
 19.1572265625 260.100585938 l 1
 0.0322265625 226.974609375 l 1
 33.158203125 207.849609375 l 1
 141.2734375 310.275390625 l 1
 52.283203125 388.025390625 l 1
158.283203125 388.025390625 m 1
 125.157226562 407.150390625 l 1
 106.032226562 374.024414062 l 1
 178.541992188 310.674804688 l 1
 125.157226562 260.100585938 l 1
 106.032226562 226.974609375 l 1
 139.158203125 207.849609375 l 1
 247.2734375 310.275390625 l 1
 158.283203125 388.025390625 l 1
EndSplineSet
Validated: 524297
EndChar

StartChar: onequarter
Encoding: 188 188 122
Width: 350
Flags: W
HStem: 408.175 52.25<224.42 247.305> 478.675 20G<177.377 222.049> 692.633 20G<75.8999 96.2998 269.875 315.91>
VStem: 44.0498 52.25<528.532 601.618> 176.84 122.715<408.175 460.425> 247.305 52.25<364.8 408.175 460.425 563.2>
LayerCount: 2
Fore
SplineSet
269.875 703.047851562 m 5xf0
 311.280273438 712.6328125 l 5
 320.865234375 671.227539062 l 5
 81.806640625 355.104492188 l 5
 39.3193359375 354.07421875 l 5
 38.2880859375 396.5625 l 5
 269.875 703.047851562 l 5xf0
44.0498046875 528.532226562 m 1
 44.0498046875 601.618164062 l 1
 19.8251953125 587.631835938 l 1
 0.7001953125 620.7578125 l 1
 96.2998046875 714.483398438 l 1
 96.2998046875 476.282226562 l 1
 19.8251953125 476.282226562 l 1
 0.7001953125 509.407226562 l 1
 33.8251953125 528.532226562 l 1
 44.0498046875 528.532226562 l 1
176.83984375 408.174804688 m 5xf8
 177.376953125 479.549804688 l 5
 210.501953125 498.674804688 l 5
 229.626953125 465.549804688 l 5
 224.419921875 460.424804688 l 5
 247.3046875 460.424804688 l 5
 247.3046875 577.200195312 l 5
 280.4296875 596.325195312 l 5
 299.5546875 563.200195312 l 5xf4
 299.5546875 427.299804688 l 5xf8
 299.5546875 350.799804688 l 5
 266.4296875 331.674804688 l 5
 247.3046875 364.799804688 l 5
 247.3046875 408.174804688 l 5xf4
 176.83984375 408.174804688 l 5xf8
EndSplineSet
Validated: 524293
EndChar

StartChar: onehalf
Encoding: 189 189 123
Width: 350
Flags: W
HStem: 352.9 52.25<306.164 361.475> 511.85 52.251<264.604 345.75> 692.633 20G<75.8999 96.2998 269.875 315.91>
VStem: 44.0498 52.25<528.532 601.618> 345.75 50.5498<465.936 511.85>
LayerCount: 2
Fore
SplineSet
345.75 511.849609375 m 1
 264.603515625 511.849609375 l 1
 249.25 490.174804688 l 1
 216.125 471.049804688 l 1
 197 504.174804688 l 1
 225.899414062 544.975585938 l 1
 259.025390625 564.100585938 l 1
 378.875 564.100585938 l 1
 398 530.974609375 l 1
 396.299804688 450.224609375 l 1
 355.525390625 431.099609375 l 1
 306.1640625 405.150390625 l 1
 375.474609375 405.150390625 l 1
 394.599609375 372.025390625 l 1
 361.474609375 352.900390625 l 1
 199.125 352.900390625 l 1
 213.125 405.150390625 l 1
 345.75 465.935546875 l 1
 345.75 511.849609375 l 1
269.875 703.047851562 m 1
 311.280273438 712.6328125 l 1
 320.865234375 671.227539062 l 1
 81.806640625 355.104492188 l 1
 39.3193359375 354.07421875 l 1
 38.2880859375 396.5625 l 1
 269.875 703.047851562 l 1
44.0498046875 528.532226562 m 1
 44.0498046875 601.618164062 l 1
 19.8251953125 587.631835938 l 1
 0.7001953125 620.7578125 l 1
 96.2998046875 714.483398438 l 1
 96.2998046875 476.282226562 l 1
 19.8251953125 476.282226562 l 1
 0.7001953125 509.407226562 l 1
 33.8251953125 528.532226562 l 1
 44.0498046875 528.532226562 l 1
EndSplineSet
Validated: 524289
EndChar

StartChar: threequarters
Encoding: 190 190 124
Width: 350
Flags: W
HStem: 408.175 52.25<224.42 247.305> 478.675 20G<177.377 222.049> 615 52.25<33.9541 63.3818> 692.633 20G<269.875 315.91>
VStem: 176.84 122.715<408.175 460.425> 247.305 52.25<364.8 408.175 460.425 563.2>
LayerCount: 2
Fore
SplineSet
126.129882812 615.400390625 m 1xf0
 245.227539062 615.400390625 l 1
 53.0791015625 476.875 l 1
 19.9541015625 457.75 l 1
 0.8291015625 490.875 l 1
 101.081054688 563.149414062 l 1
 25.5849609375 563.149414062 l 1
 38.18359375 580.432617188 50.783203125 597.716796875 63.3818359375 615 c 1
 19.9541015625 615 l 1
 0.8291015625 648.125 l 1
 33.9541015625 667.25 l 1
 163.926757812 667.25 l 1
 151.328125 649.966796875 138.728515625 632.68359375 126.129882812 615.400390625 c 1xf0
269.875 703.047851562 m 1
 311.280273438 712.6328125 l 1
 320.865234375 671.227539062 l 1
 81.806640625 355.104492188 l 1
 39.3193359375 354.07421875 l 1
 38.2880859375 396.5625 l 1
 269.875 703.047851562 l 1
176.83984375 408.174804688 m 1xf8
 177.376953125 479.549804688 l 1
 210.501953125 498.674804688 l 1
 229.626953125 465.549804688 l 1
 224.419921875 460.424804688 l 1
 247.3046875 460.424804688 l 1
 247.3046875 577.200195312 l 1
 280.4296875 596.325195312 l 1
 299.5546875 563.200195312 l 1xf4
 299.5546875 427.299804688 l 1xf8
 299.5546875 350.799804688 l 1
 266.4296875 331.674804688 l 1
 247.3046875 364.799804688 l 1
 247.3046875 408.174804688 l 1xf4
 176.83984375 408.174804688 l 1xf8
EndSplineSet
Validated: 524293
EndChar

StartChar: questiondown
Encoding: 191 191 125
Width: 429
Flags: W
HStem: -138.182 58.0566<64.2012 295.444> -31.2754 20G<297.609 343.798> 424.24 75.3633<300.336 361.629>
VStem: 295.417 71.1113<429.085 495.521> 295.444 58.0566<-80.125 -48.0811 239.827 344.219>
LayerCount: 2
Fore
SplineSet
295.416992188 464.072265625 m 0xf0
 295.416992188 475.666015625 301.383789062 486.50390625 310.658203125 491.858398438 c 2
 318.018554688 496.108398438 l 2
 321.861328125 498.327148438 326.271484375 499.603515625 331.060546875 499.603515625 c 0
 342.7109375 499.603515625 352.607421875 493.255859375 357.979492188 483.951171875 c 2
 362.229492188 476.58984375 l 2
 364.967773438 471.84765625 366.528320312 466.325195312 366.528320312 460.451171875 c 0
 366.528320312 448.609375 360.185546875 437.95703125 350.640625 432.446289062 c 2
 343.279296875 428.196289062 l 2
 338.926757812 425.68359375 333.909179688 424.240234375 328.5234375 424.240234375 c 0
 317.879882812 424.240234375 309.356445312 430.268554688 304.384765625 438.877929688 c 2
 300.134765625 446.239257812 l 2
 297.111328125 451.477539062 295.416992188 457.676757812 295.416992188 464.072265625 c 0xf0
0.4443359375 -138.181640625 m 1
 0.4443359375 -101.375 l 2
 0.4443359375 -30.330078125 58.0166015625 26.6259765625 122.5078125 71.384765625 c 0
 204.618164062 128.37109375 297.944335938 213.142578125 297.944335938 359.775390625 c 1
 334.750976562 381.025390625 l 1
 356.000976562 344.21875 l 1
 356.000976562 197.586914062 262.673828125 112.815429688 180.563476562 55.8291015625 c 0
 128.124023438 19.4345703125 80.259765625 -30.78515625 64.201171875 -80.125 c 1
 295.444335938 -80.125 l 1
 295.444335938 -32.525390625 l 1
 332.250976562 -11.275390625 l 1
 353.500976562 -48.0810546875 l 1
 353.500976562 -116.931640625 l 1xe8
 316.694335938 -138.181640625 l 1
 0.4443359375 -138.181640625 l 1
EndSplineSet
Validated: 524289
EndChar

StartChar: Agrave
Encoding: 192 192 126
Width: 399
VWidth: 998
Flags: W
HStem: -159.862 249G<8.92454 55.1132 308.425 348.966> 695 20G<161.4 214.258>
VStem: 298.722 52.0566<-144.057 444.196>
LayerCount: 2
Fore
SplineSet
161.400390625 705.491210938 m 5
 193 715 l 5
 229.416015625 680.73828125 l 5
 228.256835938 577.005859375 l 5
 203.544921875 588.680664062 l 5
 127.138671875 669.075195312 l 5
 161.400390625 705.491210938 l 5
348.842773438 615.734375 m 1
 350.778320312 -159.612304688 l 1
 319.971679688 -180.862304688 l 1
 298.721679688 -144.056640625 l 1
 297.483398438 444.196289062 l 1
 57.2783203125 110.387695312 l 1
 20.4716796875 89.1376953125 l 1
 -0.7783203125 125.943359375 l 1
 348.842773438 615.734375 l 1
EndSplineSet
Validated: 524289
EndChar

StartChar: Aacute
Encoding: 193 193 127
Width: 399
VWidth: 998
Flags: W
HStem: -159.862 249G<8.92454 55.1132 308.425 348.966>
VStem: 298.722 52.0566<-144.057 444.196>
LayerCount: 2
Fore
SplineSet
226.154296875 704.491210938 m 5
 194.5546875 714 l 5
 158.138671875 679.73828125 l 5
 159.297851562 576.005859375 l 5
 184.009765625 587.680664062 l 5
 260.416015625 668.075195312 l 5
 226.154296875 704.491210938 l 5
348.842773438 615.734375 m 1
 350.778320312 -159.612304688 l 1
 319.971679688 -180.862304688 l 1
 298.721679688 -144.056640625 l 1
 297.483398438 444.196289062 l 1
 57.2783203125 110.387695312 l 1
 20.4716796875 89.1376953125 l 1
 -0.7783203125 125.943359375 l 1
 348.842773438 615.734375 l 1
EndSplineSet
Validated: 524297
EndChar

StartChar: Acircumflex
Encoding: 194 194 128
Width: 399
VWidth: 998
Flags: W
HStem: -159.862 249G<8.92454 55.1132 308.425 348.966>
VStem: 298.722 52.0566<-144.057 444.196>
LayerCount: 2
Fore
SplineSet
192.034179688 637.549804688 m 5
 148.637695312 589.618164062 l 5
 111.83203125 568.368164062 l 5
 90.58203125 605.173828125 l 5
 190.326171875 715.341796875 l 5
 272.568359375 621.32421875 l 5
 293.818359375 584.517578125 l 5
 257.01171875 563.267578125 l 5
 192.034179688 637.549804688 l 5
348.842773438 615.734375 m 1
 350.778320312 -159.612304688 l 1
 319.971679688 -180.862304688 l 1
 298.721679688 -144.056640625 l 1
 297.483398438 444.196289062 l 1
 57.2783203125 110.387695312 l 1
 20.4716796875 89.1376953125 l 1
 -0.7783203125 125.943359375 l 1
 348.842773438 615.734375 l 1
EndSplineSet
Validated: 524289
EndChar

StartChar: Atilde
Encoding: 195 195 129
Width: 399
VWidth: 998
Flags: W
HStem: -159.862 249G<8.92454 55.1132 308.425 348.966> 694.475 20G<139.067 201.8>
VStem: 298.722 52.0566<-144.057 444.196>
LayerCount: 2
Fore
SplineSet
24.11328125 506.642578125 m 0
 29.3349609375 531.3671875 47.958984375 543.524414062 66.1748046875 549.467773438 c 2
 106.577148438 562.653320312 l 2
 126.961914062 569.305664062 146.834960938 568.177734375 146.834960938 568.177734375 c 1
 146.834960938 568.177734375 150.473632812 568.668945312 156.333984375 569.90625 c 0
 176.603515625 579.376953125 196.41796875 594.333007812 201.287109375 617.383789062 c 0
 201.912109375 620.346679688 202.26953125 623.131835938 202.44921875 625.890625 c 0
 183.828125 649.703125 152.252929688 660.885742188 152.252929688 660.885742188 c 1
 139.067382812 701.2890625 l 1
 179.471679688 714.474609375 l 1
 179.471679688 714.474609375 228.108398438 697.247070312 240.254882812 660.029296875 c 2
 253.440429688 619.625976562 l 2
 256.2734375 610.944335938 257.206054688 601.200195312 254.875976562 590.166015625 c 0
 248.447265625 559.73046875 215.962890625 543.408203125 190.779296875 535.189453125 c 2
 150.375976562 522.004882812 l 2
 133.323242188 516.438476562 119.616210938 514.58984375 119.616210938 514.58984375 c 1
 119.616210938 514.58984375 112.12109375 515.014648438 101.614257812 513.802734375 c 1
 90.44921875 506.60546875 81.1513671875 495.7578125 77.7021484375 479.424804688 c 0
 76.55859375 474.010742188 76.1083984375 468.751953125 76.2314453125 463.669921875 c 0
 92.015625 438.821289062 116.330078125 423.747070312 116.330078125 423.747070312 c 1
 129.515625 383.34375 l 1
 89.1123046875 370.159179688 l 1
 89.1123046875 370.159179688 51.3203125 393.588867188 39.37890625 430.1796875 c 2
 26.193359375 470.58203125 l 2
 22.625 481.518554688 21.365234375 493.629882812 24.11328125 506.642578125 c 0
348.842773438 615.734375 m 1
 350.778320312 -159.612304688 l 1
 319.971679688 -180.862304688 l 1
 298.721679688 -144.056640625 l 1
 297.483398438 444.196289062 l 1
 57.2783203125 110.387695312 l 1
 20.4716796875 89.1376953125 l 1
 -0.7783203125 125.943359375 l 1
 348.842773438 615.734375 l 1
EndSplineSet
Validated: 524321
EndChar

StartChar: Adieresis
Encoding: 196 196 130
Width: 399
VWidth: 998
Flags: W
HStem: -159.862 249G<8.92454 55.1132 308.425 348.966> 658.275 54.4492<134.238 183.709 214.238 263.709>
VStem: 133.311 51.3789<658.669 711.947> 213.311 51.3789<658.669 711.947> 298.722 52.0566<-144.057 444.196>
LayerCount: 2
Fore
SplineSet
264.689453125 683.946289062 m 4
 264.689453125 675.569335938 260.377929688 667.739257812 253.677734375 663.87109375 c 6
 248.359375 660.799804688 l 6
 245.58203125 659.197265625 242.396484375 658.275390625 238.936523438 658.275390625 c 4
 230.51953125 658.275390625 223.369140625 662.861328125 219.487304688 669.583984375 c 6
 216.416992188 674.90234375 l 6
 214.438476562 678.329101562 213.310546875 682.318359375 213.310546875 686.5625 c 4
 213.310546875 695.118164062 217.893554688 702.814453125 224.790039062 706.796875 c 6
 230.108398438 709.8671875 l 6
 233.252929688 711.682617188 236.877929688 712.724609375 240.76953125 712.724609375 c 4
 248.459960938 712.724609375 254.618164062 708.369140625 258.209960938 702.1484375 c 6
 261.280273438 696.830078125 l 6
 263.46484375 693.045898438 264.689453125 688.567382812 264.689453125 683.946289062 c 4
184.689453125 683.946289062 m 4
 184.689453125 675.569335938 180.377929688 667.739257812 173.677734375 663.87109375 c 6
 168.359375 660.799804688 l 6
 165.58203125 659.197265625 162.396484375 658.275390625 158.936523438 658.275390625 c 4
 150.51953125 658.275390625 143.369140625 662.861328125 139.487304688 669.583984375 c 6
 136.416992188 674.90234375 l 6
 134.438476562 678.329101562 133.310546875 682.318359375 133.310546875 686.5625 c 4
 133.310546875 695.118164062 137.893554688 702.814453125 144.790039062 706.796875 c 6
 150.108398438 709.8671875 l 6
 153.252929688 711.682617188 156.877929688 712.724609375 160.76953125 712.724609375 c 4
 168.459960938 712.724609375 174.618164062 708.369140625 178.209960938 702.1484375 c 6
 181.280273438 696.830078125 l 6
 183.46484375 693.045898438 184.689453125 688.567382812 184.689453125 683.946289062 c 4
348.842773438 615.734375 m 1
 350.778320312 -159.612304688 l 1
 319.971679688 -180.862304688 l 1
 298.721679688 -144.056640625 l 1
 297.483398438 444.196289062 l 1
 57.2783203125 110.387695312 l 1
 20.4716796875 89.1376953125 l 1
 -0.7783203125 125.943359375 l 1
 348.842773438 615.734375 l 1
EndSplineSet
Validated: 524289
EndChar

StartChar: Aring
Encoding: 197 197 131
Width: 399
VWidth: 998
Flags: W
HStem: -159.862 249G<8.92454 55.1132 308.425 348.966> 596.328 40.9805<183.395 209.461> 671.691 40.9805<186.923 212.564>
VStem: 141.954 40.9805<641.095 671.332> 213.065 40.9805<637.541 668.321> 298.722 52.0566<-144.057 444.196>
LayerCount: 2
Fore
SplineSet
254.045898438 646.859375 m 4
 254.045898438 635.265625 248.079101562 624.427734375 238.8046875 619.073242188 c 4
 227.69140625 612.65625 216.577148438 606.239257812 205.462890625 599.823242188 c 4
 201.620117188 597.604492188 197.2109375 596.328125 192.421875 596.328125 c 4
 180.771484375 596.328125 170.875 602.67578125 165.502929688 611.98046875 c 4
 159.084960938 623.096679688 152.669921875 634.20703125 146.251953125 645.32421875 c 4
 143.513671875 650.065429688 141.954101562 655.587890625 141.954101562 661.4609375 c 4
 141.954101562 673.302734375 148.296875 683.955078125 157.841796875 689.465820312 c 4
 168.956054688 695.8828125 180.069335938 702.299804688 191.18359375 708.715820312 c 4
 195.536132812 711.228515625 200.553710938 712.671875 205.939453125 712.671875 c 4
 216.583007812 712.671875 225.106445312 706.643554688 230.078125 698.034179688 c 4
 236.495117188 686.919921875 242.912109375 675.806640625 249.328125 664.692382812 c 4
 252.3515625 659.454101562 254.045898438 653.254882812 254.045898438 646.859375 c 4
213.065429688 657.83984375 m 4
 213.065429688 660.370117188 212.799804688 662.870117188 212.291992188 665.291015625 c 4
 207.611328125 669.264648438 201.711914062 671.69140625 194.958984375 671.69140625 c 4
 193.408203125 671.69140625 191.888671875 671.571289062 190.407226562 671.341796875 c 4
 185.732421875 665.68359375 182.934570312 658.344726562 182.934570312 650.48046875 c 4
 182.934570312 648.470703125 183.1171875 646.501953125 183.467773438 644.591796875 c 4
 188.826171875 640.05859375 195.734375 637.30859375 203.40234375 637.30859375 c 4
 204.353515625 637.30859375 205.2890625 637.359375 206.208007812 637.45703125 c 4
 210.53515625 643.060546875 213.065429688 650.290039062 213.065429688 657.83984375 c 4
348.842773438 615.734375 m 1
 350.778320312 -159.612304688 l 1
 319.971679688 -180.862304688 l 1
 298.721679688 -144.056640625 l 1
 297.483398438 444.196289062 l 1
 57.2783203125 110.387695312 l 1
 20.4716796875 89.1376953125 l 1
 -0.7783203125 125.943359375 l 1
 348.842773438 615.734375 l 1
EndSplineSet
Validated: 524289
EndChar

StartChar: Ccedilla
Encoding: 199 199 132
Width: 272
Flags: W
HStem: -197.66 27.3203<122.66 186.557> -164.492 21G<110.606 125.402> -77.7783 58.0566<58.0283 361.222> -68.3398 20G<179.34 206.66> 440.722 58.0566<58.0283 166.572>
VStem: -0.0283203 58.0566<-19.7217 440.722>
LayerCount: 2
Fore
SplineSet
115.33984375 -197.66015625 m 1xdc
 105.33984375 -180.33984375 l 1
 122.66015625 -170.33984375 l 1
 146.180664062 -170.33984375 168.512695312 -171.029296875 187.447265625 -163.786132812 c 0
 190.986328125 -160.852539062 194.293945312 -157.400390625 197.33984375 -153.33984375 c 0
 205.796875 -142.063476562 206.354492188 -132.576171875 202.552734375 -122.49609375 c 1
 190.880859375 -110.150390625 171.200195312 -115.795898438 157.529296875 -122.142578125 c 2
 96.65234375 -164.4921875 l 1
 132.33984375 -113.33984375 l 1
 132.33984375 -113.33984375 162.33984375 -70.33984375 179.33984375 -58.33984375 c 2
 196.66015625 -48.33984375 l 1
 206.66015625 -65.66015625 l 1
 200.251953125 -70.18359375 191.998046875 -79.111328125 184.198242188 -88.48046875 c 1
 195.219726562 -86.638671875 206.298828125 -88.4599609375 213.060546875 -99.33984375 c 0
 217.291015625 -106.147460938 221.165039062 -113.234375 225.185546875 -120.197265625 c 0
 233.260742188 -134.184570312 235.739257812 -145.887695312 224.66015625 -160.66015625 c 0
 219.390625 -167.686523438 213.333984375 -172.889648438 206.661132812 -176.7421875 c 2
 189.340820312 -186.7421875 l 2
 168.80078125 -198.600585938 142.939453125 -197.66015625 115.33984375 -197.66015625 c 1xdc
-0.0283203125 -77.7783203125 m 1xec
 -0.0283203125 498.778320312 l 1
 182.127929688 498.778320312 l 1
 203.377929688 461.971679688 l 1
 166.572265625 440.721679688 l 1
 58.0283203125 440.721679688 l 1
 58.0283203125 -19.7216796875 l 1
 376.778320312 -19.7216796875 l 1
 398.028320312 -56.5283203125 l 1
 361.221679688 -77.7783203125 l 1
 -0.0283203125 -77.7783203125 l 1xec
EndSplineSet
Validated: 524325
EndChar

StartChar: AE
Encoding: 198 198 133
Width: 632
VWidth: 998
Flags: W
HStem: -159.862 249G<8.92454 55.1132 288.425 328.966> -77.7783 58.0566<348.278 554.528> 389.127 58.0117<348.278 446.972> 559.722 57.2783<348.278 538.972>
VStem: 278.722 52.0566<-144.057 444.196> 330.222 18.0566<-19.7217 389.127 447.139 559.722>
LayerCount: 2
Fore
SplineSet
462.528320312 447.927734375 m 1x74
 483.778320312 411.122070312 l 1
 446.971679688 389.872070312 l 1
 348.278320312 389.126953125 l 1
 348.278320312 -19.7216796875 l 1
 554.528320312 -19.7216796875 l 1
 575.778320312 -56.5283203125 l 1
 558.971679688 -77.7783203125 l 1
 331.471679688 -77.7783203125 l 1
 330.221679688 -40.9716796875 l 1
 330.221679688 390.828125 l 1
 330.221679688 596.528320312 l 1
 327.028320312 617 l 1
 554.528320312 617.778320312 l 1
 575.778320312 580.971679688 l 1
 538.971679688 559.721679688 l 1
 348.278320312 559.721679688 l 1
 348.278320312 447.138671875 l 1
 462.528320312 447.927734375 l 1x74
328.842773438 617 m 1
 330.778320312 -159.612304688 l 1
 299.971679688 -180.862304688 l 1
 278.721679688 -144.056640625 l 1
 277.483398438 444.196289062 l 1
 57.2783203125 110.387695312 l 1
 20.4716796875 89.1376953125 l 1xb8
 -0.7783203125 125.943359375 l 1
 328.842773438 617 l 1
EndSplineSet
Validated: 524293
EndChar

StartChar: Egrave
Encoding: 200 200 134
Width: 405
Flags: W
HStem: -91.7783 58.0566<58.2783 318.972> 270.127 58.0117<58.2783 176.972> 440.722 58.0566<58.2783 318.972> 695 20G<161.4 214.258>
VStem: 0.22168 58.0566<-33.7217 270.127 328.139 440.722>
LayerCount: 2
Fore
SplineSet
161.400390625 705.491210938 m 1
 193 715 l 1
 229.416015625 680.73828125 l 1
 228.256835938 577.005859375 l 1
 203.544921875 588.680664062 l 1
 127.138671875 669.075195312 l 1
 161.400390625 705.491210938 l 1
192.528320312 328.927734375 m 1
 213.778320312 292.122070312 l 1
 176.971679688 270.872070312 l 1
 58.2783203125 270.126953125 l 1
 58.2783203125 -33.7216796875 l 1
 334.528320312 -33.7216796875 l 1
 355.778320312 -70.5283203125 l 1
 318.971679688 -91.7783203125 l 1
 21.4716796875 -91.7783203125 l 1
 0.2216796875 -54.9716796875 l 1
 0.2216796875 271.828125 l 1
 0.2216796875 477.528320312 l 1
 37.0283203125 498.778320312 l 1
 334.528320312 498.778320312 l 1
 355.778320312 461.971679688 l 1
 318.971679688 440.721679688 l 1
 58.2783203125 440.721679688 l 1
 58.2783203125 328.138671875 l 1
 192.528320312 328.927734375 l 1
EndSplineSet
Validated: 524289
EndChar

StartChar: Eacute
Encoding: 201 201 135
Width: 405
Flags: W
HStem: -91.7783 58.0566<58.2783 318.972> 270.127 58.0117<58.2783 176.972> 440.722 58.0566<58.2783 318.972>
VStem: 0.22168 58.0566<-33.7217 270.127 328.139 440.722>
LayerCount: 2
Fore
SplineSet
226.154296875 704.491210938 m 1
 194.5546875 714 l 1
 158.138671875 679.73828125 l 1
 159.297851562 576.005859375 l 1
 184.009765625 587.680664062 l 1
 260.416015625 668.075195312 l 1
 226.154296875 704.491210938 l 1
192.528320312 328.927734375 m 1
 213.778320312 292.122070312 l 1
 176.971679688 270.872070312 l 1
 58.2783203125 270.126953125 l 1
 58.2783203125 -33.7216796875 l 1
 334.528320312 -33.7216796875 l 1
 355.778320312 -70.5283203125 l 1
 318.971679688 -91.7783203125 l 1
 21.4716796875 -91.7783203125 l 1
 0.2216796875 -54.9716796875 l 1
 0.2216796875 271.828125 l 1
 0.2216796875 477.528320312 l 1
 37.0283203125 498.778320312 l 1
 334.528320312 498.778320312 l 1
 355.778320312 461.971679688 l 1
 318.971679688 440.721679688 l 1
 58.2783203125 440.721679688 l 1
 58.2783203125 328.138671875 l 1
 192.528320312 328.927734375 l 1
EndSplineSet
Validated: 524297
EndChar

StartChar: Ecircumflex
Encoding: 202 202 136
Width: 405
Flags: W
HStem: -91.7783 58.0566<58.2783 318.972> 270.127 58.0117<58.2783 176.972> 440.722 58.0566<58.2783 318.972>
VStem: 0.22168 58.0566<-33.7217 270.127 328.139 440.722>
LayerCount: 2
Fore
SplineSet
192.034179688 637.549804688 m 5
 148.637695312 589.618164062 l 5
 111.83203125 568.368164062 l 5
 90.58203125 605.173828125 l 5
 190.326171875 715.341796875 l 5
 272.568359375 621.32421875 l 5
 293.818359375 584.517578125 l 5
 257.01171875 563.267578125 l 5
 192.034179688 637.549804688 l 5
192.528320312 328.927734375 m 1
 213.778320312 292.122070312 l 1
 176.971679688 270.872070312 l 1
 58.2783203125 270.126953125 l 1
 58.2783203125 -33.7216796875 l 1
 334.528320312 -33.7216796875 l 1
 355.778320312 -70.5283203125 l 1
 318.971679688 -91.7783203125 l 1
 21.4716796875 -91.7783203125 l 1
 0.2216796875 -54.9716796875 l 1
 0.2216796875 271.828125 l 1
 0.2216796875 477.528320312 l 1
 37.0283203125 498.778320312 l 1
 334.528320312 498.778320312 l 1
 355.778320312 461.971679688 l 1
 318.971679688 440.721679688 l 1
 58.2783203125 440.721679688 l 1
 58.2783203125 328.138671875 l 1
 192.528320312 328.927734375 l 1
EndSplineSet
Validated: 524289
EndChar

StartChar: Edieresis
Encoding: 203 203 137
Width: 405
Flags: W
HStem: -91.7783 58.0566<58.2783 318.972> 270.127 58.0117<58.2783 176.972> 440.722 58.0566<58.2783 318.972> 658.275 54.4492<134.238 183.709 214.238 263.709>
VStem: 0.22168 58.0566<-33.7217 270.127 328.139 440.722> 133.311 51.3789<658.669 711.947> 213.311 51.3789<658.669 711.947>
LayerCount: 2
Fore
SplineSet
264.689453125 683.946289062 m 0
 264.689453125 675.569335938 260.377929688 667.739257812 253.677734375 663.87109375 c 2
 248.359375 660.799804688 l 2
 245.58203125 659.197265625 242.396484375 658.275390625 238.936523438 658.275390625 c 0
 230.51953125 658.275390625 223.369140625 662.861328125 219.487304688 669.583984375 c 2
 216.416992188 674.90234375 l 2
 214.438476562 678.329101562 213.310546875 682.318359375 213.310546875 686.5625 c 0
 213.310546875 695.118164062 217.893554688 702.814453125 224.790039062 706.796875 c 2
 230.108398438 709.8671875 l 2
 233.252929688 711.682617188 236.877929688 712.724609375 240.76953125 712.724609375 c 0
 248.459960938 712.724609375 254.618164062 708.369140625 258.209960938 702.1484375 c 2
 261.280273438 696.830078125 l 2
 263.46484375 693.045898438 264.689453125 688.567382812 264.689453125 683.946289062 c 0
184.689453125 683.946289062 m 0
 184.689453125 675.569335938 180.377929688 667.739257812 173.677734375 663.87109375 c 2
 168.359375 660.799804688 l 2
 165.58203125 659.197265625 162.396484375 658.275390625 158.936523438 658.275390625 c 0
 150.51953125 658.275390625 143.369140625 662.861328125 139.487304688 669.583984375 c 2
 136.416992188 674.90234375 l 2
 134.438476562 678.329101562 133.310546875 682.318359375 133.310546875 686.5625 c 0
 133.310546875 695.118164062 137.893554688 702.814453125 144.790039062 706.796875 c 2
 150.108398438 709.8671875 l 2
 153.252929688 711.682617188 156.877929688 712.724609375 160.76953125 712.724609375 c 0
 168.459960938 712.724609375 174.618164062 708.369140625 178.209960938 702.1484375 c 2
 181.280273438 696.830078125 l 2
 183.46484375 693.045898438 184.689453125 688.567382812 184.689453125 683.946289062 c 0
192.528320312 328.927734375 m 1
 213.778320312 292.122070312 l 1
 176.971679688 270.872070312 l 1
 58.2783203125 270.126953125 l 1
 58.2783203125 -33.7216796875 l 1
 334.528320312 -33.7216796875 l 1
 355.778320312 -70.5283203125 l 1
 318.971679688 -91.7783203125 l 1
 21.4716796875 -91.7783203125 l 1
 0.2216796875 -54.9716796875 l 1
 0.2216796875 271.828125 l 1
 0.2216796875 477.528320312 l 1
 37.0283203125 498.778320312 l 1
 334.528320312 498.778320312 l 1
 355.778320312 461.971679688 l 1
 318.971679688 440.721679688 l 1
 58.2783203125 440.721679688 l 1
 58.2783203125 328.138671875 l 1
 192.528320312 328.927734375 l 1
EndSplineSet
Validated: 524289
EndChar

StartChar: Igrave
Encoding: 204 204 138
Width: 210
Flags: W
HStem: -88.9648 58.0557<37.9883 94.667> 440.535 58.0557<36.9883 91.5781> 695 20G<48.4004 101.258>
VStem: 91.5781 57.6641<-32.1895 440.535>
LayerCount: 2
Fore
SplineSet
48.400390625 705.491210938 m 1
 80 715 l 1
 116.416015625 680.73828125 l 1
 115.256835938 577.005859375 l 1
 90.544921875 588.680664062 l 1
 14.138671875 669.075195312 l 1
 48.400390625 705.491210938 l 1
149.2421875 498.590820312 m 1
 152.953125 -91.0849609375 l 1
 22.4326171875 -88.96484375 l 1
 1.1826171875 -52.1591796875 l 1
 37.98828125 -30.9091796875 l 1
 94.6669921875 -32.189453125 l 1
 91.578125 440.53515625 l 1
 21.4326171875 440.53515625 l 1
 0.1826171875 477.340820312 l 1
 36.98828125 498.590820312 l 1
 149.2421875 498.590820312 l 1
EndSplineSet
Validated: 524289
EndChar

StartChar: Iacute
Encoding: 205 205 139
Width: 210
Flags: W
HStem: -88.9648 58.0557<37.9883 94.667> 440.535 58.0557<36.9883 91.5781>
VStem: 91.5781 57.6641<-32.1895 440.535>
LayerCount: 2
Fore
SplineSet
96.154296875 704.491210938 m 5
 64.5546875 714 l 5
 28.138671875 679.73828125 l 5
 29.2978515625 576.005859375 l 5
 54.009765625 587.680664062 l 5
 130.416015625 668.075195312 l 5
 96.154296875 704.491210938 l 5
149.2421875 498.590820312 m 1
 152.953125 -91.0849609375 l 1
 22.4326171875 -88.96484375 l 1
 1.1826171875 -52.1591796875 l 1
 37.98828125 -30.9091796875 l 1
 94.6669921875 -32.189453125 l 1
 91.578125 440.53515625 l 1
 21.4326171875 440.53515625 l 1
 0.1826171875 477.340820312 l 1
 36.98828125 498.590820312 l 1
 149.2421875 498.590820312 l 1
EndSplineSet
Validated: 524297
EndChar

StartChar: Icircumflex
Encoding: 206 206 140
Width: 223
Flags: W
HStem: -88.9648 58.0557<57.9883 114.667> 440.535 58.0557<56.9883 111.578>
VStem: 111.578 57.6641<-32.1895 440.535>
LayerCount: 2
Fore
SplineSet
100.034179688 637.549804688 m 1
 56.6376953125 589.618164062 l 1
 19.83203125 568.368164062 l 1
 -1.41796875 605.173828125 l 1
 98.326171875 715.341796875 l 1
 180.568359375 621.32421875 l 1
 201.818359375 584.517578125 l 1
 165.01171875 563.267578125 l 1
 100.034179688 637.549804688 l 1
169.2421875 498.590820312 m 1
 172.953125 -91.0849609375 l 1
 42.4326171875 -88.96484375 l 1
 21.1826171875 -52.1591796875 l 1
 57.98828125 -30.9091796875 l 1
 114.666992188 -32.189453125 l 1
 111.578125 440.53515625 l 1
 41.4326171875 440.53515625 l 1
 20.1826171875 477.340820312 l 1
 56.98828125 498.590820312 l 1
 169.2421875 498.590820312 l 1
EndSplineSet
Validated: 524289
EndChar

StartChar: Idieresis
Encoding: 207 207 141
Width: 210
Flags: W
HStem: -88.9648 58.0557<37.9883 94.667> 440.535 58.0557<36.9883 91.5781> 658.275 54.4492<10.2381 59.7091 90.2381 139.709>
VStem: 9.31055 51.3789<658.669 711.947> 89.3105 51.3789<658.669 711.947> 91.5781 57.6641<-32.1895 440.535>
LayerCount: 2
Fore
SplineSet
140.689453125 683.946289062 m 0xf8
 140.689453125 675.569335938 136.377929688 667.739257812 129.677734375 663.87109375 c 2
 124.359375 660.799804688 l 2
 121.58203125 659.197265625 118.396484375 658.275390625 114.936523438 658.275390625 c 0
 106.51953125 658.275390625 99.369140625 662.861328125 95.4873046875 669.583984375 c 2
 92.4169921875 674.90234375 l 2
 90.4384765625 678.329101562 89.310546875 682.318359375 89.310546875 686.5625 c 0
 89.310546875 695.118164062 93.8935546875 702.814453125 100.790039062 706.796875 c 2
 106.108398438 709.8671875 l 2
 109.252929688 711.682617188 112.877929688 712.724609375 116.76953125 712.724609375 c 0
 124.459960938 712.724609375 130.618164062 708.369140625 134.209960938 702.1484375 c 2
 137.280273438 696.830078125 l 2
 139.46484375 693.045898438 140.689453125 688.567382812 140.689453125 683.946289062 c 0xf8
60.689453125 683.946289062 m 0
 60.689453125 675.569335938 56.3779296875 667.739257812 49.677734375 663.87109375 c 2
 44.359375 660.799804688 l 2
 41.58203125 659.197265625 38.396484375 658.275390625 34.9365234375 658.275390625 c 0
 26.51953125 658.275390625 19.369140625 662.861328125 15.4873046875 669.583984375 c 2
 12.4169921875 674.90234375 l 2
 10.4384765625 678.329101562 9.310546875 682.318359375 9.310546875 686.5625 c 0
 9.310546875 695.118164062 13.8935546875 702.814453125 20.7900390625 706.796875 c 2
 26.1083984375 709.8671875 l 2
 29.2529296875 711.682617188 32.8779296875 712.724609375 36.76953125 712.724609375 c 0
 44.4599609375 712.724609375 50.6181640625 708.369140625 54.2099609375 702.1484375 c 2
 57.2802734375 696.830078125 l 2
 59.46484375 693.045898438 60.689453125 688.567382812 60.689453125 683.946289062 c 0
149.2421875 498.590820312 m 1xf4
 152.953125 -91.0849609375 l 1
 22.4326171875 -88.96484375 l 1
 1.1826171875 -52.1591796875 l 1
 37.98828125 -30.9091796875 l 1
 94.6669921875 -32.189453125 l 1
 91.578125 440.53515625 l 1
 21.4326171875 440.53515625 l 1
 0.1826171875 477.340820312 l 1
 36.98828125 498.590820312 l 1
 149.2421875 498.590820312 l 1xf4
EndSplineSet
Validated: 524289
EndChar

StartChar: Eth
Encoding: 208 208 142
Width: 485
Flags: W
HStem: -88.875 52.25<105.9 206.832> 123.475 21G<80.3526 125.025> 282.896 58.0566<34.0283 246.972> 446.625 52.25<125.025 366.969>
VStem: 72.7744 52.251<156.601 446.625> 366.969 52.2568<247.984 446.625>
LayerCount: 2
Fore
SplineSet
18.4716796875 282.896484375 m 1
 -2.7783203125 319.703125 l 1
 34.0283203125 340.953125 l 1
 262.528320312 340.103515625 l 1
 283.778320312 303.296875 l 1
 246.971679688 282.046875 l 1
 18.4716796875 282.896484375 l 1
72.7744140625 498.875 m 1
 419.225585938 498.875 l 1
 419.225585938 465.75 l 2
 419.225585938 151.848632812 419.225585938 55.4033203125 277.275390625 -26.55078125 c 2
 244.149414062 -45.67578125 l 2
 194.29296875 -74.4609375 182.926757812 -88.875 91.8994140625 -88.875 c 1
 72.7744140625 -55.75 l 1
 105.900390625 -36.625 l 1
 186.877929688 -36.625 193.130859375 -25.2177734375 240.98828125 -2.43359375 c 1
 362.301757812 81.80859375 366.801757812 163.767578125 366.96875 446.625 c 1
 125.025390625 446.625 l 1
 125.025390625 142.599609375 l 1
 91.8994140625 123.474609375 l 1
 72.7744140625 156.600585938 l 1
 72.7744140625 498.875 l 1
EndSplineSet
Validated: 524293
EndChar

StartChar: Ntilde
Encoding: 209 209 143
Width: 409
Flags: W
HStem: -85.7783 21G<8.92485 55.1132> 480.778 20G<298.887 345.075> 503.248 58.0566<242.089 304.946> 653.713 58.0566<105.692 165.347>
VStem: -0.77832 58.0566<-48.9717 387.122> 30.2217 58.0566<600.18 649.777> 296.722 58.0566<-17.1221 463.972>
LayerCount: 2
Fore
SplineSet
265.671875 503.248046875 m 0xf6
 240.40234375 503.248046875 224.659179688 518.958007812 215.079101562 535.551757812 c 2
 193.829101562 572.357421875 l 2
 183.108398438 590.927734375 180.10546875 610.604492188 180.10546875 610.604492188 c 1
 180.10546875 610.604492188 178.873046875 614.063476562 176.451171875 619.541992188 c 0
 162.99609375 637.416992188 144.268554688 653.712890625 120.708984375 653.712890625 c 0
 117.680664062 653.712890625 114.881835938 653.486328125 112.145507812 653.092773438 c 0
 92.6953125 629.952148438 88.2783203125 596.748046875 88.2783203125 596.748046875 c 1
 51.4716796875 575.498046875 l 1
 30.2216796875 612.3046875 l 1
 30.2216796875 612.3046875 37.0263671875 663.452148438 70.9306640625 683.02734375 c 2
 107.737304688 704.27734375 l 2
 115.646484375 708.84375 124.987304688 711.76953125 136.264648438 711.76953125 c 0
 167.372070312 711.76953125 190.0546875 683.359375 203.299804688 660.41796875 c 2
 224.549804688 623.611328125 l 2
 233.51953125 608.076171875 238.161132812 595.047851562 238.161132812 595.047851562 c 1
 238.161132812 595.047851562 239.293945312 587.625976562 242.651367188 577.596679688 c 1
 252 568.16015625 264.53515625 561.3046875 281.228515625 561.3046875 c 0
 286.76171875 561.3046875 292 561.951171875 296.947265625 563.12109375 c 0
 317.998046875 583.700195312 327.721679688 610.604492188 327.721679688 610.604492188 c 1
 364.528320312 631.854492188 l 1
 385.778320312 595.047851562 l 1
 385.778320312 595.047851562 370.663085938 553.23046875 337.330078125 533.985351562 c 2
 300.524414062 512.735351562 l 2
 290.561523438 506.983398438 278.971679688 503.248046875 265.671875 503.248046875 c 0xf6
354.778320312 -250.377929688 m 1
 57.2783203125 387.122070312 l 1
 57.2783203125 -64.5283203125 l 1
 20.4716796875 -85.7783203125 l 1
 -0.7783203125 -48.9716796875 l 1
 -0.7783203125 620.377929688 l 1xfa
 296.721679688 -17.1220703125 l 1
 296.721679688 479.528320312 l 1
 333.528320312 500.778320312 l 1
 354.778320312 463.971679688 l 1
 354.778320312 -250.377929688 l 1
EndSplineSet
Validated: 524289
EndChar

StartChar: Ograve
Encoding: 210 210 144
Width: 401
Flags: W
HStem: -84.9307 81.0557<121.843 230.718> 420.875 78.0557<114.31 232.479> 695 20G<161.4 214.258>
VStem: 0.0585938 55.0557<80.513 360.377> 294.859 58.0557<65.0387 339.764>
LayerCount: 2
Fore
SplineSet
161.400390625 705.491210938 m 5
 193 715 l 5
 229.416015625 680.73828125 l 5
 228.256835938 577.005859375 l 5
 203.544921875 588.680664062 l 5
 127.138671875 669.075195312 l 5
 161.400390625 705.491210938 l 5
352.915039062 180.390625 m 0
 352.915039062 72.5244140625 341.334960938 -5.8125 266.852539062 -48.8154296875 c 2
 230.045898438 -70.0654296875 l 2
 213.544921875 -79.5927734375 193.956054688 -84.9306640625 170.72265625 -84.9306640625 c 0
 118.836914062 -84.9306640625 84.8125 -59.4755859375 62.31640625 -20.51171875 c 2
 41.06640625 16.2939453125 l 2
 3.671875 81.0634765625 1.283203125 133.3125 0.2197265625 218.927734375 c 0
 0.1201171875 226.927734375 0.05859375 235.092773438 0.05859375 243.375 c 0
 0.05859375 351.807617188 7.6455078125 420.375976562 81.6220703125 463.086914062 c 2
 118.427734375 484.336914062 l 2
 134.63671875 493.694335938 153.887695312 498.930664062 176.736328125 498.930664062 c 0
 229.482421875 498.930664062 264.100585938 473 286.98828125 433.356445312 c 2
 308.23828125 396.55078125 l 2
 346.022460938 331.107421875 351.715820312 288.1171875 352.776367188 201.671875 c 0
 352.864257812 194.690429688 352.915039062 187.5859375 352.915039062 180.390625 c 0
160.180664062 420.875 m 0
 145.850585938 420.875 133.935546875 418.815429688 122.298828125 414.971679688 c 1
 63.9921875 363.299804688 55.1142578125 327.116210938 55.1142578125 227.818359375 c 0
 55.1142578125 219.537109375 55.17578125 211.372070312 55.2763671875 203.372070312 c 0
 56.2373046875 126.01171875 60.7294921875 115.069335938 89.1748046875 50.46875 c 1
 111.34765625 21.314453125 142.405273438 -3.875 186.278320312 -3.875 c 0
 201.002929688 -3.875 214.262695312 5.26953125 226.200195312 9.2646484375 c 1
 285.135742188 61.0751953125 294.859375 97.10546875 294.859375 195.947265625 c 0
 294.859375 203.142578125 294.807617188 210.24609375 294.719726562 217.228515625 c 0
 293.760742188 295.426757812 288.009765625 307.165039062 259.142578125 372.400390625 c 1
 236.572265625 402.228515625 204.918945312 420.875 160.180664062 420.875 c 0
EndSplineSet
Validated: 524289
EndChar

StartChar: Oacute
Encoding: 211 211 145
Width: 401
Flags: W
HStem: -84.9307 81.0557<121.843 230.718> 420.875 78.0557<114.31 232.479>
VStem: 0.0585938 55.0557<80.513 360.377> 294.859 58.0557<65.0387 339.764>
LayerCount: 2
Fore
SplineSet
226.154296875 704.491210938 m 5
 194.5546875 714 l 5
 158.138671875 679.73828125 l 5
 159.297851562 576.005859375 l 5
 184.009765625 587.680664062 l 5
 260.416015625 668.075195312 l 5
 226.154296875 704.491210938 l 5
352.915039062 180.390625 m 0
 352.915039062 72.5244140625 341.334960938 -5.8125 266.852539062 -48.8154296875 c 2
 230.045898438 -70.0654296875 l 2
 213.544921875 -79.5927734375 193.956054688 -84.9306640625 170.72265625 -84.9306640625 c 0
 118.836914062 -84.9306640625 84.8125 -59.4755859375 62.31640625 -20.51171875 c 2
 41.06640625 16.2939453125 l 2
 3.671875 81.0634765625 1.283203125 133.3125 0.2197265625 218.927734375 c 0
 0.1201171875 226.927734375 0.05859375 235.092773438 0.05859375 243.375 c 0
 0.05859375 351.807617188 7.6455078125 420.375976562 81.6220703125 463.086914062 c 2
 118.427734375 484.336914062 l 2
 134.63671875 493.694335938 153.887695312 498.930664062 176.736328125 498.930664062 c 0
 229.482421875 498.930664062 264.100585938 473 286.98828125 433.356445312 c 2
 308.23828125 396.55078125 l 2
 346.022460938 331.107421875 351.715820312 288.1171875 352.776367188 201.671875 c 0
 352.864257812 194.690429688 352.915039062 187.5859375 352.915039062 180.390625 c 0
160.180664062 420.875 m 0
 145.850585938 420.875 133.935546875 418.815429688 122.298828125 414.971679688 c 1
 63.9921875 363.299804688 55.1142578125 327.116210938 55.1142578125 227.818359375 c 0
 55.1142578125 219.537109375 55.17578125 211.372070312 55.2763671875 203.372070312 c 0
 56.2373046875 126.01171875 60.7294921875 115.069335938 89.1748046875 50.46875 c 1
 111.34765625 21.314453125 142.405273438 -3.875 186.278320312 -3.875 c 0
 201.002929688 -3.875 214.262695312 5.26953125 226.200195312 9.2646484375 c 1
 285.135742188 61.0751953125 294.859375 97.10546875 294.859375 195.947265625 c 0
 294.859375 203.142578125 294.807617188 210.24609375 294.719726562 217.228515625 c 0
 293.760742188 295.426757812 288.009765625 307.165039062 259.142578125 372.400390625 c 1
 236.572265625 402.228515625 204.918945312 420.875 160.180664062 420.875 c 0
EndSplineSet
Validated: 524297
EndChar

StartChar: Ocircumflex
Encoding: 212 212 146
Width: 401
Flags: W
HStem: -84.9307 81.0557<121.843 230.718> 420.875 78.0557<114.31 232.479>
VStem: 0.0585938 55.0557<80.513 360.377> 294.859 58.0557<65.0387 339.764>
LayerCount: 2
Fore
SplineSet
192.034179688 637.549804688 m 5
 148.637695312 589.618164062 l 5
 111.83203125 568.368164062 l 5
 90.58203125 605.173828125 l 5
 190.326171875 715.341796875 l 5
 272.568359375 621.32421875 l 5
 293.818359375 584.517578125 l 5
 257.01171875 563.267578125 l 5
 192.034179688 637.549804688 l 5
352.915039062 180.390625 m 0
 352.915039062 72.5244140625 341.334960938 -5.8125 266.852539062 -48.8154296875 c 2
 230.045898438 -70.0654296875 l 2
 213.544921875 -79.5927734375 193.956054688 -84.9306640625 170.72265625 -84.9306640625 c 0
 118.836914062 -84.9306640625 84.8125 -59.4755859375 62.31640625 -20.51171875 c 2
 41.06640625 16.2939453125 l 2
 3.671875 81.0634765625 1.283203125 133.3125 0.2197265625 218.927734375 c 0
 0.1201171875 226.927734375 0.05859375 235.092773438 0.05859375 243.375 c 0
 0.05859375 351.807617188 7.6455078125 420.375976562 81.6220703125 463.086914062 c 2
 118.427734375 484.336914062 l 2
 134.63671875 493.694335938 153.887695312 498.930664062 176.736328125 498.930664062 c 0
 229.482421875 498.930664062 264.100585938 473 286.98828125 433.356445312 c 2
 308.23828125 396.55078125 l 2
 346.022460938 331.107421875 351.715820312 288.1171875 352.776367188 201.671875 c 0
 352.864257812 194.690429688 352.915039062 187.5859375 352.915039062 180.390625 c 0
160.180664062 420.875 m 0
 145.850585938 420.875 133.935546875 418.815429688 122.298828125 414.971679688 c 1
 63.9921875 363.299804688 55.1142578125 327.116210938 55.1142578125 227.818359375 c 0
 55.1142578125 219.537109375 55.17578125 211.372070312 55.2763671875 203.372070312 c 0
 56.2373046875 126.01171875 60.7294921875 115.069335938 89.1748046875 50.46875 c 1
 111.34765625 21.314453125 142.405273438 -3.875 186.278320312 -3.875 c 0
 201.002929688 -3.875 214.262695312 5.26953125 226.200195312 9.2646484375 c 1
 285.135742188 61.0751953125 294.859375 97.10546875 294.859375 195.947265625 c 0
 294.859375 203.142578125 294.807617188 210.24609375 294.719726562 217.228515625 c 0
 293.760742188 295.426757812 288.009765625 307.165039062 259.142578125 372.400390625 c 1
 236.572265625 402.228515625 204.918945312 420.875 160.180664062 420.875 c 0
EndSplineSet
Validated: 524289
EndChar

StartChar: Otilde
Encoding: 213 213 147
Width: 401
Flags: W
HStem: -84.9307 81.0557<121.843 230.718> 420.875 78.0557<114.31 232.479> 503.248 58.0566<211.089 273.946> 653.713 58.0566<74.6923 134.347>
VStem: 0.0585938 55.0557<80.513 360.377 601.192 647.506> 294.859 58.0557<65.0387 339.764>
LayerCount: 2
Fore
SplineSet
234.671875 503.248046875 m 0
 209.40234375 503.248046875 193.659179688 518.958007812 184.079101562 535.551757812 c 6
 162.829101562 572.357421875 l 6
 152.108398438 590.927734375 149.10546875 610.604492188 149.10546875 610.604492188 c 5
 149.10546875 610.604492188 147.873046875 614.063476562 145.451171875 619.541992188 c 4
 131.99609375 637.416992188 113.268554688 653.712890625 89.708984375 653.712890625 c 4
 86.6806640625 653.712890625 83.8818359375 653.486328125 81.1455078125 653.092773438 c 4
 61.6953125 629.952148438 57.2783203125 596.748046875 57.2783203125 596.748046875 c 5
 20.4716796875 575.498046875 l 5
 -0.7783203125 612.3046875 l 5
 -0.7783203125 612.3046875 6.0263671875 663.452148438 39.9306640625 683.02734375 c 6
 76.7373046875 704.27734375 l 6
 84.646484375 708.84375 93.9873046875 711.76953125 105.264648438 711.76953125 c 4
 136.372070312 711.76953125 159.0546875 683.359375 172.299804688 660.41796875 c 6
 193.549804688 623.611328125 l 6
 202.51953125 608.076171875 207.161132812 595.047851562 207.161132812 595.047851562 c 5
 207.161132812 595.047851562 208.293945312 587.625976562 211.651367188 577.596679688 c 5
 221 568.16015625 233.53515625 561.3046875 250.228515625 561.3046875 c 4
 255.76171875 561.3046875 261 561.951171875 265.947265625 563.12109375 c 4
 286.998046875 583.700195312 296.721679688 610.604492188 296.721679688 610.604492188 c 5
 333.528320312 631.854492188 l 5
 354.778320312 595.047851562 l 5
 354.778320312 595.047851562 339.663085938 553.23046875 306.330078125 533.985351562 c 6
 269.524414062 512.735351562 l 6
 259.561523438 506.983398438 247.971679688 503.248046875 234.671875 503.248046875 c 0
352.915039062 180.390625 m 0
 352.915039062 72.5244140625 341.334960938 -5.8125 266.852539062 -48.8154296875 c 2
 230.045898438 -70.0654296875 l 2
 213.544921875 -79.5927734375 193.956054688 -84.9306640625 170.72265625 -84.9306640625 c 0
 118.836914062 -84.9306640625 84.8125 -59.4755859375 62.31640625 -20.51171875 c 2
 41.06640625 16.2939453125 l 2
 3.671875 81.0634765625 1.283203125 133.3125 0.2197265625 218.927734375 c 0
 0.1201171875 226.927734375 0.05859375 235.092773438 0.05859375 243.375 c 0
 0.05859375 351.807617188 7.6455078125 420.375976562 81.6220703125 463.086914062 c 2
 118.427734375 484.336914062 l 2
 134.63671875 493.694335938 153.887695312 498.930664062 176.736328125 498.930664062 c 0
 229.482421875 498.930664062 264.100585938 473 286.98828125 433.356445312 c 2
 308.23828125 396.55078125 l 2
 346.022460938 331.107421875 351.715820312 288.1171875 352.776367188 201.671875 c 0
 352.864257812 194.690429688 352.915039062 187.5859375 352.915039062 180.390625 c 0
160.180664062 420.875 m 0
 145.850585938 420.875 133.935546875 418.815429688 122.298828125 414.971679688 c 1
 63.9921875 363.299804688 55.1142578125 327.116210938 55.1142578125 227.818359375 c 0
 55.1142578125 219.537109375 55.17578125 211.372070312 55.2763671875 203.372070312 c 0
 56.2373046875 126.01171875 60.7294921875 115.069335938 89.1748046875 50.46875 c 1
 111.34765625 21.314453125 142.405273438 -3.875 186.278320312 -3.875 c 0
 201.002929688 -3.875 214.262695312 5.26953125 226.200195312 9.2646484375 c 1
 285.135742188 61.0751953125 294.859375 97.10546875 294.859375 195.947265625 c 0
 294.859375 203.142578125 294.807617188 210.24609375 294.719726562 217.228515625 c 0
 293.760742188 295.426757812 288.009765625 307.165039062 259.142578125 372.400390625 c 1
 236.572265625 402.228515625 204.918945312 420.875 160.180664062 420.875 c 0
EndSplineSet
Validated: 524289
EndChar

StartChar: Odieresis
Encoding: 214 214 148
Width: 401
Flags: W
HStem: -84.9307 81.0557<121.843 230.718> 420.875 78.0557<114.31 232.479> 658.275 54.4492<112.238 161.709 192.238 241.709>
VStem: 0.0585938 55.0557<80.513 360.377> 111.311 51.3789<658.669 711.947> 191.311 51.3789<658.669 711.947> 294.859 58.0557<65.0387 339.764>
LayerCount: 2
Fore
SplineSet
242.689453125 683.946289062 m 4
 242.689453125 675.569335938 238.377929688 667.739257812 231.677734375 663.87109375 c 6
 226.359375 660.799804688 l 6
 223.58203125 659.197265625 220.396484375 658.275390625 216.936523438 658.275390625 c 4
 208.51953125 658.275390625 201.369140625 662.861328125 197.487304688 669.583984375 c 6
 194.416992188 674.90234375 l 6
 192.438476562 678.329101562 191.310546875 682.318359375 191.310546875 686.5625 c 4
 191.310546875 695.118164062 195.893554688 702.814453125 202.790039062 706.796875 c 6
 208.108398438 709.8671875 l 6
 211.252929688 711.682617188 214.877929688 712.724609375 218.76953125 712.724609375 c 4
 226.459960938 712.724609375 232.618164062 708.369140625 236.209960938 702.1484375 c 6
 239.280273438 696.830078125 l 6
 241.46484375 693.045898438 242.689453125 688.567382812 242.689453125 683.946289062 c 4
162.689453125 683.946289062 m 4
 162.689453125 675.569335938 158.377929688 667.739257812 151.677734375 663.87109375 c 6
 146.359375 660.799804688 l 6
 143.58203125 659.197265625 140.396484375 658.275390625 136.936523438 658.275390625 c 4
 128.51953125 658.275390625 121.369140625 662.861328125 117.487304688 669.583984375 c 6
 114.416992188 674.90234375 l 6
 112.438476562 678.329101562 111.310546875 682.318359375 111.310546875 686.5625 c 4
 111.310546875 695.118164062 115.893554688 702.814453125 122.790039062 706.796875 c 6
 128.108398438 709.8671875 l 6
 131.252929688 711.682617188 134.877929688 712.724609375 138.76953125 712.724609375 c 4
 146.459960938 712.724609375 152.618164062 708.369140625 156.209960938 702.1484375 c 6
 159.280273438 696.830078125 l 6
 161.46484375 693.045898438 162.689453125 688.567382812 162.689453125 683.946289062 c 4
352.915039062 180.390625 m 0
 352.915039062 72.5244140625 341.334960938 -5.8125 266.852539062 -48.8154296875 c 2
 230.045898438 -70.0654296875 l 2
 213.544921875 -79.5927734375 193.956054688 -84.9306640625 170.72265625 -84.9306640625 c 0
 118.836914062 -84.9306640625 84.8125 -59.4755859375 62.31640625 -20.51171875 c 2
 41.06640625 16.2939453125 l 2
 3.671875 81.0634765625 1.283203125 133.3125 0.2197265625 218.927734375 c 0
 0.1201171875 226.927734375 0.05859375 235.092773438 0.05859375 243.375 c 0
 0.05859375 351.807617188 7.6455078125 420.375976562 81.6220703125 463.086914062 c 2
 118.427734375 484.336914062 l 2
 134.63671875 493.694335938 153.887695312 498.930664062 176.736328125 498.930664062 c 0
 229.482421875 498.930664062 264.100585938 473 286.98828125 433.356445312 c 2
 308.23828125 396.55078125 l 2
 346.022460938 331.107421875 351.715820312 288.1171875 352.776367188 201.671875 c 0
 352.864257812 194.690429688 352.915039062 187.5859375 352.915039062 180.390625 c 0
160.180664062 420.875 m 0
 145.850585938 420.875 133.935546875 418.815429688 122.298828125 414.971679688 c 1
 63.9921875 363.299804688 55.1142578125 327.116210938 55.1142578125 227.818359375 c 0
 55.1142578125 219.537109375 55.17578125 211.372070312 55.2763671875 203.372070312 c 0
 56.2373046875 126.01171875 60.7294921875 115.069335938 89.1748046875 50.46875 c 1
 111.34765625 21.314453125 142.405273438 -3.875 186.278320312 -3.875 c 0
 201.002929688 -3.875 214.262695312 5.26953125 226.200195312 9.2646484375 c 1
 285.135742188 61.0751953125 294.859375 97.10546875 294.859375 195.947265625 c 0
 294.859375 203.142578125 294.807617188 210.24609375 294.719726562 217.228515625 c 0
 293.760742188 295.426757812 288.009765625 307.165039062 259.142578125 372.400390625 c 1
 236.572265625 402.228515625 204.918945312 420.875 160.180664062 420.875 c 0
EndSplineSet
Validated: 524289
EndChar

StartChar: multiply
Encoding: 215 215 149
Width: 254
Flags: W
HStem: 220.611 182.777
VStem: 72.3984 45.0957<336.769 380.85>
LayerCount: 2
Fore
SplineSet
170.375 365.138671875 m 1
 192.9140625 342.599609375 l 1
 170.375 320.060546875 l 1
 124.23046875 294.686523438 l 1
 175.4609375 240.174804688 l 1
 130.3828125 240.174804688 l 1
 95.880859375 276.88671875 l 1
 64.3935546875 243.150390625 l 1
 41.8544921875 220.611328125 l 1
 19.3154296875 243.150390625 l 1
 67.287109375 294.546875 l 1
 21.625 320.060546875 l 1
 -0.9140625 342.599609375 l 1
 21.625 365.138671875 l 1
 72.3984375 336.768554688 l 1
 71.3359375 380.849609375 l 1
 93.875 403.388671875 l 1
 116.4140625 380.849609375 l 1
 117.494140625 336.060546875 l 1
 170.375 365.138671875 l 1
EndSplineSet
Validated: 524289
EndChar

StartChar: Oslash
Encoding: 216 216 150
Width: 408
Flags: W
HStem: -164.62 63.8604<136.513 262.263> 28.3799 21G<73.7988 89.4447> 535.694 63.8623<137.68 262.001>
VStem: 0.382812 63.8613<30.9776 204.614 208.444 411.746> 327.83 63.8623<9.21586 225.557 227.42 406.384>
LayerCount: 2
Fore
SplineSet
212.108398438 535.694335938 m 0
 227.985351562 535.694335938 242.26171875 533.430664062 255.096679688 529.203125 c 1
 269.744140625 516.17578125 281.479492188 499.41796875 290.87109375 480.006835938 c 1
 80.111328125 28.3798828125 l 1
 67.486328125 83.6767578125 64.244140625 146.760742188 64.244140625 204.614257812 c 0
 64.244140625 211.680664062 64.29296875 218.668945312 64.37890625 225.556640625 c 0
 65.4267578125 310.453125 71.46875 410.330078125 103.24609375 481.725585938 c 1
 128.240234375 514.935546875 163.206054688 535.694335938 212.108398438 535.694335938 c 0
194.997070312 599.556640625 m 0
 137.408203125 599.556640625 99.1474609375 570.768554688 73.73828125 526.758789062 c 2
 50.36328125 486.272460938 l 2
 8.94140625 414.526367188 1.67578125 302.326171875 0.5166015625 208.444335938 c 0
 0.431640625 201.55859375 0.3828125 194.569335938 0.3828125 187.502929688 c 0
 0.3828125 103.39453125 7.2353515625 8.232421875 39.8095703125 -57.982421875 c 1
 0.5166015625 -142.181640625 l 1
 41.00390625 -165.556640625 l 1
 64.37890625 -125.069335938 l 1
 73.4150390625 -105.705078125 l 1
 80.8662109375 -112.944335938 89.0498046875 -119.231445312 98.0390625 -124.420898438 c 2
 138.526367188 -147.795898438 l 2
 157.197265625 -158.576171875 179.336914062 -164.620117188 205.563476562 -164.620117188 c 0
 260.916992188 -164.620117188 297.306640625 -137.693359375 321.288085938 -96.15625 c 2
 344.663085938 -55.669921875 l 2
 385.899414062 15.7548828125 390.446289062 130.374023438 391.62890625 225.556640625 c 0
 391.666992188 231.797851562 391.692382812 238.129882812 391.692382812 244.532226562 c 0
 391.692382812 330.7421875 387.274414062 429.859375 354.732421875 497.1171875 c 1
 391.62890625 576.181640625 l 1
 351.141601562 599.556640625 l 1
 341.03125 581.252929688 329.552734375 564.31640625 320.96484375 544.4921875 c 1
 314.528320312 550.473632812 307.515625 555.719726562 299.873046875 560.1328125 c 2
 259.385742188 583.5078125 l 2
 241.561523438 593.798828125 220.314453125 599.556640625 194.997070312 599.556640625 c 0
327.830078125 227.419921875 m 0
 327.830078125 221.017578125 327.805664062 214.686523438 327.766601562 208.444335938 c 0
 326.698242188 122.418945312 322.881835938 20.517578125 291.71484375 -51.021484375 c 1
 268.091796875 -81.7431640625 234.967773438 -100.759765625 188.452148438 -100.759765625 c 0
 171.567382812 -100.759765625 156.376953125 -98.25390625 142.71484375 -93.591796875 c 1
 126.752929688 -79.7275390625 113.934570312 -61.736328125 103.669921875 -40.8720703125 c 1
 313.783203125 409.368164062 l 1
 325.732421875 352.354492188 327.830078125 286.823242188 327.830078125 227.419921875 c 0
EndSplineSet
Validated: 524297
EndChar

StartChar: Ugrave
Encoding: 217 217 151
Width: 415
Flags: W
HStem: -100.778 21G<262.785 351.081> 478.778 20G<296.036 342.224> 695 20G<161.4 214.258>
VStem: 1.07129 58.0566<219.127 304.722> 293.054 57.9961<-40.1143 461.972>
LayerCount: 2
Fore
SplineSet
161.400390625 705.491210938 m 5
 193 715 l 5
 229.416015625 680.73828125 l 5
 228.256835938 577.005859375 l 5
 203.544921875 588.680664062 l 5
 127.138671875 669.075195312 l 5
 161.400390625 705.491210938 l 5
59.1279296875 304.538085938 m 0
 59.1279296875 297.942382812 71.0771484375 212.540039062 141.450195312 74.4501953125 c 1
 179.202148438 16.7939453125 218.088867188 -29.158203125 293.053710938 -40.1142578125 c 1
 293.87109375 477.528320312 l 1
 330.676757812 498.778320312 l 1
 351.926757812 461.971679688 l 1
 351.049804688 -100.778320312 l 1
 314.271484375 -100.778320312 l 2
 211.297851562 -100.778320312 147.2734375 -42.91015625 103.6484375 32.650390625 c 2
 82.3984375 69.4560546875 l 2
 1.771484375 209.106445312 1.0712890625 313.19140625 1.0712890625 320.094726562 c 0
 1.0712890625 320.216796875 1.072265625 320.278320312 1.072265625 320.278320312 c 1
 37.8779296875 341.528320312 l 1
 59.1279296875 304.721679688 l 1
 59.1279296875 304.721679688 59.1279296875 304.66015625 59.1279296875 304.538085938 c 0
EndSplineSet
Validated: 524289
EndChar

StartChar: Uacute
Encoding: 218 218 152
Width: 415
Flags: W
HStem: -100.778 21G<262.785 351.081> 478.778 20G<296.036 342.224>
VStem: 1.07129 58.0566<219.127 304.722> 293.054 57.9961<-40.1143 461.972>
LayerCount: 2
Fore
SplineSet
226.154296875 704.491210938 m 5
 194.5546875 714 l 5
 158.138671875 679.73828125 l 5
 159.297851562 576.005859375 l 5
 184.009765625 587.680664062 l 5
 260.416015625 668.075195312 l 5
 226.154296875 704.491210938 l 5
59.1279296875 304.538085938 m 0
 59.1279296875 297.942382812 71.0771484375 212.540039062 141.450195312 74.4501953125 c 1
 179.202148438 16.7939453125 218.088867188 -29.158203125 293.053710938 -40.1142578125 c 1
 293.87109375 477.528320312 l 1
 330.676757812 498.778320312 l 1
 351.926757812 461.971679688 l 1
 351.049804688 -100.778320312 l 1
 314.271484375 -100.778320312 l 2
 211.297851562 -100.778320312 147.2734375 -42.91015625 103.6484375 32.650390625 c 2
 82.3984375 69.4560546875 l 2
 1.771484375 209.106445312 1.0712890625 313.19140625 1.0712890625 320.094726562 c 0
 1.0712890625 320.216796875 1.072265625 320.278320312 1.072265625 320.278320312 c 1
 37.8779296875 341.528320312 l 1
 59.1279296875 304.721679688 l 1
 59.1279296875 304.721679688 59.1279296875 304.66015625 59.1279296875 304.538085938 c 0
EndSplineSet
Validated: 524297
EndChar

StartChar: Ucircumflex
Encoding: 219 219 153
Width: 415
Flags: W
HStem: -100.778 21G<262.785 351.081> 478.778 20G<296.036 342.224>
VStem: 1.07129 58.0566<219.127 304.722> 293.054 57.9961<-40.1143 461.972>
LayerCount: 2
Fore
SplineSet
192.034179688 637.549804688 m 5
 148.637695312 589.618164062 l 5
 111.83203125 568.368164062 l 5
 90.58203125 605.173828125 l 5
 190.326171875 715.341796875 l 5
 272.568359375 621.32421875 l 5
 293.818359375 584.517578125 l 5
 257.01171875 563.267578125 l 5
 192.034179688 637.549804688 l 5
59.1279296875 304.538085938 m 0
 59.1279296875 297.942382812 71.0771484375 212.540039062 141.450195312 74.4501953125 c 1
 179.202148438 16.7939453125 218.088867188 -29.158203125 293.053710938 -40.1142578125 c 1
 293.87109375 477.528320312 l 1
 330.676757812 498.778320312 l 1
 351.926757812 461.971679688 l 1
 351.049804688 -100.778320312 l 1
 314.271484375 -100.778320312 l 2
 211.297851562 -100.778320312 147.2734375 -42.91015625 103.6484375 32.650390625 c 2
 82.3984375 69.4560546875 l 2
 1.771484375 209.106445312 1.0712890625 313.19140625 1.0712890625 320.094726562 c 0
 1.0712890625 320.216796875 1.072265625 320.278320312 1.072265625 320.278320312 c 1
 37.8779296875 341.528320312 l 1
 59.1279296875 304.721679688 l 1
 59.1279296875 304.721679688 59.1279296875 304.66015625 59.1279296875 304.538085938 c 0
EndSplineSet
Validated: 524289
EndChar

StartChar: Udieresis
Encoding: 220 220 154
Width: 415
Flags: W
HStem: -100.778 21G<262.785 351.081> 478.778 20G<296.036 342.224> 658.275 54.4492<112.238 161.709 192.238 241.709>
VStem: 1.07129 58.0566<219.127 304.722> 111.311 51.3789<658.669 711.947> 191.311 51.3789<658.669 711.947> 293.054 57.9961<-40.1143 461.972>
LayerCount: 2
Fore
SplineSet
242.689453125 683.946289062 m 0
 242.689453125 675.569335938 238.377929688 667.739257812 231.677734375 663.87109375 c 2
 226.359375 660.799804688 l 2
 223.58203125 659.197265625 220.396484375 658.275390625 216.936523438 658.275390625 c 0
 208.51953125 658.275390625 201.369140625 662.861328125 197.487304688 669.583984375 c 2
 194.416992188 674.90234375 l 2
 192.438476562 678.329101562 191.310546875 682.318359375 191.310546875 686.5625 c 0
 191.310546875 695.118164062 195.893554688 702.814453125 202.790039062 706.796875 c 2
 208.108398438 709.8671875 l 2
 211.252929688 711.682617188 214.877929688 712.724609375 218.76953125 712.724609375 c 0
 226.459960938 712.724609375 232.618164062 708.369140625 236.209960938 702.1484375 c 2
 239.280273438 696.830078125 l 2
 241.46484375 693.045898438 242.689453125 688.567382812 242.689453125 683.946289062 c 0
162.689453125 683.946289062 m 0
 162.689453125 675.569335938 158.377929688 667.739257812 151.677734375 663.87109375 c 2
 146.359375 660.799804688 l 2
 143.58203125 659.197265625 140.396484375 658.275390625 136.936523438 658.275390625 c 0
 128.51953125 658.275390625 121.369140625 662.861328125 117.487304688 669.583984375 c 2
 114.416992188 674.90234375 l 2
 112.438476562 678.329101562 111.310546875 682.318359375 111.310546875 686.5625 c 0
 111.310546875 695.118164062 115.893554688 702.814453125 122.790039062 706.796875 c 2
 128.108398438 709.8671875 l 2
 131.252929688 711.682617188 134.877929688 712.724609375 138.76953125 712.724609375 c 0
 146.459960938 712.724609375 152.618164062 708.369140625 156.209960938 702.1484375 c 2
 159.280273438 696.830078125 l 2
 161.46484375 693.045898438 162.689453125 688.567382812 162.689453125 683.946289062 c 0
59.1279296875 304.538085938 m 0
 59.1279296875 297.942382812 71.0771484375 212.540039062 141.450195312 74.4501953125 c 1
 179.202148438 16.7939453125 218.088867188 -29.158203125 293.053710938 -40.1142578125 c 1
 293.87109375 477.528320312 l 1
 330.676757812 498.778320312 l 1
 351.926757812 461.971679688 l 1
 351.049804688 -100.778320312 l 1
 314.271484375 -100.778320312 l 2
 211.297851562 -100.778320312 147.2734375 -42.91015625 103.6484375 32.650390625 c 2
 82.3984375 69.4560546875 l 2
 1.771484375 209.106445312 1.0712890625 313.19140625 1.0712890625 320.094726562 c 0
 1.0712890625 320.216796875 1.072265625 320.278320312 1.072265625 320.278320312 c 1
 37.8779296875 341.528320312 l 1
 59.1279296875 304.721679688 l 1
 59.1279296875 304.721679688 59.1279296875 304.66015625 59.1279296875 304.538085938 c 0
EndSplineSet
Validated: 524289
EndChar

StartChar: Yacute
Encoding: 221 221 155
Width: 413
Flags: W
HStem: -100.778 21G<301.425 347.613> 121.707 59.249<206.112 291.722> 478.778 20G<2.38678 48.5751 293.887 340.075>
VStem: 0.22168 58.0566<339.73 461.972> 291.722 58.0566<-63.9717 123.543 180.956 461.972>
LayerCount: 2
Fore
SplineSet
226.154296875 704.491210938 m 1
 194.5546875 714 l 1
 158.138671875 679.73828125 l 1
 159.297851562 576.005859375 l 1
 184.009765625 587.680664062 l 1
 260.416015625 668.075195312 l 1
 226.154296875 704.491210938 l 1
349.778320312 -79.5283203125 m 1
 312.971679688 -100.778320312 l 1
 291.721679688 -63.9716796875 l 1
 291.721679688 121.70703125 l 1
 199.234375 126.842773438 116.068359375 166.138671875 65.109375 254.401367188 c 2
 43.859375 291.20703125 l 2
 16.556640625 338.498046875 0.2216796875 399.845703125 0.2216796875 477.528320312 c 1
 37.0283203125 498.778320312 l 1
 58.2783203125 461.971679688 l 1
 58.2783203125 394.29296875 70.6767578125 339.012695312 91.9248046875 294.625 c 1
 140.977539062 223.435546875 211.333984375 188.838867188 291.721679688 180.956054688 c 1
 291.721679688 477.528320312 l 1
 328.528320312 498.778320312 l 1
 349.778320312 461.971679688 l 1
 349.778320312 142.372070312 l 1
 349.778320312 -79.5283203125 l 1
EndSplineSet
Validated: 524297
EndChar

StartChar: Thorn
Encoding: 222 222 156
Width: 404
Flags: W
HStem: -84.7783 21G<9.92485 56.1132> 300.722 58.0566<58.2783 296.278> 480 20G<1.35938 47.5471>
VStem: 0.22168 58.0566<-47.9717 62.65 181.979 300.722 358.778 463.194>
LayerCount: 2
Fore
SplineSet
-0.8056640625 478.75 m 1
 36 500 l 1
 57.25 463.194335938 l 1
 56.806640625 285.25 l 1
 20 264 l 1
 -1.25 300.805664062 l 1
 -0.8056640625 478.75 l 1
58.2783203125 3.2216796875 m 2
 58.2783203125 -63.5283203125 l 1
 21.4716796875 -84.7783203125 l 1
 0.2216796875 -47.9716796875 l 1
 0.2216796875 18.7783203125 l 2
 0.2216796875 56.525390625 13.89453125 78.4228515625 36.72265625 91.6025390625 c 2
 73.529296875 112.852539062 l 2
 94.017578125 124.681640625 122.07421875 129.293945312 150.989257812 135.291992188 c 0
 177.353515625 140.760742188 205.262695312 151.549804688 231.145507812 162.6640625 c 1
 264.684570312 188.4765625 290.1015625 225.969726562 296.278320312 300.721679688 c 1
 58.2783203125 300.721679688 l 1
 58.2783203125 166.421875 l 1
 21.4716796875 145.171875 l 1
 0.2216796875 181.978515625 l 1
 0.2216796875 358.778320312 l 1
 355.778320312 358.778320312 l 1
 355.778320312 321.971679688 l 2
 355.778320312 209.846679688 319.354492188 157.970703125 271.998046875 130.629882812 c 2
 235.19140625 109.379882812 l 2
 204.237304688 91.5078125 168.612304688 84.1181640625 135.43359375 77.2353515625 c 0
 115.561523438 73.11328125 96.56640625 69.173828125 79.9794921875 63.2724609375 c 1
 66.4072265625 50.0810546875 58.2783203125 31.3193359375 58.2783203125 3.2216796875 c 2
EndSplineSet
Validated: 524293
EndChar

StartChar: germandbls
Encoding: 223 223 157
Width: 354
Flags: W
HStem: -91.9004 21G<7.70317 52.375> -9.35059 52.251<130.017 220.212> 446.649 52.251<66.4838 183.357>
VStem: 0.125 52.25<-58.7744 437.517> 188.125 52.25<346.031 429.846> 247.625 52.25<73.6585 254.75>
LayerCount: 2
Fore
SplineSet
126.049804688 498.900390625 m 0
 172.690429688 498.900390625 196.739257812 490.2109375 209.016601562 468.9453125 c 2
 228.141601562 435.819335938 l 2
 236.897460938 420.654296875 239.66796875 399.092773438 240.375 369.724609375 c 0
 240.934570312 348.767578125 231.3515625 334.607421875 218.235351562 325.041015625 c 1
 240.247070312 316.060546875 254.508789062 302.91796875 263.749023438 286.9140625 c 2
 282.874023438 253.7890625 l 2
 299.875 224.340820312 299.875 185.204101562 299.875 144.474609375 c 0
 299.875 77.869140625 299.872070312 51.9755859375 258.932617188 28.33984375 c 2
 225.807617188 9.21484375 l 2
 203.530273438 -3.646484375 169.131835938 -9.91796875 116.016601562 -9.3505859375 c 1
 96.8916015625 23.775390625 l 1
 130.016601562 42.900390625 l 1
 170.166015625 42.470703125 199.62109375 45.94921875 221.23046875 53.2275390625 c 1
 221.23046875 78.8564453125 247.625 100.9375 247.625 158.475585938 c 0
 247.625 191.342773438 247.625 223.173828125 238.690429688 249.712890625 c 1
 217.693359375 272.401367188 180.985351562 286.36328125 116.809570312 286 c 1
 130.810546875 338.25 l 2
 130.810546875 338.25 151.841796875 338.444335938 173.623046875 345.598632812 c 1
 182.63671875 354.767578125 188.567382812 367.110351562 188.125 383.725585938 c 0
 187.676757812 402.301757812 186.404296875 417.755859375 183.313476562 430.442382812 c 1
 169.177734375 441.790039062 146.931640625 446.649414062 112.049804688 446.649414062 c 0
 81.58984375 446.649414062 97.6875 446.649414062 70.5625 438.063476562 c 1
 59.2421875 426.473632812 52.375 410.036132812 52.375 386.724609375 c 2
 52.375 -72.775390625 l 1
 19.25 -91.900390625 l 1
 0.125 -58.7744140625 l 1
 0.125 400.725585938 l 2
 0.125 432.723632812 13.0625 451.76953125 32.697265625 463.10546875 c 2
 65.8232421875 482.23046875 l 2
 94.6953125 498.900390625 88.05078125 498.900390625 126.049804688 498.900390625 c 0
EndSplineSet
Validated: 524321
EndChar

StartChar: agrave
Encoding: 224 224 158
Width: 409
Flags: W
HStem: 80 21G<0 18.625 307.333 349.476> 441 58<58 263> 531.006 21G<203.545 228.48>
VStem: 0 58<221 441> 298 53<157 400>
LayerCount: 2
Fore
SplineSet
161.400390625 659.491210938 m 5
 193 669 l 5
 229.416015625 634.73828125 l 5
 228.256835938 531.005859375 l 5
 203.544921875 542.680664062 l 5
 127.138671875 623.075195312 l 5
 161.400390625 659.491210938 l 5
0 80 m 1
 0 499 l 1
 118.666992188 499 232.333007812 499 351 499 c 1
 351 380 351 261 351 142 c 1
 319 121 l 1
 298 157 l 1
 298 400 l 1
 0 80 l 1
58 221 m 1
 263 441 l 1
 58 441 l 1
 58 221 l 1
EndSplineSet
Validated: 524289
EndChar

StartChar: aacute
Encoding: 225 225 159
Width: 409
Flags: W
HStem: 80 21G<0 18.625 307.333 349.476> 441 58<58 263>
VStem: 0 58<221 441> 298 53<157 400>
LayerCount: 2
Fore
SplineSet
226.154296875 659.491210938 m 5
 194.5546875 669 l 5
 158.138671875 634.73828125 l 5
 159.297851562 531.005859375 l 5
 184.009765625 542.680664062 l 5
 260.416015625 623.075195312 l 5
 226.154296875 659.491210938 l 5
0 80 m 1
 0 499 l 1
 118.666992188 499 232.333007812 499 351 499 c 1
 351 380 351 261 351 142 c 1
 319 121 l 1
 298 157 l 1
 298 400 l 1
 0 80 l 1
58 221 m 1
 263 441 l 1
 58 441 l 1
 58 221 l 1
EndSplineSet
Validated: 524297
EndChar

StartChar: acircumflex
Encoding: 226 226 160
Width: 409
Flags: W
HStem: 80 21G<0 18.625 307.333 349.476> 441 58<58 263> 532.368 21G<100.285 146.473 239.517 291.653>
VStem: 0 58<221 441> 298 53<157 400>
LayerCount: 2
Fore
SplineSet
192.034179688 601.549804688 m 5
 148.637695312 553.618164062 l 5
 111.83203125 532.368164062 l 5
 90.58203125 569.173828125 l 5
 190.326171875 679.341796875 l 5
 272.568359375 585.32421875 l 5
 293.818359375 548.517578125 l 5
 257.01171875 527.267578125 l 5
 192.034179688 601.549804688 l 5
0 80 m 1
 0 499 l 1
 118.666992188 499 232.333007812 499 351 499 c 1
 351 380 351 261 351 142 c 1
 319 121 l 1
 298 157 l 1
 298 400 l 1
 0 80 l 1
58 221 m 1
 263 441 l 1
 58 441 l 1
 58 221 l 1
EndSplineSet
Validated: 524289
EndChar

StartChar: atilde
Encoding: 227 227 161
Width: 409
Flags: W
HStem: 80 21G<0 18.625 307.333 349.476> 441 58<58 263> 530.182 21G<13.7782 54.2781>
VStem: 0 58<221 441 562.504 622.254> 285.869 59.9189<601.731 655.525> 298 53<157 400>
LayerCount: 2
Fore
SplineSet
263.232421875 533.611328125 m 4xf8
 239.4140625 525.172851562 219.328125 534.723632812 204.756835938 547.165039062 c 6
 172.435546875 574.76171875 l 6
 156.12890625 588.685546875 146.727539062 606.229492188 146.727539062 606.229492188 c 5
 146.727539062 606.229492188 144.41015625 609.079101562 140.297851562 613.43359375 c 4
 121.646484375 625.7890625 98.5517578125 634.895507812 76.3447265625 627.028320312 c 4
 73.490234375 626.016601562 70.927734375 624.869140625 68.4794921875 623.583984375 c 4
 57.8740234375 595.276367188 64.798828125 562.50390625 64.798828125 562.50390625 c 5
 37.2021484375 530.181640625 l 5
 4.8798828125 557.779296875 l 5
 4.8798828125 557.779296875 -5.7861328125 608.262695312 19.634765625 638.036132812 c 6
 47.2314453125 670.358398438 l 6
 53.162109375 677.303710938 60.9892578125 683.180664062 71.619140625 686.946289062 c 4
 100.94140625 697.334960938 131.80859375 678.130859375 151.955078125 660.9296875 c 6
 184.276367188 633.33203125 l 6
 197.918945312 621.684570312 206.645507812 610.954101562 206.645507812 610.954101562 c 5
 206.645507812 610.954101562 210.19140625 604.3359375 216.705078125 596.00390625 c 5
 228.668945312 590.231445312 242.7734375 587.955078125 258.508789062 593.530273438 c 4
 263.723632812 595.377929688 268.4453125 597.736328125 272.71875 600.491210938 c 4
 285.688476562 626.918945312 285.869140625 655.525390625 285.869140625 655.525390625 c 5
 313.466796875 687.84765625 l 5
 345.788085938 660.25 l 5
 345.788085938 660.25 345.504882812 615.78515625 320.512695312 586.513671875 c 6
 292.916015625 554.192382812 l 6
 285.446289062 545.444335938 275.76953125 538.052734375 263.232421875 533.611328125 c 4xf8
0 80 m 1
 0 499 l 1
 118.666992188 499 232.333007812 499 351 499 c 1
 351 380 351 261 351 142 c 1
 319 121 l 1
 298 157 l 1
 298 400 l 1xf4
 0 80 l 1
58 221 m 1
 263 441 l 1
 58 441 l 1
 58 221 l 1
EndSplineSet
Validated: 524321
EndChar

StartChar: adieresis
Encoding: 228 228 162
Width: 409
Flags: W
HStem: 80 21G<0 18.625 307.333 349.476> 441 58<58 263> 532.275 54.4492<112.238 161.709 192.238 241.709>
VStem: 0 58<221 441> 111.311 51.3789<532.669 585.947> 191.311 51.3789<532.669 585.947> 298 53<157 400>
LayerCount: 2
Fore
SplineSet
242.689453125 557.946289062 m 4
 242.689453125 549.569335938 238.377929688 541.739257812 231.677734375 537.87109375 c 6
 226.359375 534.799804688 l 6
 223.58203125 533.197265625 220.396484375 532.275390625 216.936523438 532.275390625 c 4
 208.51953125 532.275390625 201.369140625 536.861328125 197.487304688 543.583984375 c 6
 194.416992188 548.90234375 l 6
 192.438476562 552.329101562 191.310546875 556.318359375 191.310546875 560.5625 c 4
 191.310546875 569.118164062 195.893554688 576.814453125 202.790039062 580.796875 c 6
 208.108398438 583.8671875 l 6
 211.252929688 585.682617188 214.877929688 586.724609375 218.76953125 586.724609375 c 4
 226.459960938 586.724609375 232.618164062 582.369140625 236.209960938 576.1484375 c 6
 239.280273438 570.830078125 l 6
 241.46484375 567.045898438 242.689453125 562.567382812 242.689453125 557.946289062 c 4
162.689453125 557.946289062 m 4
 162.689453125 549.569335938 158.377929688 541.739257812 151.677734375 537.87109375 c 6
 146.359375 534.799804688 l 6
 143.58203125 533.197265625 140.396484375 532.275390625 136.936523438 532.275390625 c 4
 128.51953125 532.275390625 121.369140625 536.861328125 117.487304688 543.583984375 c 6
 114.416992188 548.90234375 l 6
 112.438476562 552.329101562 111.310546875 556.318359375 111.310546875 560.5625 c 4
 111.310546875 569.118164062 115.893554688 576.814453125 122.790039062 580.796875 c 6
 128.108398438 583.8671875 l 6
 131.252929688 585.682617188 134.877929688 586.724609375 138.76953125 586.724609375 c 4
 146.459960938 586.724609375 152.618164062 582.369140625 156.209960938 576.1484375 c 6
 159.280273438 570.830078125 l 6
 161.46484375 567.045898438 162.689453125 562.567382812 162.689453125 557.946289062 c 4
0 80 m 1
 0 499 l 1
 118.666992188 499 232.333007812 499 351 499 c 1
 351 380 351 261 351 142 c 1
 319 121 l 1
 298 157 l 1
 298 400 l 1
 0 80 l 1
58 221 m 1
 263 441 l 1
 58 441 l 1
 58 221 l 1
EndSplineSet
Validated: 524289
EndChar

